<svg width="625" height="282" viewBox="0 0 625 282" fill="none" xmlns="http://www.w3.org/2000/svg">
<path d="M239.823 9.99684C239.423 9.46351 239.023 8.93018 238.623 8.39684C237.823 7.33018 236.556 7.09684 234.823 7.69684C233.156 8.23018 232.323 9.36351 232.323 11.0968C232.39 12.8302 233.656 14.1635 236.123 15.0968C238.59 16.0302 239.823 17.4302 239.823 19.2968C239.89 21.0968 238.89 22.1968 236.823 22.5968C234.756 22.9968 233.423 22.6968 232.823 21.6968C232.49 21.1635 232.156 20.6302 231.823 20.0968M244.123 17.2968C245.723 17.3635 247.323 17.4302 248.923 17.4968C252.056 17.6302 253.49 16.8302 253.223 15.0968C252.956 13.3635 251.823 12.2302 249.823 11.6968C247.756 11.0968 246.123 11.9302 244.923 14.1968C243.79 16.3968 243.656 18.4635 244.523 20.3968C245.39 22.2635 246.723 23.1302 248.523 22.9968C250.39 22.8635 251.69 22.6635 252.423 22.3968C252.756 22.2635 253.123 22.1302 253.523 21.9968M258.623 7.29684L258.423 22.9968M267.923 7.09684C267.79 7.03018 267.656 6.96351 267.523 6.89684C267.256 6.76351 266.69 7.06351 265.823 7.79684C264.89 8.53018 264.39 9.53018 264.323 10.7968C264.19 12.1302 264.156 14.4635 264.223 17.7968C264.29 19.4635 264.323 21.1302 264.323 22.7968M261.823 11.6968L267.523 11.9968M270.123 16.0968L275.523 16.2968M289.123 19.4968C289.056 18.2302 288.99 16.9635 288.923 15.6968C288.856 13.1635 287.256 11.9302 284.123 11.9968C281.056 11.9968 279.523 13.7968 279.523 17.3968C279.523 20.9968 281.09 22.7968 284.223 22.7968C287.29 22.7302 288.856 21.3968 288.923 18.7968C288.99 17.4635 289.056 16.1635 289.123 14.8968M289.023 6.79684L289.223 22.6968M294.323 11.5968L294.623 22.6968M294.323 7.69684L294.523 7.99684M305.323 12.9968C305.056 12.6635 304.756 12.3302 304.423 11.9968C303.756 11.3302 302.756 11.1635 301.423 11.4968C300.023 11.7635 299.323 12.4968 299.323 13.6968C299.323 14.9635 300.39 16.1302 302.523 17.1968C304.59 18.2635 305.623 19.3968 305.623 20.5968C305.623 21.7968 304.823 22.4968 303.223 22.6968C301.69 22.9635 300.623 22.6635 300.023 21.7968C299.756 21.3968 299.49 20.9968 299.223 20.5968M317.823 13.0968C317.223 12.8302 316.623 12.5302 316.023 12.1968C314.756 11.5968 313.323 11.7968 311.723 12.7968C310.123 13.7968 309.323 15.3635 309.323 17.4968C309.323 19.6968 310.156 21.2968 311.823 22.2968C313.423 23.2968 314.823 23.2968 316.023 22.2968C316.623 21.8302 317.256 21.3302 317.923 20.7968M336.223 11.6968L340.623 22.6968M340.323 22.7968L344.923 11.7968M348.623 17.0968C350.223 17.0968 351.823 17.0968 353.423 17.0968C356.623 17.0968 358.056 16.2968 357.723 14.6968C357.39 13.0968 356.156 12.0635 354.023 11.5968C351.823 11.1968 350.256 12.0635 349.323 14.1968C348.39 16.3968 348.29 18.3968 349.023 20.1968C349.69 22.0635 350.99 22.9635 352.923 22.8968C354.79 22.8302 356.056 22.5968 356.723 22.1968C357.056 21.9968 357.356 21.7968 357.623 21.5968M363.223 11.5968L363.123 22.7968M363.123 16.7968C363.256 16.0635 363.423 15.3302 363.623 14.5968C363.89 13.0635 364.556 12.1635 365.623 11.8968C366.156 11.7635 366.69 11.6302 367.223 11.4968M369.923 11.4968L374.623 23.0968M379.123 11.5968L373.123 26.9968M327.323 11.8968C326.456 11.7635 325.623 11.8635 324.823 12.1968C323.156 12.6635 322.323 14.6302 322.323 18.0968C322.323 21.5635 323.99 23.2635 327.323 23.1968C330.723 23.1302 332.456 21.3968 332.523 17.9968C332.656 14.5968 331.823 12.7302 330.023 12.3968C329.09 12.1968 328.19 12.0302 327.323 11.8968Z" stroke="black" stroke-opacity="0.75" stroke-width="2" stroke-miterlimit="1.5" stroke-linecap="round" stroke-linejoin="round"/>
<path fill-rule="evenodd" clip-rule="evenodd" d="M305.85 64.88C304.117 66.3466 302.35 67.8133 300.55 69.28C297.083 72.28 293.783 75.4133 290.65 78.68C287.517 81.9466 284.617 85.4133 281.95 89.08C279.217 92.68 276.683 96.4466 274.35 100.38C272.083 104.38 270.95 106.38 270.95 106.38C270.95 106.38 270.45 107.413 269.45 109.48C268.45 111.613 267.517 113.747 266.65 115.88C265.783 118.013 264.983 120.18 264.25 122.38C263.45 124.58 262.75 126.813 262.15 129.08C261.55 131.28 261.25 132.38 261.25 132.38C261.25 132.38 261.017 133.547 260.55 135.88C260.017 138.213 259.583 140.58 259.25 142.98C258.917 145.313 258.617 147.68 258.35 150.08C258.15 152.48 258.017 154.88 257.95 157.28C257.883 159.68 257.883 162.08 257.95 164.48C258.017 166.88 258.15 169.28 258.35 171.68C258.617 174.08 258.917 176.447 259.25 178.78C259.583 181.18 260.017 183.547 260.55 185.88C261.017 188.213 261.25 189.38 261.25 189.38C261.25 189.38 261.55 190.48 262.15 192.68C262.75 194.947 263.45 197.18 264.25 199.38C264.983 201.58 265.783 203.747 266.65 205.88C267.517 208.013 268.45 210.147 269.45 212.28C270.45 214.347 270.95 215.38 270.95 215.38C270.95 215.38 272.083 217.38 274.35 221.38C276.683 225.313 279.217 229.08 281.95 232.68C284.617 236.347 287.517 239.813 290.65 243.08C293.783 246.347 298.85 250.947 305.85 256.88C300.65 260.48 296.683 263.08 293.95 264.68C291.217 266.28 288.417 267.747 285.55 269.08C282.75 270.413 279.85 271.68 276.85 272.88C273.917 274.013 272.45 274.58 272.45 274.58C272.45 274.58 270.883 275.013 267.75 275.88C264.617 276.813 261.45 277.613 258.25 278.28C255.05 278.947 251.817 279.48 248.55 279.88C245.35 280.28 242.083 280.547 238.75 280.68C235.483 280.813 231.85 280.78 227.85 280.58C223.783 280.38 219.783 279.98 215.85 279.38C211.917 278.78 208.017 278.013 204.15 277.08C200.35 276.08 196.55 274.88 192.75 273.48C189.017 272.147 187.15 271.48 187.15 271.48C187.15 271.48 185.417 270.647 181.95 268.98C178.417 267.247 175.017 265.413 171.75 263.48C168.483 261.48 165.317 259.313 162.25 256.98C159.183 254.713 156.217 252.28 153.35 249.68C150.417 247.08 148.95 245.78 148.95 245.78C148.95 245.78 147.65 244.313 145.05 241.38C142.45 238.513 140.017 235.547 137.75 232.48C135.417 229.413 133.25 226.247 131.25 222.98C129.317 219.713 127.483 216.313 125.75 212.78C124.083 209.313 123.25 207.58 123.25 207.58C123.25 207.58 122.583 205.713 121.25 201.98C119.85 198.18 118.65 194.38 117.65 190.58C116.717 186.713 115.95 182.813 115.35 178.88C114.75 174.947 114.35 170.947 114.15 166.88C113.95 162.88 113.95 158.88 114.15 154.88C114.35 150.813 114.75 146.813 115.35 142.88C115.95 138.947 116.717 135.047 117.65 131.18C118.65 127.38 119.85 123.58 121.25 119.78C122.583 116.047 123.25 114.18 123.25 114.18C123.25 114.18 124.083 112.447 125.75 108.98C127.483 105.447 129.317 102.047 131.25 98.78C133.25 95.5133 135.417 92.3466 137.75 89.28C140.017 86.2133 142.45 83.2466 145.05 80.38C147.65 77.4466 148.95 75.98 148.95 75.98C148.95 75.98 150.417 74.68 153.35 72.08C156.217 69.48 159.183 67.0466 162.25 64.78C165.317 62.4466 168.483 60.28 171.75 58.28C175.017 56.3466 178.417 54.5133 181.95 52.78C185.417 51.1133 187.15 50.28 187.15 50.28C187.15 50.28 189.017 49.6133 192.75 48.28C196.55 46.88 200.35 45.68 204.15 44.68C208.017 43.7466 211.917 42.98 215.85 42.38C219.783 41.78 223.783 41.38 227.85 41.18C231.85 40.98 235.483 40.9466 238.75 41.08C242.083 41.2133 245.35 41.48 248.55 41.88C251.817 42.28 255.05 42.8133 258.25 43.48C261.45 44.1466 264.617 44.9466 267.75 45.88C270.883 46.7466 272.45 47.18 272.45 47.18C272.45 47.18 273.917 47.7466 276.85 48.88C279.85 50.08 282.75 51.3466 285.55 52.68C288.417 54.0133 291.217 55.48 293.95 57.08C296.683 58.68 299.35 60.38 301.95 62.18C304.55 63.98 305.85 64.88 305.85 64.88Z" fill="#FFC977" stroke="black" stroke-opacity="0.5" stroke-width="2" stroke-miterlimit="1.5" stroke-linecap="round" stroke-linejoin="round"/>
<path fill-rule="evenodd" clip-rule="evenodd" d="M305.8 257C307.533 255.533 309.3 254.067 311.1 252.6C314.567 249.6 317.867 246.467 321 243.2C324.133 239.933 327.033 236.467 329.7 232.8C332.433 229.2 334.967 225.433 337.3 221.5C339.567 217.5 340.7 215.5 340.7 215.5C340.7 215.5 341.2 214.467 342.2 212.4C343.2 210.267 344.133 208.133 345 206C345.867 203.867 346.667 201.7 347.4 199.5C348.2 197.3 348.9 195.067 349.5 192.8C350.1 190.6 350.4 189.5 350.4 189.5C350.4 189.5 350.633 188.333 351.1 186C351.633 183.667 352.067 181.3 352.4 178.9C352.733 176.567 353.033 174.2 353.3 171.8C353.5 169.4 353.633 167 353.7 164.6C353.767 162.2 353.767 159.8 353.7 157.4C353.633 155 353.5 152.6 353.3 150.2C353.033 147.8 352.733 145.433 352.4 143.1C352.067 140.7 351.633 138.333 351.1 136C350.633 133.667 350.4 132.5 350.4 132.5C350.4 132.5 350.1 131.4 349.5 129.2C348.9 126.933 348.2 124.7 347.4 122.5C346.667 120.3 345.867 118.133 345 116C344.133 113.867 343.2 111.733 342.2 109.6C341.2 107.533 340.7 106.5 340.7 106.5C340.7 106.5 339.567 104.5 337.3 100.5C334.967 96.5667 332.433 92.8 329.7 89.2C327.033 85.5333 324.133 82.0667 321 78.8C317.867 75.5333 312.8 70.9333 305.8 65C311 61.4 314.967 58.8 317.7 57.2C320.433 55.6 323.233 54.1333 326.1 52.8C328.9 51.4667 331.8 50.2 334.8 49C337.733 47.8667 339.2 47.3 339.2 47.3C339.2 47.3 340.767 46.8667 343.9 46C347.033 45.0667 350.2 44.2667 353.4 43.6C356.6 42.9333 359.833 42.4 363.1 42C366.3 41.6 369.567 41.3333 372.9 41.2C376.167 41.0667 379.8 41.1 383.8 41.3C387.867 41.5 391.867 41.9 395.8 42.5C399.733 43.1 403.633 43.8667 407.5 44.8C411.3 45.8 415.1 47 418.9 48.4C422.633 49.7333 424.5 50.4 424.5 50.4C424.5 50.4 426.233 51.2333 429.7 52.9C433.233 54.6333 436.633 56.4667 439.9 58.4C443.167 60.4 446.333 62.5667 449.4 64.9C452.467 67.1667 455.433 69.6 458.3 72.2C461.233 74.8 462.7 76.1 462.7 76.1C462.7 76.1 464 77.5667 466.6 80.5C469.2 83.3667 471.633 86.3333 473.9 89.4C476.233 92.4667 478.4 95.6333 480.4 98.9C482.333 102.167 484.167 105.567 485.9 109.1C487.567 112.567 488.4 114.3 488.4 114.3C488.4 114.3 489.067 116.167 490.4 119.9C491.8 123.7 493 127.5 494 131.3C494.933 135.167 495.7 139.067 496.3 143C496.9 146.933 497.3 150.933 497.5 155C497.7 159 497.7 163 497.5 167C497.3 171.067 496.9 175.067 496.3 179C495.7 182.933 494.933 186.833 494 190.7C493 194.5 491.8 198.3 490.4 202.1C489.067 205.833 488.4 207.7 488.4 207.7C488.4 207.7 487.567 209.433 485.9 212.9C484.167 216.433 482.333 219.833 480.4 223.1C478.4 226.367 476.233 229.533 473.9 232.6C471.633 235.667 469.2 238.633 466.6 241.5C464 244.433 462.7 245.9 462.7 245.9C462.7 245.9 461.233 247.2 458.3 249.8C455.433 252.4 452.467 254.833 449.4 257.1C446.333 259.433 443.167 261.6 439.9 263.6C436.633 265.533 433.233 267.367 429.7 269.1C426.233 270.767 424.5 271.6 424.5 271.6C424.5 271.6 422.633 272.267 418.9 273.6C415.1 275 411.3 276.2 407.5 277.2C403.633 278.133 399.733 278.9 395.8 279.5C391.867 280.1 387.867 280.5 383.8 280.7C379.8 280.9 376.167 280.933 372.9 280.8C369.567 280.667 366.3 280.4 363.1 280C359.833 279.6 356.6 279.067 353.4 278.4C350.2 277.733 347.033 276.933 343.9 276C340.767 275.133 339.2 274.7 339.2 274.7C339.2 274.7 337.733 274.133 334.8 273C331.8 271.8 328.9 270.533 326.1 269.2C323.233 267.867 320.433 266.4 317.7 264.8C314.967 263.2 312.3 261.5 309.7 259.7C307.1 257.9 305.8 257 305.8 257Z" fill="#AFC8FF" stroke="black" stroke-opacity="0.5" stroke-width="2" stroke-miterlimit="1.5" stroke-linecap="round" stroke-linejoin="round"/>
<path fill-rule="evenodd" clip-rule="evenodd" d="M305.95 257C307.683 255.533 309.45 254.067 311.25 252.6C314.717 249.6 318.017 246.467 321.15 243.2C324.283 239.933 327.183 236.467 329.85 232.8C332.583 229.2 335.117 225.433 337.45 221.5C339.717 217.5 340.85 215.5 340.85 215.5C340.85 215.5 341.35 214.467 342.35 212.4C343.35 210.267 344.283 208.133 345.15 206C346.017 203.867 346.817 201.7 347.55 199.5C348.35 197.3 349.05 195.1 349.65 192.9C350.25 190.633 350.55 189.5 350.55 189.5C350.55 189.5 350.783 188.333 351.25 186C351.783 183.667 352.217 181.3 352.55 178.9C352.883 176.567 353.183 174.2 353.45 171.8C353.65 169.4 353.783 167 353.85 164.6C353.917 162.2 353.917 159.8 353.85 157.4C353.783 155 353.65 152.6 353.45 150.2C353.183 147.8 352.883 145.433 352.55 143.1C352.217 140.7 351.783 138.333 351.25 136C350.783 133.667 350.55 132.5 350.55 132.5C350.55 132.5 350.25 131.4 349.65 129.2C349.05 126.933 348.35 124.7 347.55 122.5C346.817 120.3 346.017 118.133 345.15 116C344.283 113.867 343.35 111.733 342.35 109.6C341.35 107.533 340.85 106.5 340.85 106.5C340.85 106.5 339.717 104.533 337.45 100.6C335.117 96.6 332.583 92.8 329.85 89.2C327.183 85.5333 324.283 82.0666 321.15 78.8C318.017 75.5333 312.95 70.9333 305.95 65C298.95 70.9333 293.883 75.5333 290.75 78.8C287.617 82.0666 284.717 85.5333 282.05 89.2C279.317 92.8 276.783 96.6 274.45 100.6C272.183 104.533 271.05 106.5 271.05 106.5C271.05 106.5 270.55 107.533 269.55 109.6C268.55 111.733 267.617 113.867 266.75 116C265.883 118.133 265.083 120.3 264.35 122.5C263.55 124.7 262.85 126.933 262.25 129.2C261.65 131.4 261.35 132.5 261.35 132.5C261.35 132.5 261.117 133.667 260.65 136C260.117 138.333 259.683 140.7 259.35 143.1C259.017 145.433 258.717 147.8 258.45 150.2C258.25 152.6 258.117 155 258.05 157.4C257.983 159.8 257.983 162.2 258.05 164.6C258.117 167 258.25 169.4 258.45 171.8C258.717 174.2 259.017 176.567 259.35 178.9C259.683 181.3 260.117 183.667 260.65 186C261.117 188.333 261.35 189.5 261.35 189.5C261.35 189.5 261.65 190.633 262.25 192.9C262.85 195.1 263.55 197.3 264.35 199.5C265.083 201.7 265.883 203.867 266.75 206C267.617 208.133 268.55 210.267 269.55 212.4C270.55 214.467 271.05 215.5 271.05 215.5C271.05 215.5 272.183 217.5 274.45 221.5C276.783 225.433 279.317 229.2 282.05 232.8C284.717 236.467 287.617 239.933 290.75 243.2C293.883 246.467 297.183 249.6 300.65 252.6C304.183 255.533 305.95 257 305.95 257Z" fill="#96FFB3" stroke="black" stroke-opacity="0.5" stroke-width="2" stroke-miterlimit="1.5" stroke-linecap="round" stroke-linejoin="round"/>
<path d="M9.51288 141.865L9.41288 156.465M9.61288 141.965C10.8129 141.899 12.0129 141.832 13.2129 141.765C15.5462 141.632 16.6795 142.899 16.6129 145.565C16.4795 148.232 15.2462 149.532 12.9129 149.465C11.7129 149.465 10.5129 149.465 9.31288 149.465M20.3129 151.265C21.9795 151.332 23.6129 151.365 25.2129 151.365C28.4129 151.499 29.8462 150.699 29.5129 148.965C29.1795 147.299 27.9795 146.199 25.9129 145.665C23.8462 145.199 22.2795 146.065 21.2129 148.265C20.1462 150.399 19.9795 152.432 20.7129 154.365C21.5129 156.232 22.8462 157.199 24.7129 157.265C26.6462 157.265 27.9462 157.065 28.6129 156.665C28.9462 156.399 29.2795 156.165 29.6129 155.965M35.0129 145.865L34.9129 157.265M34.9129 150.765C35.0462 150.099 35.1795 149.432 35.3129 148.765C35.5795 147.365 36.2462 146.532 37.3129 146.265C37.8462 146.132 38.3795 146.032 38.9129 145.965M48.2129 147.665C47.8795 147.332 47.5462 146.999 47.2129 146.665C46.4795 145.999 45.4462 145.732 44.1129 145.865C42.7795 146.065 42.1795 146.732 42.3129 147.865C42.4462 149.065 43.4795 150.199 45.4129 151.265C47.4129 152.332 48.3795 153.465 48.3129 154.665C48.2462 155.799 47.4462 156.565 45.9129 156.965C44.3795 157.365 43.3462 157.099 42.8129 156.165C42.5462 155.632 42.3129 155.132 42.1129 154.665M67.3129 145.965V156.765M67.3129 153.965C67.3129 152.565 67.3462 151.165 67.4129 149.765C67.4795 146.965 68.7795 145.632 71.3129 145.765C73.9129 145.832 75.1796 147.199 75.1129 149.865C75.1129 152.465 75.1462 154.265 75.2129 155.265C75.2129 155.799 75.2129 156.332 75.2129 156.865M79.7129 146.565C80.4462 146.365 81.1795 146.132 81.9129 145.865C83.4462 145.399 84.8129 145.432 86.0129 145.965C87.2795 146.565 87.8795 147.365 87.8129 148.365C87.7462 149.432 87.6129 151.132 87.4129 153.465C87.2129 155.865 85.8795 157.099 83.4129 157.165C80.9462 157.299 79.7462 156.165 79.8129 153.765C79.8795 151.432 81.0795 150.299 83.4129 150.365C85.7462 150.432 87.0462 151.599 87.3129 153.865C87.4462 154.999 87.6129 156.132 87.8129 157.265M92.5129 141.165L92.6129 157.065M30.5129 177.465C30.4462 176.199 30.3795 174.899 30.3129 173.565C30.2462 170.899 28.6129 169.599 25.4129 169.665C22.2129 169.732 20.5795 171.632 20.5129 175.365C20.5129 179.032 22.1129 180.865 25.3129 180.865C28.5129 180.932 30.2129 179.665 30.4129 177.065C30.4795 175.799 30.5795 174.499 30.7129 173.165M30.6129 169.665C30.6129 171.132 30.6129 172.599 30.6129 174.065C30.6129 176.932 30.6129 179.232 30.6129 180.965C30.6129 182.632 29.9462 183.899 28.6129 184.765C27.2795 185.632 25.8129 185.732 24.2129 185.065C23.4129 184.732 22.6129 184.399 21.8129 184.065M36.2129 170.065L35.9129 180.965M35.9129 174.565C36.0462 173.899 36.1795 173.199 36.3129 172.465C36.5795 171.065 37.2462 170.265 38.3129 170.065C38.8462 169.932 39.3795 169.799 39.9129 169.665M57.3129 169.965L61.2129 180.965M61.2129 181.065L65.4129 170.065M65.3129 169.965L69.4129 181.265M69.1129 180.865L73.1129 169.965M78.0129 164.965C77.9462 166.432 77.9129 167.899 77.9129 169.365C77.8462 172.232 77.8462 174.999 77.9129 177.665C78.0462 180.332 78.6129 181.499 79.6129 181.165C80.1462 181.032 80.6795 180.899 81.2129 180.765M75.8129 169.465L81.2129 169.965M85.2129 165.165V180.965M85.1129 177.765C85.1796 176.432 85.2462 175.065 85.3129 173.665C85.4462 170.999 86.7462 169.732 89.2129 169.865C91.6129 169.999 92.8129 171.365 92.8129 173.965C92.7462 176.499 92.7462 178.365 92.8129 179.565C92.8795 180.165 92.9129 180.765 92.9129 181.365M57.3129 145.665C56.5129 145.732 55.6462 145.899 54.7129 146.165C53.1129 146.432 52.2462 148.299 52.1129 151.765C52.0462 155.165 53.7795 156.832 57.3129 156.765C60.8462 156.765 62.5795 155.032 62.5129 151.565C62.5129 148.099 61.6795 146.232 60.0129 145.965C59.0795 145.765 58.1795 145.665 57.3129 145.665ZM48.8129 169.665C47.8795 169.665 46.9795 169.799 46.1129 170.065C44.3129 170.465 43.4129 172.432 43.4129 175.965C43.4129 179.499 45.1462 181.265 48.6129 181.265C52.0129 181.265 53.7795 179.432 53.9129 175.765C54.0462 172.165 53.2129 170.232 51.4129 169.965C50.5462 169.699 49.6795 169.599 48.8129 169.665Z" stroke="black" stroke-opacity="0.75" stroke-width="2" stroke-miterlimit="1.5" stroke-linecap="round" stroke-linejoin="round"/>
<path d="M183.8 161V167M187.8 184C188 182.333 188.167 180.667 188.3 179C188.633 175.667 188.8 174 188.8 174C188.8 174 189.467 174 190.8 174C192.133 174 192.8 174 192.8 174C192.8 174 192.8 172.667 192.8 170C192.8 167.333 192.7 165.333 192.5 164C192.3 162.733 191.933 161.633 191.4 160.7C190.8 159.7 190.033 158.933 189.1 158.4C188.167 157.867 187.067 157.5 185.8 157.3C184.467 157.1 183.133 157.1 181.8 157.3C180.533 157.5 179.433 157.867 178.5 158.4C177.5 158.933 176.733 159.7 176.2 160.7C175.667 161.633 175.3 162.733 175.1 164C174.9 165.333 174.8 166 174.8 166C174.8 166 174.8 167.333 174.8 170C174.8 172.667 174.8 174 174.8 174C174.8 174 175.467 174 176.8 174C178.133 174 178.8 174 178.8 174C178.8 174 178.967 175.667 179.3 179C179.5 180.667 179.667 182.333 179.8 184M178.7 145C178.9 145.2 179.133 145.433 179.4 145.7C179.933 146.1 180.5 146.467 181.1 146.8C181.633 147.067 182.2 147.3 182.8 147.5C183.467 147.7 184.133 147.833 184.8 147.9C185.467 147.967 185.967 148 186.3 148C186.633 148 186.967 147.967 187.3 147.9C187.633 147.833 187.967 147.767 188.3 147.7C188.633 147.567 188.967 147.467 189.3 147.4C189.5 147.333 189.667 147.267 189.8 147.2M189.8 138C194.667 138 199.5 138 204.3 138C213.967 138 218.933 138.033 219.2 138.1C219.533 138.1 219.8 138.167 220 138.3C220.2 138.433 220.367 138.6 220.5 138.8C220.633 139 220.7 139.267 220.7 139.6C220.767 139.867 220.8 140 220.8 140C220.8 140 220.8 143.333 220.8 150C220.8 156.667 220.767 160.133 220.7 160.4C220.7 160.733 220.633 161 220.5 161.2C220.367 161.4 220.2 161.567 220 161.7C219.8 161.833 219.533 161.9 219.2 161.9C218.933 161.967 218.8 162 218.8 162C218.8 162 215.3 162 208.3 162C204.767 162 201.267 162 197.8 162M202.8 162V174M198.8 174H206.8M195.8 152L201.8 146L204.8 149L211.8 142M211.8 142H206.8M211.8 142V147M208.8 154H212.8M208.8 158H214.8M189.8 148C189.8 148.2 189.767 148.4 189.7 148.6C189.7 149 189.633 149.367 189.5 149.7C189.367 150.1 189.233 150.467 189.1 150.8C188.9 151.133 188.667 151.467 188.4 151.8C188.133 152.067 187.867 152.333 187.6 152.6C187.267 152.867 186.933 153.1 186.6 153.3C186.267 153.433 185.9 153.567 185.5 153.7C185.167 153.833 184.8 153.9 184.4 153.9C184 153.967 183.6 153.967 183.2 153.9C182.867 153.9 182.5 153.833 182.1 153.7C181.7 153.567 181.333 153.433 181 153.3C180.667 153.1 180.333 152.867 180 152.6C179.733 152.333 179.467 152.067 179.2 151.8C178.933 151.467 178.733 151.133 178.6 150.8C178.4 150.467 178.233 150.1 178.1 149.7C178.033 149.367 177.967 149 177.9 148.6C177.833 148.2 177.833 147.8 177.9 147.4C177.967 147 178.033 146.633 178.1 146.3C178.233 145.9 178.4 145.533 178.6 145.2C178.733 144.867 178.933 144.533 179.2 144.2C179.467 143.933 179.733 143.667 180 143.4C180.333 143.133 180.667 142.9 181 142.7C181.333 142.567 181.7 142.433 182.1 142.3C182.5 142.167 182.867 142.1 183.2 142.1C183.6 142.033 184 142.033 184.4 142.1C184.8 142.1 185.167 142.167 185.5 142.3C185.9 142.433 186.267 142.567 186.6 142.7C186.933 142.9 187.267 143.133 187.6 143.4C187.867 143.667 188.133 143.933 188.4 144.2C188.667 144.533 188.9 144.867 189.1 145.2C189.233 145.533 189.367 145.9 189.5 146.3C189.633 146.633 189.7 147 189.7 147.4C189.767 147.6 189.8 147.8 189.8 148Z" stroke="black" stroke-opacity="0.75" stroke-width="2" stroke-miterlimit="1.5" stroke-linecap="round" stroke-linejoin="round"/>
<path d="M289.8 184C289.8 178 289.8 172 289.8 166C289.8 154 289.833 147.7 289.9 147.1C290.033 146.5 290.2 146 290.4 145.6C290.667 145.2 291 144.867 291.4 144.6C291.8 144.333 292.3 144.167 292.9 144.1C293.233 144.1 293.533 144.067 293.8 144M317.8 144C318.067 144.067 318.367 144.1 318.7 144.1C319.3 144.233 319.8 144.4 320.2 144.6C320.6 144.867 320.933 145.2 321.2 145.6C321.467 146 321.633 146.5 321.7 147.1C321.767 147.7 321.8 148 321.8 148C321.8 148 321.8 154 321.8 166C321.8 172 321.8 178 321.8 184M321.8 154H289.8M305.8 142V138M301.8 144L298.8 141M309.8 144L312.8 141M311.8 148H315.8M295.8 148H299.8M300.6 162C300.867 162.2 301.133 162.4 301.4 162.6C301.933 163.067 302.467 163.467 303 163.8C303.6 164.067 304.2 164.3 304.8 164.5C305.467 164.7 306.133 164.833 306.8 164.9C307.467 164.967 307.967 165 308.3 165C308.633 165 308.967 164.967 309.3 164.9C309.633 164.833 309.967 164.767 310.3 164.7C310.633 164.567 310.967 164.467 311.3 164.4C311.5 164.333 311.667 164.267 311.8 164.2M307.8 148C307.8 148.067 307.8 148.133 307.8 148.2C307.8 148.333 307.767 148.467 307.7 148.6C307.633 148.733 307.6 148.833 307.6 148.9C307.533 149.033 307.433 149.167 307.3 149.3C307.233 149.367 307.167 149.433 307.1 149.5C306.967 149.633 306.833 149.733 306.7 149.8C306.633 149.8 306.533 149.833 306.4 149.9C306.267 149.967 306.133 150 306 150C305.867 150 305.733 150 305.6 150C305.467 150 305.333 149.967 305.2 149.9C305.067 149.833 304.967 149.8 304.9 149.8C304.767 149.733 304.633 149.633 304.5 149.5C304.433 149.433 304.367 149.367 304.3 149.3C304.167 149.167 304.067 149.033 304 148.9C304 148.833 303.967 148.733 303.9 148.6C303.833 148.467 303.8 148.333 303.8 148.2C303.8 148.067 303.8 147.933 303.8 147.8C303.8 147.667 303.833 147.533 303.9 147.4C303.967 147.267 304 147.167 304 147.1C304.067 146.967 304.167 146.833 304.3 146.7C304.367 146.633 304.433 146.567 304.5 146.5C304.633 146.367 304.767 146.267 304.9 146.2C304.967 146.2 305.067 146.167 305.2 146.1C305.333 146.033 305.467 146 305.6 146C305.733 146 305.867 146 306 146C306.133 146 306.267 146.033 306.4 146.1C306.533 146.167 306.633 146.2 306.7 146.2C306.833 146.267 306.967 146.367 307.1 146.5C307.167 146.567 307.233 146.633 307.3 146.7C307.433 146.833 307.533 146.967 307.6 147.1C307.6 147.167 307.633 147.267 307.7 147.4C307.767 147.533 307.8 147.667 307.8 147.8C307.8 147.867 307.8 147.933 307.8 148ZM315.8 184C315.667 183.267 315.567 182.533 315.5 181.8C315.3 180.333 314.867 179.1 314.2 178.1C313.6 177.033 312.767 176.2 311.7 175.6C310.7 174.933 309.467 174.5 308 174.3C306.533 174.1 305.067 174.1 303.6 174.3C302.133 174.5 300.9 174.933 299.9 175.6C298.833 176.2 298 177.033 297.4 178.1C296.733 179.1 296.3 180.333 296.1 181.8C295.9 183.267 295.8 184 295.8 184C295.8 184 299.133 184 305.8 184C309.133 184 312.467 184 315.8 184ZM311.8 165C311.8 165.2 311.767 165.4 311.7 165.6C311.7 166 311.633 166.367 311.5 166.7C311.367 167.1 311.233 167.467 311.1 167.8C310.9 168.133 310.667 168.467 310.4 168.8C310.133 169.067 309.867 169.333 309.6 169.6C309.267 169.867 308.933 170.1 308.6 170.3C308.267 170.433 307.9 170.567 307.5 170.7C307.167 170.833 306.8 170.9 306.4 170.9C306 170.967 305.6 170.967 305.2 170.9C304.8 170.9 304.433 170.833 304.1 170.7C303.7 170.567 303.333 170.433 303 170.3C302.667 170.1 302.333 169.867 302 169.6C301.733 169.333 301.467 169.067 301.2 168.8C300.933 168.467 300.7 168.133 300.5 167.8C300.367 167.467 300.233 167.1 300.1 166.7C299.967 166.367 299.9 166 299.9 165.6C299.833 165.2 299.833 164.8 299.9 164.4C299.9 164 299.967 163.633 300.1 163.3C300.233 162.9 300.367 162.533 300.5 162.2C300.7 161.867 300.933 161.533 301.2 161.2C301.467 160.933 301.733 160.667 302 160.4C302.333 160.133 302.667 159.9 303 159.7C303.333 159.567 303.7 159.433 304.1 159.3C304.433 159.167 304.8 159.1 305.2 159.1C305.6 159.033 306 159.033 306.4 159.1C306.8 159.1 307.167 159.167 307.5 159.3C307.9 159.433 308.267 159.567 308.6 159.7C308.933 159.9 309.267 160.133 309.6 160.4C309.867 160.667 310.133 160.933 310.4 161.2C310.667 161.533 310.9 161.867 311.1 162.2C311.233 162.533 311.367 162.9 311.5 163.3C311.633 163.633 311.7 164 311.7 164.4C311.767 164.6 311.8 164.8 311.8 165Z" stroke="black" stroke-opacity="0.75" stroke-width="2" stroke-miterlimit="1.5" stroke-linecap="round" stroke-linejoin="round"/>
<path d="M422.312 184C422.312 183.733 422.312 183.467 422.312 183.2M422.312 183.2C422.312 182.667 422.212 181.9 422.012 180.9C421.812 179.9 421.512 179.067 421.112 178.4C420.645 177.667 420.045 177.1 419.312 176.7C418.645 176.3 417.812 176.033 416.812 175.9C415.812 175.767 414.812 175.767 413.812 175.9C412.879 176.033 412.045 176.3 411.312 176.7C410.579 177.1 410.012 177.667 409.612 178.4C409.145 179.067 408.812 179.9 408.612 180.9C408.479 181.9 408.412 182.4 408.412 182.4C408.412 182.4 408.412 182.667 408.412 183.2C408.412 183.467 408.412 183.733 408.412 184M422.312 183.2C422.312 182.667 422.312 182.4 422.312 182.4C422.312 182.4 422.379 181.9 422.512 180.9C422.712 179.9 423.045 179.067 423.512 178.4C423.912 177.667 424.479 177.1 425.212 176.7C425.945 176.3 426.779 176.033 427.712 175.9C428.712 175.7 429.712 175.7 430.712 175.9C431.712 176.033 432.545 176.3 433.212 176.7C433.945 177.1 434.545 177.667 435.012 178.4C435.479 179.067 435.779 179.9 435.912 180.9C436.112 181.9 436.212 182.667 436.212 183.2C436.212 183.467 436.212 183.733 436.212 184M418.412 138C421.079 138 423.745 138 426.412 138C431.679 138 434.479 138.033 434.812 138.1C435.079 138.1 435.312 138.167 435.512 138.3C435.779 138.433 435.979 138.6 436.112 138.8C436.179 139 436.245 139.267 436.312 139.6C436.379 139.867 436.412 140 436.412 140C436.412 140 436.412 142.233 436.412 146.7C436.412 151.1 436.379 153.467 436.312 153.8C436.245 154.067 436.179 154.3 436.112 154.5C435.979 154.767 435.779 154.967 435.512 155.1C435.312 155.233 435.079 155.3 434.812 155.3C434.479 155.367 434.312 155.4 434.312 155.4C434.312 155.4 431.412 155.4 425.612 155.4C422.679 155.4 419.745 155.4 416.812 155.4M423.512 145.5L426.012 148.6L429.512 146.5L431.312 149.5M406.712 166.3C406.712 165.5 406.712 164.7 406.712 163.9C406.712 162.3 406.712 161.5 406.712 161.5C406.712 161.5 408.545 159.067 412.212 154.2C415.879 149.4 417.712 147 417.712 147C417.712 147 417.845 146.767 418.112 146.3C418.312 145.9 418.445 145.5 418.512 145.1C418.579 144.633 418.512 144.233 418.312 143.9C418.179 143.5 417.945 143.133 417.612 142.8C417.279 142.467 416.879 142.167 416.412 141.9C416.012 141.633 415.612 141.5 415.212 141.5C414.812 141.433 414.412 141.467 414.012 141.6C413.612 141.733 413.245 141.967 412.912 142.3C412.579 142.633 412.412 142.8 412.412 142.8C412.412 142.8 411.412 144.1 409.412 146.7C407.345 149.3 406.279 150.667 406.212 150.8C406.079 150.933 405.945 151.033 405.812 151.1C405.679 151.167 405.512 151.233 405.312 151.3C405.179 151.367 405.012 151.4 404.812 151.4C404.679 151.4 404.612 151.4 404.612 151.4C404.612 151.4 403.512 151.4 401.312 151.4C399.112 151.4 397.779 151.433 397.312 151.5C396.845 151.567 396.412 151.633 396.012 151.7C395.612 151.833 395.212 152 394.812 152.2C394.412 152.467 394.045 152.733 393.712 153C393.379 153.267 393.079 153.567 392.812 153.9C392.479 154.3 392.212 154.667 392.012 155C391.812 155.4 391.645 155.8 391.512 156.2C391.379 156.667 391.312 157.1 391.312 157.5C391.245 157.967 391.212 158.2 391.212 158.2C391.212 158.2 391.212 159.533 391.212 162.2C391.212 163.533 391.212 164.833 391.212 166.1M432.512 155.4V159.1M399.512 156V159.1M419.412 168.1C419.412 168.233 419.412 168.367 419.412 168.5C419.412 168.7 419.379 168.933 419.312 169.2C419.179 169.467 419.079 169.7 419.012 169.9C418.879 170.1 418.712 170.3 418.512 170.5C418.379 170.7 418.212 170.9 418.012 171.1C417.812 171.233 417.579 171.367 417.312 171.5C417.112 171.633 416.879 171.733 416.612 171.8C416.345 171.867 416.079 171.9 415.812 171.9C415.612 171.967 415.379 171.967 415.112 171.9C414.845 171.9 414.579 171.867 414.312 171.8C414.045 171.733 413.812 171.633 413.612 171.5C413.345 171.367 413.112 171.233 412.912 171.1C412.712 170.9 412.545 170.7 412.412 170.5C412.212 170.3 412.045 170.1 411.912 169.9C411.845 169.7 411.745 169.467 411.612 169.2C411.545 168.933 411.512 168.7 411.512 168.5C411.512 168.233 411.512 167.967 411.512 167.7C411.512 167.433 411.545 167.2 411.612 167C411.745 166.733 411.845 166.5 411.912 166.3C412.045 166.033 412.212 165.833 412.412 165.7C412.545 165.5 412.712 165.3 412.912 165.1C413.112 164.967 413.345 164.833 413.612 164.7C413.812 164.567 414.045 164.467 414.312 164.4C414.579 164.333 414.845 164.3 415.112 164.3C415.379 164.233 415.612 164.233 415.812 164.3C416.079 164.3 416.345 164.333 416.612 164.4C416.879 164.467 417.112 164.567 417.312 164.7C417.579 164.833 417.812 164.967 418.012 165.1C418.212 165.3 418.379 165.5 418.512 165.7C418.712 165.833 418.879 166.033 419.012 166.3C419.079 166.5 419.179 166.733 419.312 167C419.379 167.2 419.412 167.433 419.412 167.7C419.412 167.833 419.412 167.967 419.412 168.1ZM433.312 168.1C433.312 168.233 433.312 168.367 433.312 168.5C433.312 168.7 433.279 168.933 433.212 169.2C433.079 169.467 432.979 169.7 432.912 169.9C432.779 170.1 432.612 170.3 432.412 170.5C432.279 170.7 432.112 170.9 431.912 171.1C431.712 171.233 431.479 171.367 431.212 171.5C431.012 171.633 430.779 171.733 430.512 171.8C430.245 171.867 429.979 171.9 429.712 171.9C429.512 171.967 429.279 171.967 429.012 171.9C428.745 171.9 428.479 171.867 428.212 171.8C427.945 171.733 427.712 171.633 427.512 171.5C427.245 171.367 427.012 171.233 426.812 171.1C426.612 170.9 426.445 170.7 426.312 170.5C426.112 170.3 425.945 170.1 425.812 169.9C425.745 169.7 425.645 169.467 425.512 169.2C425.445 168.933 425.412 168.7 425.412 168.5C425.412 168.233 425.412 167.967 425.412 167.7C425.412 167.433 425.445 167.2 425.512 167C425.645 166.733 425.745 166.5 425.812 166.3C425.945 166.033 426.112 165.833 426.312 165.7C426.445 165.5 426.612 165.3 426.812 165.1C427.012 164.967 427.245 164.833 427.512 164.7C427.712 164.567 427.945 164.467 428.212 164.4C428.479 164.333 428.745 164.3 429.012 164.3C429.279 164.233 429.512 164.233 429.712 164.3C429.979 164.3 430.245 164.333 430.512 164.4C430.779 164.467 431.012 164.567 431.212 164.7C431.479 164.833 431.712 164.967 431.912 165.1C432.112 165.3 432.279 165.5 432.412 165.7C432.612 165.833 432.779 166.033 432.912 166.3C432.979 166.5 433.079 166.733 433.212 167C433.279 167.2 433.312 167.433 433.312 167.7C433.312 167.833 433.312 167.967 433.312 168.1ZM404.712 143.2C404.712 143.4 404.712 143.567 404.712 143.7C404.645 144.033 404.579 144.367 404.512 144.7C404.379 145.033 404.245 145.367 404.112 145.7C403.912 145.967 403.712 146.233 403.512 146.5C403.312 146.767 403.079 147 402.812 147.2C402.545 147.467 402.245 147.667 401.912 147.8C401.645 147.933 401.345 148.067 401.012 148.2C400.679 148.267 400.345 148.333 400.012 148.4C399.679 148.4 399.345 148.4 399.012 148.4C398.679 148.333 398.345 148.267 398.012 148.2C397.679 148.067 397.345 147.933 397.012 147.8C396.745 147.667 396.479 147.467 396.212 147.2C395.945 147 395.712 146.767 395.512 146.5C395.245 146.233 395.045 145.967 394.912 145.7C394.779 145.367 394.645 145.033 394.512 144.7C394.445 144.367 394.379 144.033 394.312 143.7C394.312 143.367 394.312 143.033 394.312 142.7C394.379 142.367 394.445 142.033 394.512 141.7C394.645 141.367 394.779 141.067 394.912 140.8C395.045 140.467 395.245 140.167 395.512 139.9C395.712 139.633 395.945 139.4 396.212 139.2C396.479 139 396.745 138.8 397.012 138.6C397.345 138.467 397.679 138.333 398.012 138.2C398.345 138.133 398.679 138.1 399.012 138.1C399.345 138.033 399.679 138.033 400.012 138.1C400.345 138.1 400.679 138.133 401.012 138.2C401.345 138.333 401.645 138.467 401.912 138.6C402.245 138.8 402.545 139 402.812 139.2C403.079 139.4 403.312 139.633 403.512 139.9C403.712 140.167 403.912 140.467 404.112 140.8C404.245 141.067 404.379 141.367 404.512 141.7C404.579 142.033 404.645 142.367 404.712 142.7C404.712 142.9 404.712 143.067 404.712 143.2Z" stroke="black" stroke-opacity="0.75" stroke-width="2" stroke-miterlimit="1.5" stroke-linecap="round" stroke-linejoin="round"/>
<path d="M529.204 155.084C528.604 154.684 528.037 154.317 527.504 153.984C526.304 153.184 524.37 153.284 521.704 154.284C518.97 155.284 517.604 157.617 517.604 161.284C517.604 164.884 518.97 167.217 521.704 168.284C524.504 169.351 526.504 169.317 527.704 168.184C528.37 167.584 529.004 167.017 529.604 166.484M548.304 158.284C549.037 158.151 549.77 157.984 550.504 157.784C552.037 157.384 553.404 157.384 554.604 157.784C555.804 158.117 556.404 158.951 556.404 160.284C556.404 161.551 556.27 163.351 556.004 165.684C555.737 167.951 554.37 169.051 551.904 168.984C549.437 168.984 548.237 167.817 548.304 165.484C548.37 163.151 549.537 162.017 551.804 162.084C554.137 162.217 555.47 163.417 555.804 165.684C556.004 166.817 556.204 167.984 556.404 169.184M569.104 158.684C568.437 158.417 567.77 158.151 567.104 157.884C565.704 157.351 564.237 157.584 562.704 158.584C561.17 159.517 560.404 161.084 560.404 163.284C560.337 165.484 561.104 167.017 562.704 167.884C564.237 168.684 565.67 168.684 567.004 167.884C567.67 167.551 568.37 167.184 569.104 166.784M574.204 152.984L574.104 169.184M574.304 165.584C574.37 164.251 574.437 162.951 574.504 161.684C574.57 159.151 575.804 157.917 578.204 157.984C580.604 158.051 581.804 159.351 581.804 161.884C581.804 164.484 581.837 166.384 581.904 167.584C581.904 168.117 581.904 168.684 581.904 169.284M587.104 157.884L587.204 168.784M586.604 153.884L587.304 153.984M592.204 157.884L592.004 169.284M592.304 165.984C592.37 164.651 592.404 163.317 592.404 161.984C592.47 159.251 593.804 157.884 596.404 157.884C599.004 157.884 600.27 159.284 600.204 162.084C600.137 164.817 600.137 166.651 600.204 167.584C600.27 168.051 600.304 168.517 600.304 168.984M614.704 165.984C614.704 164.651 614.704 163.284 614.704 161.884C614.637 159.217 613.004 157.851 609.804 157.784C606.604 157.784 604.937 159.651 604.804 163.384C604.737 167.184 606.304 169.051 609.504 168.984C612.704 168.917 614.37 167.584 614.504 164.984C614.57 163.717 614.637 162.451 614.704 161.184M614.904 157.884C614.837 159.284 614.804 160.651 614.804 161.984C614.804 164.784 614.804 167.051 614.804 168.784C614.87 170.517 614.204 171.817 612.804 172.684C611.404 173.551 609.904 173.617 608.304 172.884C607.504 172.551 606.704 172.184 605.904 171.784M538.604 157.684C537.737 157.751 536.87 157.884 536.004 158.084C534.337 158.417 533.47 160.284 533.404 163.684C533.404 167.084 535.17 168.817 538.704 168.884C542.304 168.884 544.037 167.184 543.904 163.784C543.837 160.451 542.937 158.551 541.204 158.084C540.337 157.817 539.47 157.684 538.604 157.684Z" stroke="black" stroke-opacity="0.75" stroke-width="2" stroke-miterlimit="1.5" stroke-linecap="round" stroke-linejoin="round"/>
</svg>
