<svg width="532" height="250" viewBox="0 0 532 250" fill="none" xmlns="http://www.w3.org/2000/svg">
<path fill-rule="evenodd" clip-rule="evenodd" d="M11.0013 13C60.2013 13 158.635 13 306.301 13C306.301 5 306.301 1 306.301 1C306.301 1 310.301 9.33333 318.301 26C326.301 42.6667 330.301 51 330.301 51C330.301 51 326.301 59.3333 318.301 76C310.301 92.6667 306.301 101 306.301 101C306.301 101 306.301 99 306.301 95C306.301 91 306.301 89 306.301 89C306.301 89 257.101 89 158.701 89C109.435 89 60.2013 89 11.0013 89" fill="#FFC977"/>
<path d="M11.0013 13C60.2013 13 158.635 13 306.301 13C306.301 5 306.301 1 306.301 1C306.301 1 310.301 9.33333 318.301 26C326.301 42.6667 330.301 51 330.301 51C330.301 51 326.301 59.3333 318.301 76C310.301 92.6667 306.301 101 306.301 101C306.301 101 306.301 99 306.301 95C306.301 91 306.301 89 306.301 89C306.301 89 257.101 89 158.701 89C109.435 89 60.2013 89 11.0013 89V13Z" stroke="black" stroke-opacity="0.5" stroke-width="2" stroke-miterlimit="1.5" stroke-linecap="round" stroke-linejoin="round"/>
<path d="M36 45.236L36.0861 32.5124C37.0619 32.5124 38.0665 32.5124 39.0997 32.5124C41.1662 32.5124 42.1995 33.6225 42.1995 35.8427C42.2569 38.0629 41.281 39.2015 39.272 39.2584C38.2961 39.2584 37.2916 39.2584 36.2583 39.2584M45.7298 40.8809C47.05 40.8809 48.399 40.8809 49.7766 40.8809C52.4746 40.8809 53.7087 40.1978 53.4791 38.8315C53.3069 37.5221 52.2737 36.6112 50.3794 36.0989C48.4851 35.6434 47.1074 36.3266 46.2464 38.1483C45.3279 39.9131 45.2418 41.5925 45.9881 43.1865C46.6769 44.7236 47.8249 45.5491 49.4322 45.6629C50.9821 45.7768 52.0727 45.6345 52.7042 45.236C52.9912 45.0652 53.3069 44.8659 53.6513 44.6382M58.1287 36.0989V45.5775M58.3009 40.027C58.3583 39.4577 58.4157 38.8599 58.4731 38.2337C58.6454 37.0382 59.2194 36.3835 60.1952 36.2697C60.7118 36.2127 61.2285 36.1558 61.7451 36.0989M69.5806 37.4652C69.351 37.1236 69.0926 36.782 68.8056 36.4404C68.289 35.8142 67.428 35.615 66.2225 35.8427C65.017 36.1273 64.4143 36.7536 64.4143 37.7213C64.4717 38.6322 65.3615 39.5715 67.0835 40.5393C68.863 41.4502 69.7241 42.418 69.6667 43.4427C69.6667 44.4674 68.9778 45.1506 67.6002 45.4921C66.2225 45.7768 65.3041 45.4921 64.8448 44.6382C64.6152 44.1828 64.3569 43.7273 64.0699 43.2719M86.0264 36.0989L85.8542 45.4067M86.0264 42.6742C86.0838 41.5925 86.1412 40.4824 86.1986 39.3438C86.3134 37.1236 87.4328 35.985 89.5567 35.9281C91.738 35.9281 92.7999 37.0951 92.7425 39.4292C92.7425 41.7633 92.7138 43.3288 92.6564 44.1258C92.6564 44.5813 92.6564 45.0082 92.6564 45.4067M96.7033 36.5258C97.3348 36.2981 97.9375 36.0419 98.5115 35.7573C99.717 35.2449 100.865 35.2165 101.956 35.6719C102.989 36.1273 103.506 36.9243 103.506 38.0629C103.448 39.2015 103.305 40.767 103.075 42.7595C102.845 44.6951 101.726 45.6629 99.717 45.6629C97.7079 45.6629 96.732 44.6382 96.7894 42.5888C96.7894 40.5393 97.8227 39.5146 99.8892 39.5146C101.898 39.5715 102.989 40.5963 103.161 42.5888C103.276 43.6135 103.362 44.6382 103.419 45.6629M107.811 32.0854L107.639 45.4067M112.374 35.9281L112.546 45.7483M112.116 32.5978L112.633 32.427M116.077 36.1843L122.707 36.0135M122.621 36.0135L115.646 45.6629M115.732 45.6629L122.793 45.7483M125.462 40.6247C126.897 40.6816 128.332 40.7386 129.767 40.7955C132.58 40.9094 133.872 40.2547 133.642 38.8315C133.412 37.4652 132.35 36.5258 130.456 36.0135C128.562 35.5011 127.155 36.1273 126.237 37.8921C125.376 39.6569 125.29 41.4217 125.979 43.1865C126.668 44.9513 127.816 45.8052 129.423 45.7483C131.088 45.7483 132.207 45.5491 132.781 45.1506C133.011 44.9228 133.269 44.6951 133.556 44.4674M145.869 42.8449C145.869 41.7064 145.84 40.5678 145.783 39.4292C145.668 37.0951 144.233 35.9281 141.477 35.9281C138.722 35.9281 137.402 37.5506 137.517 40.7955C137.574 44.0404 138.894 45.6345 141.477 45.5775C144.003 45.5775 145.323 44.4674 145.438 42.2472C145.496 41.1655 145.553 40.0839 145.61 39.0022M145.869 32V45.5775M164.553 36.9528C163.979 36.782 163.405 36.5828 162.831 36.3551C161.683 36.0135 160.449 36.2127 159.129 36.9528C157.751 37.6929 157.062 38.9453 157.062 40.7101C157.12 42.4749 157.866 43.7843 159.301 44.6382C160.679 45.4921 161.913 45.5775 163.003 44.8944C163.52 44.6097 164.037 44.2966 164.553 43.9551M180.741 36.8674C181.372 36.5828 182.004 36.2981 182.635 36.0135C183.841 35.3873 185.017 35.3588 186.165 35.9281C187.256 36.4404 187.744 37.2375 187.629 38.3191C187.572 39.4008 187.457 40.9094 187.285 42.8449C187.113 44.8375 185.993 45.8052 183.927 45.7483C181.86 45.7483 180.827 44.7236 180.827 42.6742C180.827 40.6247 181.831 39.6 183.841 39.6C185.85 39.5431 186.998 40.5109 187.285 42.5034C187.4 43.5281 187.543 44.5243 187.715 45.4921M198.737 36.9528C198.163 36.782 197.589 36.5828 197.014 36.3551C195.924 35.9566 194.69 36.0989 193.312 36.782C191.992 37.4652 191.274 38.7176 191.159 40.5393C191.102 42.418 191.791 43.7558 193.226 44.5528C194.604 45.3498 195.866 45.4067 197.014 44.7236C197.646 44.3251 198.249 43.9551 198.823 43.6135M203.214 32L203.128 45.4067M203.128 42.6742C203.185 41.5925 203.271 40.5393 203.386 39.5146C203.558 37.3513 204.678 36.2697 206.744 36.2697C208.811 36.2697 209.815 37.3798 209.758 39.6C209.7 41.8202 209.643 43.4142 209.586 44.382C209.586 44.8375 209.586 45.3213 209.586 45.8337M214.149 35.9281L214.235 45.4067M213.719 32.6831L214.235 32.5978M218.799 35.7573L218.713 45.7483M218.799 42.6742C218.856 41.4787 218.914 40.3116 218.971 39.173C219.086 36.8959 220.205 35.7858 222.329 35.8427C224.51 35.9566 225.572 37.1521 225.515 39.4292C225.458 41.6494 225.458 43.1865 225.515 44.0404C225.515 44.4389 225.544 44.8659 225.601 45.3213M237.914 42.7595C237.914 41.621 237.885 40.4824 237.828 39.3438C237.828 37.1236 236.421 35.985 233.609 35.9281C230.796 35.8712 229.39 37.4652 229.39 40.7101C229.447 43.8981 230.825 45.5491 233.523 45.6629C236.278 45.7768 237.713 44.6097 237.828 42.1618C237.885 40.9663 237.943 39.7708 238 38.5753M237.914 35.8427C237.914 37.1521 237.943 38.4614 238 39.7708C238 42.3895 238 44.3536 238 45.6629C238 46.9723 237.426 47.997 236.278 48.7371C235.13 49.5341 233.896 49.6764 232.575 49.164C231.944 48.9363 231.284 48.7086 230.595 48.4809M95.4979 56.3371L95.584 70M95.4979 63.3393C95.5553 62.2007 95.6127 61.0622 95.6701 59.9236C95.7275 57.6464 97.0764 56.5079 99.717 56.5079C102.3 56.5079 103.62 58.1019 103.678 61.2899C103.735 64.421 102.444 65.958 99.8031 65.9011C97.1051 65.9011 95.6988 64.7341 95.584 62.4C95.584 61.2614 95.5553 60.1228 95.4979 58.9843M107.811 56.5933L107.983 65.8157M107.897 60.6921C108.012 60.1228 108.126 59.5536 108.241 58.9843C108.471 57.7888 109.074 57.0772 110.049 56.8494C110.509 56.6786 110.997 56.5363 111.513 56.4225M135.536 63.2539C135.479 62.1723 135.421 61.0906 135.364 60.009C135.249 57.8457 133.785 56.7071 130.973 56.5933C128.16 56.4794 126.754 58.0165 126.754 61.2045C126.754 64.4494 128.16 66.1004 130.973 66.1573C133.785 66.2712 135.221 65.161 135.278 62.827C135.335 61.6315 135.364 60.4644 135.364 59.3258M135.622 56.3371C135.565 57.5895 135.536 58.8704 135.536 60.1798C135.479 62.7416 135.45 64.7056 135.45 66.0719C135.45 67.3813 134.905 68.4629 133.814 69.3169C132.724 70.1139 131.432 70.1992 129.939 69.573C129.193 69.2315 128.476 68.9184 127.787 68.6337M140.272 56.5933L140.358 65.8157M140.272 60.436C140.329 59.9236 140.415 59.4112 140.53 58.8989C140.702 57.8742 141.248 57.2195 142.166 56.9348C142.625 56.821 143.085 56.7071 143.544 56.5933M146.299 57.3618C146.931 57.0772 147.562 56.821 148.194 56.5933C149.514 56.024 150.691 55.967 151.724 56.4225C152.814 56.821 153.331 57.5895 153.274 58.7281C153.274 59.8667 153.188 61.3468 153.015 63.1685C152.843 64.9903 151.666 65.9296 149.485 65.9865C147.361 66.1004 146.328 65.1326 146.385 63.0831C146.385 61.0906 147.419 60.0944 149.485 60.0944C151.494 60.1513 152.671 61.2045 153.015 63.2539C153.188 64.2786 153.36 65.2749 153.532 66.2427M157.493 56.3371L157.407 66.1573M157.148 63.1685C157.206 62.03 157.263 60.8914 157.321 59.7528C157.435 57.4757 158.583 56.3655 160.765 56.4225C162.946 56.5363 164.008 57.7603 163.951 60.0944C163.893 62.3715 163.836 63.9086 163.778 64.7056C163.778 65.1041 163.75 65.5026 163.692 65.9011M163.778 63.2539C163.836 62.1723 163.922 61.0906 164.037 60.009C164.209 57.7888 165.271 56.6502 167.222 56.5933C169.232 56.4794 170.236 57.5895 170.236 59.9236C170.294 62.2577 170.322 63.9086 170.322 64.8764C170.38 65.3318 170.408 65.8157 170.408 66.3281M179.708 58.1303C179.421 57.8457 179.105 57.5326 178.76 57.191C178.186 56.5648 177.297 56.3371 176.091 56.5079C174.886 56.6217 174.283 57.1625 174.283 58.1303C174.283 59.0981 175.201 60.009 177.038 60.8629C178.875 61.7738 179.765 62.7985 179.708 63.9371C179.65 65.0757 178.933 65.7588 177.555 65.9865C176.177 66.2142 175.259 65.9296 174.8 65.1326C174.57 64.7341 174.34 64.3356 174.111 63.9371M77.416 36.0989C76.6124 36.1558 75.8375 36.2697 75.0912 36.4404C73.5413 36.7251 72.7951 38.2906 72.8525 41.1371C72.9099 44.0404 74.4311 45.5206 77.416 45.5775C80.4584 45.6345 81.9795 44.1258 81.9795 41.0517C81.9795 38.0345 81.2333 36.412 79.7408 36.1843C78.9372 36.0135 78.1623 35.985 77.416 36.0989ZM172.647 36.1843C171.901 36.1273 171.183 36.2127 170.494 36.4404C169.002 36.6682 168.227 38.2337 168.17 41.1371C168.112 44.0404 169.605 45.5206 172.647 45.5775C175.632 45.6345 177.153 44.1828 177.211 41.2225C177.211 38.2622 176.436 36.6682 174.886 36.4404C174.197 36.2697 173.451 36.1843 172.647 36.1843ZM118.918 56.5079C118.115 56.5079 117.368 56.6217 116.679 56.8494C115.13 57.0772 114.383 58.6996 114.441 61.7169C114.441 64.7341 115.876 66.1858 118.746 66.0719C121.673 65.9581 123.166 64.4494 123.223 61.5461C123.281 58.6996 122.563 57.1341 121.071 56.8494C120.382 56.6217 119.664 56.5079 118.918 56.5079Z" stroke="black" stroke-opacity="0.75" stroke-width="2" stroke-miterlimit="1.5" stroke-linecap="round" stroke-linejoin="round"/>
<path d="M368.4 133.8H365.4H365.3C362.547 133.8 359.821 133.256 357.279 132.2C354.737 131.143 352.428 129.595 350.486 127.643C348.544 125.692 347.007 123.376 345.962 120.829C344.918 118.282 344.387 115.553 344.4 112.8V71.9C344.4 66.357 342.198 61.041 338.279 57.1215C334.359 53.202 329.043 51 323.5 51H323.4H320.4" stroke="#BCBCBC" stroke-width="2" stroke-miterlimit="1.5" stroke-linecap="round" stroke-linejoin="round" stroke-dasharray="5 7"/>
<path d="M294.4 89V102V115H283.4H272.4" stroke="#BCBCBC" stroke-width="2" stroke-miterlimit="1.5" stroke-linecap="round" stroke-linejoin="round" stroke-dasharray="5 7"/>
<path d="M294.4 89V122V155H283.4H272.4" stroke="#BCBCBC" stroke-width="2" stroke-miterlimit="1.5" stroke-linecap="round" stroke-linejoin="round" stroke-dasharray="5 7"/>
<path d="M294.4 89V142V195H283.4H272.4" stroke="#BCBCBC" stroke-width="2" stroke-miterlimit="1.5" stroke-linecap="round" stroke-linejoin="round" stroke-dasharray="5 7"/>
<path d="M294.4 89V107.2V215.8C294.421 218.318 293.943 220.814 292.994 223.143C292.045 225.473 290.642 227.59 288.868 229.374C287.093 231.158 284.981 232.573 282.653 233.539C280.324 234.504 277.826 235.001 275.3 235H275.2H272.4" stroke="#BCBCBC" stroke-width="2" stroke-miterlimit="1.5" stroke-linecap="round" stroke-linejoin="round" stroke-dasharray="5 7"/>
<path d="M82.9897 108.005L82.7897 122.305M82.7897 107.905C84.523 107.905 86.2563 107.872 87.9897 107.805C91.3897 107.805 93.123 110.239 93.1897 115.105C93.1897 120.039 91.4897 122.472 88.0897 122.405C86.423 122.339 84.723 122.305 82.9897 122.305M118.89 111.705L122.99 122.705M122.69 122.805L126.89 112.005M126.89 111.805L130.79 122.805M130.99 123.105L134.89 112.005M138.69 117.105C140.29 117.105 141.89 117.105 143.49 117.105C146.623 117.039 148.09 116.305 147.89 114.905C147.623 113.439 146.39 112.405 144.19 111.805C141.923 111.205 140.323 112.005 139.39 114.205C138.456 116.339 138.39 118.339 139.19 120.205C139.99 122.072 141.29 123.005 143.09 123.005C144.89 123.072 146.156 122.839 146.89 122.305C147.223 122.039 147.556 121.772 147.89 121.505M152.79 106.905L153.09 122.705M158.19 106.805L158.39 123.305M171.69 111.905V123.305M171.69 107.705L171.89 107.905M177.19 111.805L176.89 122.705M176.89 119.605C176.956 118.205 177.023 116.839 177.09 115.505C177.29 112.839 178.69 111.572 181.29 111.705C183.823 111.772 185.09 113.105 185.09 115.705C185.023 118.305 184.99 120.205 184.99 121.405C184.99 122.005 184.99 122.605 184.99 123.205M203.49 113.605C203.156 113.272 202.79 112.939 202.39 112.605C201.723 111.872 200.756 111.572 199.49 111.705C198.156 111.839 197.523 112.472 197.59 113.605C197.656 114.672 198.623 115.772 200.49 116.905C202.423 118.039 203.39 119.239 203.39 120.505C203.39 121.839 202.59 122.605 200.99 122.805C199.456 123.005 198.423 122.705 197.89 121.905C197.623 121.439 197.323 121.005 196.99 120.605M216.19 113.405C215.59 113.072 214.956 112.772 214.29 112.505C213.023 111.839 211.556 111.939 209.89 112.805C208.223 113.672 207.423 115.205 207.49 117.405C207.49 119.605 208.29 121.139 209.89 122.005C211.49 122.939 212.923 123.039 214.19 122.305C214.856 121.905 215.49 121.539 216.09 121.205M221.29 107.005V123.205M220.99 120.005C221.123 118.605 221.223 117.239 221.29 115.905C221.556 113.172 222.89 111.805 225.29 111.805C227.69 111.805 228.856 113.172 228.79 115.905C228.723 118.572 228.723 120.439 228.79 121.505C228.79 121.972 228.823 122.472 228.89 123.005M263.19 107.205V122.705M102.29 111.705C101.423 111.772 100.59 111.939 99.7897 112.205C98.0563 112.605 97.1563 114.505 97.0897 117.905C97.023 121.305 98.723 123.005 102.19 123.005C105.656 123.005 107.423 121.205 107.49 117.605C107.556 114.072 106.69 112.172 104.89 111.905C104.023 111.705 103.156 111.639 102.29 111.705ZM238.69 111.905C237.756 111.972 236.856 112.105 235.99 112.305C234.19 112.505 233.29 114.272 233.29 117.605C233.356 121.005 235.09 122.772 238.49 122.905C241.89 123.039 243.623 121.372 243.69 117.905C243.823 114.439 243.023 112.539 241.29 112.205C240.423 111.939 239.556 111.839 238.69 111.905ZM253.09 111.805C252.156 111.739 251.29 111.805 250.49 112.005C248.69 112.339 247.823 114.205 247.89 117.605C248.023 121.005 249.823 122.772 253.29 122.905C256.756 123.039 258.423 121.339 258.29 117.805C258.223 114.339 257.323 112.439 255.59 112.105C254.79 111.905 253.956 111.805 253.09 111.805Z" stroke="black" stroke-opacity="0.75" stroke-width="2" stroke-miterlimit="1.5" stroke-linecap="round" stroke-linejoin="round"/>
<path d="M9.30609 148.087L9.40609 162.887M9.30609 147.687L16.4061 161.587L23.3061 147.987M23.4061 147.787V162.587M42.4061 151.987L46.7061 163.087M46.7061 162.687L51.4061 151.687M55.1061 157.487C56.7061 157.487 58.3061 157.487 59.9061 157.487C63.1061 157.487 64.5061 156.687 64.1061 155.087C63.7728 153.487 62.5728 152.387 60.5061 151.787C58.4394 151.121 56.8728 151.887 55.8061 154.087C54.7394 156.287 54.6061 158.287 55.4061 160.087C56.2061 161.954 57.5394 162.854 59.4061 162.787C61.3394 162.787 62.6394 162.621 63.3061 162.287C63.6394 162.154 63.9728 162.021 64.3061 161.887M76.9061 152.687C77.6394 152.421 78.3728 152.154 79.1061 151.887C80.5728 151.354 81.9061 151.387 83.1061 151.987C84.3061 152.521 84.8394 153.354 84.7061 154.487C84.6394 155.621 84.5061 157.287 84.3061 159.487C84.0394 161.687 82.7061 162.787 80.3061 162.787C77.9061 162.787 76.7061 161.687 76.7061 159.487C76.7728 157.287 77.9728 156.154 80.3061 156.087C82.6394 156.021 83.9728 157.121 84.3061 159.387C84.4394 160.587 84.6061 161.754 84.8061 162.887M89.8061 146.987V163.087M89.8061 159.487C89.8728 158.221 89.9728 156.921 90.1061 155.587C90.2394 152.921 91.5394 151.654 94.0061 151.787C96.4061 151.987 97.6061 153.321 97.6061 155.787C97.6061 158.321 97.5728 160.154 97.5061 161.287C97.5061 161.887 97.4728 162.487 97.4061 163.087M101.906 157.487C103.506 157.487 105.106 157.454 106.706 157.387C109.973 157.321 111.473 156.521 111.206 154.987C110.939 153.454 109.773 152.421 107.706 151.887C105.706 151.354 104.106 152.187 102.906 154.387C101.706 156.587 101.506 158.621 102.306 160.487C103.106 162.287 104.506 163.187 106.506 163.187C108.439 163.121 109.739 162.921 110.406 162.587C110.739 162.454 111.073 162.287 111.406 162.087M116.006 152.487C116.739 152.221 117.473 151.954 118.206 151.687C119.673 151.221 120.939 151.287 122.006 151.887C123.139 152.487 123.739 153.354 123.806 154.487C123.873 155.621 123.806 157.354 123.606 159.687C123.406 162.021 122.073 163.187 119.606 163.187C117.073 163.254 115.806 162.054 115.806 159.587C115.806 157.187 117.006 156.021 119.406 156.087C121.739 156.154 123.073 157.321 123.406 159.587C123.606 160.721 123.773 161.854 123.906 162.987M137.706 159.787C137.639 158.454 137.573 157.154 137.506 155.887C137.373 153.221 135.773 151.854 132.706 151.787C129.639 151.787 128.073 153.654 128.006 157.387C127.939 161.121 129.473 162.987 132.606 162.987C135.739 162.987 137.339 161.621 137.406 158.887C137.473 157.554 137.506 156.221 137.506 154.887M137.706 146.887L137.806 163.287M151.006 151.887L151.206 163.187M150.906 147.487L151.206 147.687M156.206 151.787L156.506 163.287M156.206 159.587C156.339 158.254 156.439 156.921 156.506 155.587C156.773 152.987 158.139 151.687 160.606 151.687C163.073 151.754 164.306 153.121 164.306 155.787C164.306 158.454 164.306 160.354 164.306 161.487C164.306 162.021 164.306 162.587 164.306 163.187M176.206 151.787L180.806 163.287M185.206 151.587L179.206 167.287M204.206 151.787C204.206 153.587 204.173 155.421 204.106 157.287C204.106 160.954 205.339 162.854 207.806 162.987C210.339 163.121 211.639 161.821 211.706 159.087C211.773 157.687 211.806 156.321 211.806 154.987M211.606 151.787L211.706 162.787M217.606 151.887L217.706 163.087M217.506 156.587C217.706 155.921 217.906 155.287 218.106 154.687C218.439 153.421 219.106 152.587 220.106 152.187C220.573 151.987 221.039 151.787 221.506 151.587M233.906 151.887C233.906 153.087 233.906 154.321 233.906 155.587C233.906 158.054 233.906 160.487 233.906 162.887C233.906 165.287 233.373 166.554 232.306 166.687C231.773 166.754 231.239 166.787 230.706 166.787M233.606 147.487L234.106 147.687M254.306 147.187L254.406 163.087M254.106 160.087C254.173 158.621 254.239 157.187 254.306 155.787C254.439 152.921 256.073 151.554 259.206 151.687C262.339 151.887 263.906 153.821 263.906 157.487C263.839 161.221 262.306 163.087 259.306 163.087C256.239 163.087 254.606 161.754 254.406 159.087C254.273 157.754 254.173 156.387 254.106 154.987M33.8061 152.087C32.9394 152.021 32.0728 152.087 31.2061 152.287C29.4061 152.621 28.5061 154.521 28.5061 157.987C28.4394 161.454 30.1394 163.121 33.6061 162.987C37.0728 162.921 38.8394 161.187 38.9061 157.787C38.9728 154.387 38.1394 152.587 36.4061 152.387C35.5394 152.254 34.6728 152.154 33.8061 152.087ZM194.306 151.987C193.439 152.054 192.539 152.187 191.606 152.387C189.873 152.654 189.006 154.521 189.006 157.987C189.006 161.454 190.739 163.154 194.206 163.087C197.606 163.087 199.373 161.321 199.506 157.787C199.639 154.254 198.806 152.387 197.006 152.187C196.073 151.987 195.173 151.921 194.306 151.987ZM243.906 151.987C243.039 152.054 242.173 152.187 241.306 152.387C239.573 152.654 238.739 154.454 238.806 157.787C238.873 161.121 240.673 162.787 244.206 162.787C247.673 162.787 249.373 161.121 249.306 157.787C249.239 154.387 248.306 152.521 246.506 152.187C245.639 151.987 244.773 151.921 243.906 151.987Z" stroke="black" stroke-opacity="0.75" stroke-width="2" stroke-miterlimit="1.5" stroke-linecap="round" stroke-linejoin="round"/>
<rect width="161.6" height="127.5" transform="translate(368.4 91.25)" fill="#AFC8FF"/>
<path fill-rule="evenodd" clip-rule="evenodd" d="M395.267 102L398.252 105.824L395.267 102ZM408.7 102L411.188 106.822L408.7 102ZM422.134 102L423.709 106.905L422.134 102ZM435.567 102L435.069 107.57L435.567 102ZM449 102L449.415 107.155L449 102ZM462.433 102V107.487V102ZM475.866 102L474.374 106.323L475.866 102ZM489.299 102L487.309 106.323L489.299 102ZM502.733 102L499.582 106.573L502.733 102ZM514.01 108.235L510.278 111.893L514.01 108.235ZM516 121.288L511.108 124.115L516 121.288ZM516 134.756L511.191 136.419L516 134.756ZM516 148.224L511.273 148.474L516 148.224ZM516 161.693L511.605 161.443L516 161.693ZM516 175.161L511.771 173.498L516 175.161ZM516 188.629L511.771 186.218L516 188.629ZM514.01 201.765L510.444 198.522L514.01 201.765ZM502.733 208L499.25 203.76L502.733 208ZM489.299 208L487.144 204.093L489.299 208ZM475.866 208L475.037 203.76L475.866 208ZM462.433 208L461.853 203.178L462.433 208ZM449 208L449.663 202.264L449 208ZM435.567 208L435.65 202.347L435.567 208ZM422.134 208L423.709 202.762L422.134 208ZM408.7 208L410.442 203.594L408.7 208ZM395.267 208L398.75 203.511L395.267 208ZM383.99 201.765L387.722 198.772L383.99 201.765ZM382 188.712L385.649 185.719L382 188.712ZM382 175.244L386.146 173.997L382 175.244ZM382 161.776L386.395 161.526L382 161.776ZM382 148.307L386.561 148.723L382 148.307ZM382 134.839L386.395 136.585L382 134.839ZM382 121.371L386.478 124.031L382 121.371ZM383.99 108.235L387.39 111.311L383.99 108.235Z" fill="#5A8DFF"/>
<path d="M395.267 102L398.252 105.824M408.7 102L411.188 106.822M422.134 102L423.709 106.905M435.567 102L435.069 107.57M449 102L449.415 107.155M462.433 102V107.487M475.866 102L474.374 106.323M489.299 102L487.309 106.323M502.733 102L499.582 106.573M514.01 108.235L510.278 111.893M516 121.288L511.108 124.115M516 134.756L511.191 136.419M516 148.224L511.274 148.474M516 161.693L511.605 161.443M516 175.161L511.771 173.498M516 188.629L511.771 186.218M514.01 201.765L510.444 198.522M502.733 208L499.25 203.76M489.299 208L487.144 204.093M475.866 208L475.037 203.76M462.433 208L461.853 203.178M449 208L449.663 202.264M435.567 208L435.65 202.347M422.134 208L423.709 202.762M408.7 208L410.442 203.594M395.267 208L398.75 203.511M383.99 201.765L387.722 198.772M382 188.712L385.649 185.719M382 175.244L386.146 173.997M382 161.776L386.395 161.526M382 148.307L386.561 148.723M382 134.839L386.395 136.585M382 121.371L386.478 124.031M383.99 108.235L387.39 111.311" stroke="black" stroke-opacity="0.75" stroke-width="2" stroke-miterlimit="1.5" stroke-linecap="round" stroke-linejoin="round"/>
<path d="M414 140L424 155.38M432.824 140L423.804 154.602M423.412 154.796V168.619M469.098 148.566C469.098 152.071 469.098 155.575 469.098 159.079C469.098 165.958 471.582 169.593 476.549 169.982C481.386 170.241 483.869 167.711 484 162.389C484 159.663 484 157.003 484 154.407M484 147.982V169.787M450.078 148.566C448.379 148.566 446.68 148.826 444.98 149.345C441.582 149.994 439.817 153.563 439.686 160.053C439.425 166.542 442.824 169.787 449.882 169.787C456.81 169.917 460.275 166.737 460.275 160.248C460.275 153.628 458.575 149.994 455.176 149.345C453.477 148.826 451.778 148.566 450.078 148.566Z" stroke="black" stroke-opacity="0.75" stroke-width="2" stroke-miterlimit="1.5" stroke-linecap="round" stroke-linejoin="round"/>
<path d="M103.499 189.505C102.966 189.038 102.399 188.571 101.799 188.105C100.599 187.171 98.6327 187.238 95.8993 188.305C93.166 189.438 91.7993 191.805 91.7993 195.405C91.7327 198.938 93.0993 201.171 95.8993 202.105C98.6993 202.971 100.799 202.938 102.199 202.005C102.866 201.605 103.533 201.171 104.199 200.705M104.499 200.505V196.205M104.599 196.205L99.9993 196.005M109.799 192.005L110.099 203.205M109.799 196.405C109.933 195.805 110.099 195.205 110.299 194.605C110.699 193.338 111.366 192.538 112.299 192.205C112.766 192.005 113.233 191.838 113.699 191.705M131.099 191.805L135.199 203.105M135.099 203.105L138.999 192.005M138.999 191.805L143.199 202.705M142.899 203.005L146.899 191.505M159.299 192.005L159.399 207.505M159.399 199.605C159.466 198.338 159.533 197.071 159.599 195.805C159.733 193.271 161.366 191.938 164.499 191.805C167.633 191.671 169.233 193.471 169.299 197.205C169.299 200.871 167.699 202.771 164.499 202.905C161.299 203.038 159.666 201.705 159.599 198.905C159.533 197.505 159.499 196.105 159.499 194.705M173.299 197.505C174.899 197.438 176.499 197.371 178.099 197.305C181.299 197.105 182.766 196.305 182.499 194.905C182.233 193.438 181.033 192.371 178.899 191.705C176.699 190.971 175.133 191.705 174.199 193.905C173.266 196.038 173.133 198.071 173.799 200.005C174.466 201.938 175.799 202.938 177.799 203.005C179.799 203.138 181.099 202.938 181.699 202.405C181.966 202.138 182.233 201.905 182.499 201.705M187.799 191.705L187.899 203.305M187.899 196.705C188.033 196.038 188.133 195.371 188.199 194.705C188.466 193.371 189.133 192.571 190.199 192.305C190.733 192.105 191.266 191.938 191.799 191.805M201.499 193.205C201.099 192.871 200.733 192.538 200.399 192.205C199.733 191.538 198.733 191.405 197.399 191.805C196.066 192.138 195.366 192.838 195.299 193.905C195.299 194.971 196.333 196.005 198.399 197.005C200.466 198.005 201.466 199.205 201.399 200.605C201.333 202.005 200.499 202.838 198.899 203.105C197.299 203.371 196.266 203.005 195.799 202.005C195.533 201.471 195.299 200.971 195.099 200.505M220.399 191.805L220.199 202.905M220.199 199.905C220.333 198.571 220.433 197.271 220.499 196.005C220.766 193.405 222.133 192.071 224.599 192.005C227.066 192.005 228.299 193.338 228.299 196.005C228.233 198.671 228.199 200.471 228.199 201.405C228.133 201.871 228.099 202.338 228.099 202.805M232.899 192.605C233.633 192.338 234.366 192.105 235.099 191.905C236.566 191.438 237.899 191.438 239.099 191.905C240.233 192.305 240.833 193.105 240.899 194.305C240.899 195.438 240.733 197.171 240.399 199.505C240.066 201.838 238.699 203.071 236.299 203.205C233.899 203.271 232.733 202.071 232.799 199.605C232.799 197.205 234.033 196.005 236.499 196.005C238.966 196.071 240.266 197.305 240.399 199.705C240.466 200.905 240.566 202.071 240.699 203.205M245.699 187.105L245.499 203.005M250.999 186.905V202.705M254.899 191.805L259.499 202.705M264.299 191.405L258.199 206.705M122.399 191.905C121.533 191.905 120.733 192.005 119.999 192.205C118.266 192.471 117.399 194.371 117.399 197.905C117.333 201.438 119.066 203.171 122.599 203.105C126.133 203.038 127.833 201.271 127.699 197.805C127.633 194.338 126.699 192.471 124.899 192.205C124.166 192.005 123.333 191.905 122.399 191.905ZM210.399 191.905C209.533 191.905 208.666 192.038 207.799 192.305C206.133 192.638 205.299 194.538 205.299 198.005C205.366 201.471 207.066 203.171 210.399 203.105C213.799 203.038 215.533 201.271 215.599 197.805C215.666 194.338 214.833 192.471 213.099 192.205C212.166 192.005 211.266 191.905 210.399 191.905Z" stroke="black" stroke-opacity="0.75" stroke-width="2" stroke-miterlimit="1.5" stroke-linecap="round" stroke-linejoin="round"/>
<path d="M111.16 227.781L111.26 242.381M121.46 227.481L121.36 242.581M110.96 235.181L121.36 234.981M126.76 237.581C128.36 237.515 129.927 237.481 131.46 237.481C134.594 237.481 136.027 236.681 135.76 235.081C135.494 233.481 134.327 232.448 132.26 231.981C130.194 231.515 128.627 232.248 127.56 234.181C126.494 236.181 126.36 238.148 127.16 240.081C127.96 241.948 129.294 242.915 131.16 242.981C132.96 242.981 134.227 242.781 134.96 242.381C135.294 242.115 135.627 241.881 135.96 241.681M140.86 226.981V242.781M146.36 231.581L146.46 247.181M146.36 239.781C146.494 238.448 146.627 237.115 146.76 235.781C146.96 233.181 148.56 231.848 151.56 231.781C154.56 231.781 156.094 233.615 156.16 237.281C156.227 241.015 154.727 242.915 151.66 242.981C148.594 243.048 146.96 241.748 146.76 239.081C146.627 237.748 146.527 236.415 146.46 235.081M168.36 232.581C169.094 232.381 169.794 232.181 170.46 231.981C171.927 231.515 173.227 231.481 174.36 231.881C175.56 232.215 176.194 232.981 176.26 234.181C176.26 235.381 176.16 237.148 175.96 239.481C175.76 241.748 174.427 242.948 171.96 243.081C169.427 243.215 168.194 242.148 168.26 239.881C168.327 237.548 169.594 236.315 172.06 236.181C174.527 236.048 175.86 237.148 176.06 239.481C176.194 240.615 176.294 241.781 176.36 242.981M181.06 231.481V242.981M181.06 239.881C181.127 238.548 181.194 237.215 181.26 235.881C181.394 233.148 182.694 231.748 185.16 231.681C187.694 231.548 188.96 232.815 188.96 235.481C188.96 238.081 188.994 240.015 189.06 241.281C189.06 241.881 189.06 242.481 189.06 243.081M203.16 239.981C203.094 238.581 203.027 237.148 202.96 235.681C202.76 232.881 201.127 231.515 198.06 231.581C194.994 231.648 193.46 233.548 193.46 237.281C193.46 240.948 194.994 242.781 198.06 242.781C201.194 242.848 202.827 241.581 202.96 238.981C203.027 237.648 203.094 236.348 203.16 235.081M203.16 227.181L203.26 242.681M217.06 227.181C217.06 228.581 217.06 229.981 217.06 231.381C217.06 234.181 217.06 236.848 217.06 239.381C216.994 241.915 217.527 243.181 218.66 243.181C219.194 243.181 219.727 243.148 220.26 243.081M214.86 231.581L220.36 231.481M253.56 226.781L253.36 243.181M264.46 233.381C264.06 233.048 263.694 232.715 263.36 232.381C262.694 231.781 261.694 231.615 260.36 231.881C259.027 232.148 258.36 232.815 258.36 233.881C258.294 234.948 259.26 236.015 261.26 237.081C263.26 238.081 264.227 239.248 264.16 240.581C264.094 241.915 263.294 242.681 261.76 242.881C260.294 243.081 259.294 242.781 258.76 241.981C258.494 241.581 258.194 241.181 257.86 240.781M228.76 231.981C227.894 231.848 226.994 231.915 226.06 232.181C224.26 232.515 223.394 234.415 223.46 237.881C223.527 241.348 225.294 243.115 228.76 243.181C232.227 243.181 233.927 241.415 233.86 237.881C233.86 234.348 233.027 232.481 231.36 232.281C230.494 232.148 229.627 232.048 228.76 231.981ZM243.36 231.981C242.494 232.048 241.627 232.215 240.76 232.481C239.094 232.748 238.26 234.581 238.26 237.981C238.194 241.448 239.927 243.181 243.46 243.181C246.927 243.181 248.627 241.448 248.56 237.981C248.427 234.515 247.56 232.615 245.96 232.281C245.027 232.081 244.16 231.981 243.36 231.981Z" stroke="black" stroke-opacity="0.75" stroke-width="2" stroke-miterlimit="1.5" stroke-linecap="round" stroke-linejoin="round"/>
<path d="M286.496 42.8646C286.496 42.8646 286.194 43.9243 285.591 46.0437C284.988 48.163 284.687 49.2227 284.687 49.2227C284.687 49.2227 285.742 48.9199 287.852 48.3144C289.284 48.0116 290.452 47.5196 291.357 46.8384C293.391 45.3246 295.125 43.6972 296.557 41.9563C300.174 38.3231 301.983 36.5065 301.983 36.5065C301.983 36.5065 302.096 36.3173 302.322 35.9389C302.548 35.5604 302.699 35.1819 302.774 34.8035C302.849 34.425 302.849 34.0466 302.774 33.6681C302.699 33.2897 302.51 32.9491 302.209 32.6463C301.983 32.2678 301.681 31.9272 301.304 31.6245C300.928 31.3974 300.551 31.2082 300.174 31.0568C299.797 30.9811 299.42 30.9811 299.043 31.0568C298.667 31.1325 298.29 31.2838 297.913 31.5109C297.536 31.8137 295.539 33.7817 291.922 37.4148C288.304 41.048 286.496 42.8646 286.496 42.8646ZM286.496 42.8646L291.017 47.4061M295.991 33.3275L300.626 37.869M282.765 41.048C280.957 41.048 279.148 41.048 277.339 41.048C273.722 41.048 271.725 41.0859 271.348 41.1616C270.896 41.2373 270.519 41.3508 270.217 41.5022C269.916 41.7293 269.69 41.9563 269.539 42.1834C269.388 42.4862 269.275 42.8646 269.2 43.3188C269.125 43.6972 269.087 43.8865 269.087 43.8865C269.087 43.8865 269.087 47.1033 269.087 53.5371C269.087 59.9709 269.087 63.1878 269.087 63.1878C269.087 63.1878 271.913 63.1878 277.565 63.1878M277.565 63.1878C277.791 64.1718 278.093 64.853 278.47 65.2314M277.565 63.1878C277.565 63.1878 277.641 63.4527 277.791 63.9825C277.867 64.4367 278.093 64.853 278.47 65.2314M277.565 63.1878C277.565 63.1878 273.043 63.1878 264 63.1878C264.754 65.2314 265.47 66.5939 266.148 67.2751C266.751 67.9563 267.467 68.524 268.296 68.9782C269.125 69.4323 270.067 69.6972 271.122 69.7729C272.177 69.9243 272.704 70 272.704 70C272.704 70 276.322 70 283.557 70C290.716 70 294.823 69.9243 295.878 69.7729C296.933 69.6972 297.875 69.4323 298.704 68.9782C299.533 68.524 300.249 67.9563 300.852 67.2751C301.53 66.5939 302.058 65.7234 302.435 64.6638C302.812 63.6798 303 63.1878 303 63.1878C303 63.1878 300.739 63.1878 296.217 63.1878C293.957 63.1878 291.696 63.1878 289.435 63.1878M278.47 65.2314C278.846 65.6099 279.336 65.9127 279.939 66.1397C280.617 66.2911 281.371 66.4047 282.2 66.4803M282.2 66.4803C283.104 66.556 283.971 66.556 284.8 66.4803M282.2 66.4803C283.029 66.556 283.896 66.556 284.8 66.4803M284.8 66.4803C285.629 66.4047 286.383 66.2911 287.061 66.1397C287.664 65.9127 288.154 65.6099 288.53 65.2314C288.907 64.853 289.133 64.4367 289.209 63.9825M289.209 63.9825C289.359 63.4527 289.435 63.1878 289.435 63.1878M289.209 63.9825C289.284 63.7555 289.359 63.4905 289.435 63.1878M289.435 63.1878C289.435 63.1878 290.867 63.1878 293.73 63.1878C296.519 63.1878 297.913 63.1878 297.913 63.1878C297.913 63.1878 297.913 60.3493 297.913 54.6725C297.913 51.7962 297.913 48.9199 297.913 46.0437M274.174 45.3624V50.4716H279.261V45.3624H274.174ZM274.174 54.3319V59.441H279.261V54.3319H274.174Z" stroke="black" stroke-opacity="0.75" stroke-width="2" stroke-miterlimit="1.5" stroke-linecap="round" stroke-linejoin="round"/>
</svg>
