<svg width="547" height="178" viewBox="0 0 547 178" fill="none" xmlns="http://www.w3.org/2000/svg">
<path fill-rule="evenodd" clip-rule="evenodd" d="M209.295 94C261.53 94 313.765 94 366 94C470.47 94 524.257 94.3062 527.361 94.9187C530.466 95.5312 533.334 96.7221 535.966 98.4915C538.53 100.261 540.69 102.473 542.445 105.127C544.199 107.781 545.414 110.673 546.089 113.803C546.696 116.934 547 119.316 547 120.949C547 122.65 546.696 125.066 546.089 128.197C545.414 131.327 544.199 134.219 542.445 136.873C540.69 139.527 538.53 141.739 535.966 143.509C533.334 145.278 530.466 146.469 527.361 147.081C524.257 147.694 470.47 148 366 148C261.53 148 207.743 147.694 204.639 147.081C201.534 146.469 198.666 145.278 196.034 143.509C193.402 141.739 191.209 139.527 189.454 136.873C187.699 134.219 186.518 131.327 185.911 128.197C185.304 125.066 185 122.65 185 120.949C185 119.316 185.304 116.934 185.911 113.803C186.518 110.673 187.699 107.781 189.454 105.127C191.209 102.473 193.402 100.261 196.034 98.4915C198.666 96.7221 201.534 95.5312 204.639 94.9187C207.743 94.3062 209.295 94 209.295 94Z" fill="#FFC977"/>
<path d="M211 113.007L215.452 126.556M215.546 126.556L219.998 113.007M220.093 113.099L224.449 126.19M224.639 126.465L229.09 112.824M232.974 112.275L233.068 126.648M233.068 123.81C233.068 122.589 233.1 121.399 233.163 120.239C233.226 117.859 234.394 116.638 236.668 116.577C238.941 116.577 240.109 117.798 240.172 120.239C240.172 122.742 240.172 124.42 240.172 125.275C240.172 125.702 240.172 126.129 240.172 126.556M244.718 121.613C246.234 121.613 247.718 121.582 249.17 121.521C252.201 121.46 253.59 120.697 253.337 119.232C253.085 117.768 251.917 116.852 249.833 116.486C247.749 116.12 246.234 116.944 245.287 118.958C244.339 120.911 244.213 122.711 244.908 124.359C245.539 125.946 246.802 126.709 248.696 126.648C250.591 126.587 251.822 126.373 252.39 126.007C252.706 125.885 253.022 125.732 253.337 125.549M258.357 116.486V126.923M258.452 121.155C258.578 120.484 258.673 119.812 258.736 119.141C258.862 117.859 259.431 117.157 260.441 117.035C260.946 116.913 261.451 116.822 261.956 116.761M265.461 121.613C266.913 121.674 268.397 121.735 269.912 121.796C272.817 121.857 274.143 121.094 273.89 119.507C273.638 117.92 272.533 116.913 270.575 116.486C268.555 116.059 267.039 116.822 266.029 118.775C265.019 120.728 264.893 122.589 265.65 124.359C266.408 126.068 267.639 126.861 269.344 126.739C271.112 126.617 272.375 126.434 273.133 126.19C273.448 126.007 273.796 125.854 274.175 125.732M286.677 113.099L286.487 126.739M286.487 113.282C288.192 113.221 289.866 113.16 291.507 113.099C294.791 113.038 296.401 115.265 296.338 119.782C296.338 124.298 294.728 126.587 291.507 126.648C289.929 126.709 288.319 126.739 286.677 126.739M300.789 116.577L300.695 126.556M300.6 121.063C300.726 120.392 300.852 119.751 300.979 119.141C301.168 117.859 301.831 117.066 302.968 116.761C303.473 116.638 304.01 116.486 304.578 116.303M307.798 121.979C309.314 121.918 310.829 121.857 312.344 121.796C315.375 121.613 316.733 120.85 316.417 119.507C316.101 118.225 314.965 117.31 313.007 116.761C311.05 116.211 309.535 116.913 308.461 118.866C307.388 120.819 307.293 122.62 308.177 124.268C308.998 125.915 310.261 126.739 311.966 126.739C313.734 126.8 314.902 126.617 315.47 126.19C315.786 126.007 316.101 125.824 316.417 125.641M320.963 117.127C321.595 116.883 322.258 116.608 322.952 116.303C324.342 115.754 325.604 115.784 326.741 116.394C327.941 116.944 328.541 117.768 328.541 118.866C328.541 119.965 328.351 121.552 327.972 123.627C327.657 125.702 326.362 126.739 324.089 126.739C321.879 126.739 320.806 125.732 320.869 123.718C320.869 121.704 322.005 120.636 324.278 120.514C326.488 120.453 327.751 121.491 328.067 123.627C328.193 124.725 328.351 125.824 328.541 126.923M332.708 116.486L332.992 126.831M332.803 123.993C332.866 122.711 332.897 121.43 332.897 120.148C333.024 117.585 334.223 116.303 336.497 116.303C338.77 116.303 339.906 117.615 339.906 120.239C339.843 122.803 339.843 124.573 339.906 125.549C339.906 126.038 339.906 126.495 339.906 126.923M340.096 123.627C340.159 122.467 340.222 121.277 340.285 120.056C340.411 117.737 341.58 116.547 343.79 116.486C346 116.425 347.105 117.646 347.105 120.148C347.168 122.65 347.231 124.39 347.294 125.366C347.294 125.915 347.326 126.434 347.389 126.923M357.429 118.042C357.05 117.798 356.702 117.523 356.387 117.218C355.629 116.669 354.682 116.455 353.545 116.577C352.346 116.638 351.746 117.218 351.746 118.317C351.683 119.477 352.598 120.484 354.492 121.338C356.324 122.192 357.271 123.291 357.334 124.634C357.46 125.915 356.734 126.617 355.155 126.739C353.577 126.861 352.567 126.556 352.125 125.824C351.872 125.458 351.619 125.061 351.367 124.634M372.015 112.732V126.373M367.374 112.824L376.845 112.915M379.971 117.218C380.728 116.974 381.454 116.761 382.149 116.577C383.601 116.089 384.864 116.059 385.938 116.486C387.011 116.852 387.548 117.646 387.548 118.866C387.548 120.087 387.421 121.704 387.169 123.718C386.916 125.793 385.653 126.8 383.38 126.739C381.044 126.617 379.907 125.549 379.971 123.535C379.971 121.46 381.139 120.453 383.475 120.514C385.748 120.575 387.011 121.674 387.264 123.81C387.39 124.847 387.516 125.885 387.642 126.923M392.094 112.183L391.905 126.739M392.852 121.063L397.966 116.761M392.568 120.697L398.156 126.648M402.039 121.704C403.554 121.643 405.038 121.613 406.491 121.613C409.458 121.613 410.816 120.88 410.563 119.415C410.311 117.951 409.206 117.005 407.248 116.577C405.291 116.15 403.839 116.852 402.891 118.683C401.881 120.514 401.755 122.315 402.513 124.085C403.27 125.793 404.565 126.648 406.396 126.648C408.164 126.648 409.3 126.495 409.806 126.19C410.121 126.007 410.405 125.854 410.658 125.732M423.539 113.007L423.634 126.282M423.444 112.915L429.885 113.19M423.634 119.69L428.938 119.507M434.053 112.366L433.863 126.556M439.167 116.852V127.106M438.694 112.915L439.167 113.099M452.995 123.718C452.932 122.559 452.901 121.399 452.901 120.239C452.838 117.859 451.291 116.669 448.26 116.669C445.229 116.73 443.713 118.469 443.713 121.887C443.65 125.305 445.134 126.953 448.165 126.831C451.133 126.77 452.711 125.519 452.901 123.077C452.964 121.857 453.027 120.636 453.09 119.415M452.995 116.486C452.995 117.829 452.995 119.141 452.995 120.423C453.059 123.047 453.059 125.153 452.995 126.739C452.932 128.265 452.301 129.455 451.101 130.31C449.838 131.164 448.481 131.225 447.028 130.493C446.334 130.127 445.608 129.791 444.85 129.486M458.299 112V127.014M458.205 123.81C458.268 122.589 458.331 121.369 458.394 120.148C458.52 117.707 459.72 116.486 461.993 116.486C464.266 116.486 465.435 117.676 465.498 120.056C465.561 122.498 465.561 124.207 465.498 125.183C465.435 125.732 465.403 126.251 465.403 126.739M470.423 112.458C470.423 113.739 470.454 115.021 470.518 116.303C470.581 118.805 470.581 121.277 470.518 123.718C470.454 126.16 470.96 127.319 472.033 127.197C472.538 127.136 473.075 127.075 473.643 127.014M468.813 116.852L473.738 116.394M478 112.824L477.811 122.894M477.811 126.465H478" stroke="black" stroke-opacity="0.75" stroke-width="2" stroke-miterlimit="1.5" stroke-linecap="round" stroke-linejoin="round"/>
<path fill-rule="evenodd" clip-rule="evenodd" d="M518.838 107.919C518.771 107.851 518.703 107.783 518.636 107.715C518.433 107.578 518.265 107.476 518.13 107.408C517.927 107.272 517.725 107.17 517.522 107.102C517.32 107.102 517.117 107.068 516.915 107C516.713 107 516.51 107 516.308 107C516.105 107.068 515.903 107.102 515.7 107.102C515.498 107.17 515.329 107.272 515.194 107.408C514.992 107.476 514.823 107.578 514.688 107.715C514.485 107.851 514.384 107.919 514.384 107.919C514.384 107.919 513.743 108.565 512.461 109.858C511.246 111.151 510.436 111.798 510.031 111.798C509.694 111.798 509.323 111.798 508.918 111.798C508.513 111.798 508.074 111.798 507.602 111.798C507.129 111.798 506.657 111.798 506.185 111.798C505.645 111.73 505.375 111.696 505.375 111.696C505.375 111.696 505.139 111.696 504.666 111.696C504.194 111.696 503.755 111.696 503.35 111.696C502.945 111.696 502.608 111.696 502.338 111.696C502 111.696 501.73 111.696 501.528 111.696C501.258 111.696 501.123 111.696 501.123 111.696C501.123 111.696 500.819 111.696 500.212 111.696C499.537 111.696 498.93 111.73 498.39 111.798C497.85 111.798 497.344 111.798 496.871 111.798C496.399 111.798 495.994 111.832 495.657 111.9C495.319 111.9 495.15 111.9 495.15 111.9C495.15 111.9 494.847 111.968 494.239 112.104C493.632 112.24 493.126 112.41 492.721 112.614C492.249 112.819 491.877 113.057 491.607 113.329C491.405 113.669 491.236 114.009 491.101 114.35C491.034 114.758 491.034 115.132 491.101 115.473C491.169 115.745 491.304 116.017 491.506 116.289C491.709 116.493 492.012 116.698 492.417 116.902C492.755 117.038 493.16 117.174 493.632 117.31C494.172 117.378 494.442 117.412 494.442 117.412C494.442 117.412 494.509 117.412 494.644 117.412C494.712 117.412 494.847 117.412 495.049 117.412C495.184 117.48 495.319 117.514 495.454 117.514C495.657 117.514 495.859 117.514 496.062 117.514C496.196 117.514 496.264 117.514 496.264 117.514C496.264 117.514 496.298 117.514 496.365 117.514C496.365 117.514 496.399 117.514 496.466 117.514C496.534 117.514 496.635 117.514 496.77 117.514C496.838 117.514 496.973 117.514 497.175 117.514C497.31 117.582 497.378 117.616 497.378 117.616C497.378 117.616 497.445 117.616 497.58 117.616C497.647 117.616 497.749 117.616 497.884 117.616C497.951 117.616 498.052 117.616 498.187 117.616C498.255 117.616 498.356 117.616 498.491 117.616C498.559 117.616 498.592 117.616 498.592 117.616C498.592 117.616 498.828 117.616 499.301 117.616C499.841 117.684 500.347 117.718 500.819 117.718C501.292 117.786 501.764 117.854 502.237 117.922C502.709 117.922 503.181 117.957 503.654 118.025C504.059 118.093 504.261 118.127 504.261 118.127C504.261 118.127 503.013 119.42 500.516 122.006C497.951 124.524 496.669 125.783 496.669 125.783C496.669 125.783 496.163 125.783 495.15 125.783C494.071 125.783 493.362 125.817 493.025 125.885C492.62 125.953 492.282 126.055 492.012 126.191C491.742 126.327 491.54 126.531 491.405 126.803C491.27 127.076 491.169 127.416 491.101 127.824C491.034 128.164 491 128.471 491 128.743C491.067 128.947 491.135 129.151 491.202 129.355C491.27 129.56 491.371 129.73 491.506 129.866C491.641 130.07 491.81 130.24 492.012 130.376C492.215 130.444 492.316 130.478 492.316 130.478C492.316 130.478 492.35 130.512 492.417 130.58C492.485 130.648 492.586 130.682 492.721 130.682C492.856 130.75 492.991 130.784 493.126 130.784C493.193 130.853 493.328 130.921 493.531 130.989C493.666 130.989 493.733 130.989 493.733 130.989C493.733 130.989 493.834 131.023 494.037 131.091C494.239 131.159 494.442 131.227 494.644 131.295C494.779 131.363 494.914 131.397 495.049 131.397C495.184 131.465 495.285 131.499 495.353 131.499C495.42 131.499 495.454 131.533 495.454 131.601C495.454 131.669 495.488 131.771 495.555 131.907C495.555 132.043 495.589 132.18 495.657 132.316C495.724 132.52 495.792 132.724 495.859 132.928C495.927 133.132 495.96 133.234 495.96 133.234C495.96 133.234 495.96 133.302 495.96 133.439C496.028 133.575 496.095 133.711 496.163 133.847C496.163 133.983 496.196 134.119 496.264 134.255C496.264 134.323 496.298 134.425 496.365 134.561C496.433 134.629 496.466 134.664 496.466 134.664C496.466 134.664 496.534 134.766 496.669 134.97C496.736 135.174 496.871 135.344 497.074 135.48C497.209 135.616 497.378 135.718 497.58 135.786C497.782 135.854 498.019 135.922 498.289 135.991C498.491 135.991 498.761 135.957 499.098 135.888C499.503 135.888 499.841 135.786 500.111 135.582C500.381 135.446 500.583 135.242 500.718 134.97C500.853 134.698 500.954 134.391 501.022 134.051C501.089 133.643 501.123 133.439 501.123 133.439C501.123 133.439 501.123 132.928 501.123 131.907C501.123 130.819 501.123 130.274 501.123 130.274C501.123 130.274 503.654 127.722 508.715 122.618C508.85 123.503 508.918 124.183 508.918 124.66C508.985 125.136 509.053 125.612 509.12 126.089C509.12 126.565 509.154 127.076 509.221 127.62C509.221 128.096 509.221 128.335 509.221 128.335C509.221 128.335 509.221 128.403 509.221 128.539C509.221 128.607 509.221 128.675 509.221 128.743C509.221 128.879 509.221 128.981 509.221 129.049C509.289 129.185 509.323 129.287 509.323 129.355C509.323 129.491 509.323 129.56 509.323 129.56C509.323 129.56 509.323 129.662 509.323 129.866C509.323 130.002 509.323 130.138 509.323 130.274C509.323 130.342 509.323 130.41 509.323 130.478C509.323 130.546 509.323 130.614 509.323 130.682C509.323 130.682 509.323 130.784 509.323 130.989C509.323 131.193 509.323 131.363 509.323 131.499C509.39 131.703 509.424 131.873 509.424 132.009C509.424 132.146 509.424 132.282 509.424 132.418C509.424 132.486 509.424 132.52 509.424 132.52C509.424 132.52 509.491 132.792 509.626 133.336C509.694 133.813 509.795 134.221 509.93 134.561C510.133 134.97 510.335 135.276 510.537 135.48C510.807 135.684 511.111 135.82 511.449 135.888C511.718 135.957 512.056 135.957 512.461 135.888C512.933 135.82 513.304 135.65 513.574 135.378C513.912 135.106 514.182 134.766 514.384 134.357C514.587 133.949 514.755 133.473 514.89 132.928C515.025 132.316 515.093 132.009 515.093 132.009C515.093 132.009 515.093 131.839 515.093 131.499C515.093 131.159 515.093 130.785 515.093 130.376C515.16 129.9 515.194 129.389 515.194 128.845C515.194 128.301 515.194 127.688 515.194 127.008C515.194 126.327 515.194 125.987 515.194 125.987C515.194 125.987 515.194 125.919 515.194 125.783C515.127 125.715 515.093 125.612 515.093 125.476C515.093 125.272 515.093 125.102 515.093 124.966C515.093 124.762 515.093 124.524 515.093 124.251C515.093 124.047 515.093 123.945 515.093 123.945C515.093 123.945 515.093 123.843 515.093 123.639C515.093 123.367 515.093 123.129 515.093 122.924C515.093 122.72 515.093 122.55 515.093 122.414C515.093 122.21 515.093 122.04 515.093 121.904C515.093 121.699 515.093 121.597 515.093 121.597C515.093 121.597 515.093 121.359 515.093 120.883C515.093 120.406 515.093 119.964 515.093 119.556C515.093 119.079 515.093 118.603 515.093 118.127C515.093 117.718 515.093 117.31 515.093 116.902C515.025 116.425 514.992 116.187 514.992 116.187C514.992 116.187 515.633 115.575 516.915 114.35C518.197 113.057 518.906 112.342 519.041 112.206C519.176 112.002 519.277 111.832 519.345 111.696C519.479 111.491 519.581 111.287 519.648 111.083C519.716 110.879 519.749 110.675 519.749 110.471C519.749 110.267 519.749 110.062 519.749 109.858C519.749 109.654 519.716 109.45 519.648 109.246C519.581 109.042 519.479 108.871 519.345 108.735C519.277 108.531 519.176 108.361 519.041 108.225C518.906 108.021 518.838 107.919 518.838 107.919Z" stroke="black" stroke-opacity="0.75" stroke-width="2" stroke-miterlimit="1.5" stroke-linecap="round" stroke-linejoin="round"/>
<rect width="158.8" height="177" transform="translate(0.400024 0.5)" fill="#AFC8FF"/>
<path d="M27.4005 15L30.4156 18.8203M40.8848 15L43.6486 19.6508M54.369 15L56.4628 19.7339M67.8533 15L68.5233 20.5644M81.3375 15L81.5888 20.1492M94.8218 15L93.733 20.3983M108.306 15L106.212 18.9864M121.79 15L119.278 18.9864M135.275 15.0831L131.841 19.4017M145.744 22.6407L141.891 26.2949M147 35.8458L142.142 38.7525M147 49.2169L142.31 51.2102M147 62.5881L142.31 63.4186M147 75.9593L142.561 76.5407M147 89.3305L142.394 89.0814M147 102.702L142.059 102.619M147 116.073L142.226 115.076M147 129.444L141.891 127.368M147 142.815L143.315 140.241M144.906 155.854L141.724 152.864M133.599 162L130.333 158.429M120.115 162L117.686 156.768M106.631 162L104.37 156.768M93.1467 162L92.2254 156.602M79.6625 162L79.4112 157.266M66.1782 162L67.267 156.436M52.694 162L54.8715 157.764M39.2097 162L41.3035 157.764M25.7254 161.917L28.7406 158.844M15.2563 154.359L18.8577 151.702M14 141.154L17.7689 138.497M14 127.783L18.2714 125.707M14 114.412L19.1927 113.249M14 101.041H18.6064M14 87.6695L18.6902 87.5034M14 74.2983L19.5277 75.378M14 60.9271L18.7739 62.339M14 47.5559L18.5227 49.8814M14 34.1847L18.4389 37.2576M16.0938 21.1458L19.3602 23.8034" stroke="black" stroke-opacity="0.75" stroke-width="2" stroke-miterlimit="1.5" stroke-linecap="round" stroke-linejoin="round"/>
<path d="M76.6067 80C76.6067 79.0609 76.6067 78.0957 76.6067 77.1043C76.6067 75.2261 76.6067 74.287 76.6067 74.287C76.6067 74.287 78.1798 72.2783 81.3258 68.2609C84.4195 64.2435 85.9663 62.2348 85.9663 62.2348C85.9663 62.2348 85.9663 62.2087 85.9663 62.1565C85.9663 62.1565 86.0449 62.0261 86.2022 61.7652C86.3596 61.4522 86.4644 61.1652 86.5169 60.9043C86.5169 60.6435 86.4644 60.3826 86.3596 60.1217C86.2547 59.8609 86.0974 59.6261 85.8876 59.4174C85.6255 59.2087 85.3633 59.0261 85.1011 58.8696C84.8389 58.6609 84.5768 58.5565 84.3146 58.5565C84 58.5043 83.7378 58.5304 83.5281 58.6348C83.2659 58.7391 83.0037 58.8957 82.7416 59.1043C82.5318 59.313 82.427 59.4174 82.427 59.4174C82.427 59.4174 81.5356 60.5391 79.7528 62.7826C77.97 65.0261 76.9738 66.2522 76.764 66.4609C76.5543 66.6696 76.3446 66.8522 76.1348 67.0087C75.8727 67.1652 75.6105 67.2957 75.3483 67.4C75.1386 67.4522 74.8764 67.5043 74.5618 67.5565C74.2472 67.5565 74.0899 67.5565 74.0899 67.5565C74.0899 67.5565 73.015 67.5565 70.8652 67.5565C68.6629 67.5565 67.4045 67.5826 67.0899 67.6348C66.7753 67.6348 66.4869 67.687 66.2247 67.7913C65.9625 67.8957 65.7004 68 65.4382 68.1043C65.176 68.2609 64.9139 68.4435 64.6517 68.6522C64.4419 68.8087 64.2322 69.0174 64.0225 69.2783C63.8127 69.487 63.6554 69.7217 63.5506 69.9826C63.3933 70.2435 63.2884 70.5043 63.236 70.7652C63.1311 71.0783 63.0787 71.3652 63.0787 71.6261C63.0262 71.9391 63 72.0957 63 72.0957C63 72.0957 63 72.9826 63 74.7565C63 76.5304 63.0262 77.5739 63.0787 77.887C63.1311 78.2 63.236 78.4609 63.3933 78.6696C63.5506 78.9304 63.7341 79.113 63.9438 79.2174C64.206 79.3739 64.4944 79.4783 64.809 79.5304C65.1236 79.5826 65.4382 79.5826 65.7528 79.5304C66.0674 79.4783 66.3558 79.3739 66.618 79.2174C66.8277 79.113 67.0112 78.9304 67.1685 78.6696C67.3258 78.4609 67.4307 78.2 67.4831 77.887C67.5356 77.5739 67.5618 77.4174 67.5618 77.4174C67.5618 77.4174 67.5618 76.6609 67.5618 75.1478C67.5618 74.3652 67.5618 73.6087 67.5618 72.8783M67.4831 77.3391V80M76.2921 51.8261V47.3652H95.9551V63.8H89.9775M80.9326 52.5304L84 54.7217L89.2697 52.3739L91.4719 55.5826M75.3483 59.5739C75.3483 59.7304 75.3483 59.8609 75.3483 59.9652C75.2959 60.2261 75.2434 60.487 75.191 60.7478C75.1386 60.9565 75.0337 61.1913 74.8764 61.4522C74.7715 61.6609 74.6404 61.8696 74.4831 62.0783C74.3258 62.287 74.1423 62.4696 73.9326 62.6261C73.7228 62.7826 73.5131 62.913 73.3034 63.0174C73.0412 63.1217 72.8052 63.2261 72.5955 63.3304C72.3333 63.3826 72.0712 63.4348 71.809 63.487C71.5468 63.487 71.2846 63.487 71.0225 63.487C70.8127 63.4348 70.5768 63.3826 70.3146 63.3304C70.0524 63.2261 69.8165 63.1217 69.6067 63.0174C69.397 62.913 69.1873 62.7826 68.9775 62.6261C68.7678 62.4696 68.5843 62.287 68.427 62.0783C68.2697 61.8696 68.1124 61.6609 67.9551 61.4522C67.8502 61.1913 67.7715 60.9565 67.7191 60.7478C67.6142 60.487 67.5618 60.2261 67.5618 59.9652C67.5094 59.7043 67.5094 59.4435 67.5618 59.1826C67.5618 58.9217 67.6142 58.687 67.7191 58.4783C67.7715 58.2174 67.8502 57.9826 67.9551 57.7739C68.1124 57.513 68.2697 57.3043 68.427 57.1478C68.5843 56.9391 68.7678 56.7565 68.9775 56.6C69.1873 56.4435 69.397 56.287 69.6067 56.1304C69.8165 56.0261 70.0524 55.9478 70.3146 55.8957C70.5768 55.7913 70.8127 55.7391 71.0225 55.7391C71.2846 55.687 71.5468 55.687 71.809 55.7391C72.0712 55.7391 72.3333 55.7913 72.5955 55.8957C72.8052 55.9478 73.0412 56.0261 73.3034 56.1304C73.5131 56.287 73.7228 56.4435 73.9326 56.6C74.1423 56.7565 74.3258 56.9391 74.4831 57.1478C74.6404 57.3043 74.7715 57.513 74.8764 57.7739C75.0337 57.9826 75.1386 58.2174 75.191 58.4783C75.2434 58.687 75.2959 58.9217 75.3483 59.1826C75.3483 59.3391 75.3483 59.4696 75.3483 59.5739ZM86.1236 44C87.8539 44 89.5843 44 91.3146 44C94.7228 44 96.5318 44.0261 96.7416 44.0783C96.9513 44.1304 97.1348 44.2087 97.2921 44.313C97.4494 44.4174 97.6067 44.5478 97.764 44.7043C97.8689 44.8609 97.9476 45.0435 98 45.2522C98 45.4609 98 45.5913 98 45.6435C98 45.6435 98 45.6696 98 45.7217C98 45.7739 98 45.8783 98 46.0348C97.9476 46.2435 97.8689 46.4261 97.764 46.5826C97.6067 46.7913 97.4494 46.9478 97.2921 47.0522C97.1348 47.1565 96.9513 47.2348 96.7416 47.287C96.5318 47.3391 94.7228 47.3652 91.3146 47.3652C87.8539 47.3652 84.4195 47.3652 81.0112 47.3652C77.5506 47.3652 75.7154 47.3391 75.5056 47.287C75.2959 47.2348 75.1124 47.1565 74.9551 47.0522C74.7978 46.9478 74.6667 46.7913 74.5618 46.5826C74.4569 46.4261 74.3783 46.2435 74.3258 46.0348C74.2734 45.8783 74.2472 45.7739 74.2472 45.7217C74.2472 45.6696 74.2472 45.6435 74.2472 45.6435C74.2472 45.5913 74.2734 45.4609 74.3258 45.2522C74.3783 45.0435 74.4569 44.8609 74.5618 44.7043C74.6667 44.5478 74.7978 44.4174 74.9551 44.313C75.1124 44.2087 75.2959 44.1304 75.5056 44.0783C75.7154 44.0261 77.5506 44 81.0112 44C82.6891 44 84.3933 44 86.1236 44Z" stroke="black" stroke-opacity="0.75" stroke-width="2" stroke-miterlimit="1.5" stroke-linecap="round" stroke-linejoin="round"/>
<path d="M60.6653 89.1666L60.8305 101.326M73.142 97.9947L76.8602 101.743M81.4047 89V101.409M81.1568 89.2499C82.1483 89.1943 83.1398 89.1666 84.1314 89.1666C86.1144 89.0555 87.161 90.0827 87.2712 92.2481C87.3263 94.4135 86.3347 95.4962 84.2966 95.4962C83.25 95.4962 82.2309 95.4962 81.2394 95.4962M84.7924 95.4129L88.1801 101.243M90.9068 101.659L95.8644 89.1666M95.7818 89.1666L100.574 101.826M92.8072 96.8288H98.5085M48.1886 113.319C47.6928 113.097 47.1695 112.903 46.6186 112.736C45.6271 112.347 44.4428 112.486 43.0657 113.153C41.6886 113.819 41 115.068 41 116.9C41 118.733 41.6886 120.037 43.0657 120.815C44.3877 121.648 45.572 121.759 46.6186 121.148C47.1695 120.87 47.7203 120.593 48.2712 120.315M63.8877 112.903C64.4936 112.681 65.0996 112.458 65.7055 112.236C66.9174 111.792 67.9915 111.792 68.928 112.236C69.8644 112.736 70.3602 113.513 70.4153 114.568C70.4703 115.679 70.3602 117.15 70.0847 118.982C69.8093 120.759 68.7076 121.675 66.7797 121.731C64.7966 121.786 63.8051 120.87 63.8051 118.982C63.75 117.039 64.714 116.067 66.697 116.067C68.7352 116.067 69.8644 117.067 70.0847 119.066C70.25 120.065 70.3877 121.065 70.4979 122.064M81.4047 113.486C80.8538 113.264 80.2754 113.041 79.6695 112.819C78.5678 112.375 77.3284 112.542 75.9513 113.319C74.5742 114.096 73.9131 115.346 73.9682 117.067C74.0233 118.844 74.6843 120.148 75.9513 120.981C77.2733 121.814 78.5127 121.842 79.6695 121.065C80.2203 120.731 80.7712 120.371 81.322 119.982M85.4534 108.655L85.2055 121.648M85.4534 119.316C85.4534 118.205 85.4809 117.095 85.536 115.984C85.536 113.708 86.5551 112.542 88.5932 112.486C90.5763 112.486 91.5953 113.569 91.6504 115.734C91.7055 117.844 91.7331 119.427 91.7331 120.482C91.7331 120.981 91.7331 121.481 91.7331 121.981M95.947 112.57L96.0297 122.064M95.6991 109.321L96.0297 109.405M100.078 112.57L99.9958 121.648M100.161 118.982C100.216 117.928 100.271 116.845 100.326 115.734C100.492 113.513 101.621 112.403 103.714 112.403C105.807 112.458 106.826 113.624 106.771 115.901C106.716 118.122 106.689 119.649 106.689 120.482C106.689 120.926 106.689 121.342 106.689 121.731M118.917 119.232C118.862 118.066 118.807 116.928 118.752 115.818C118.642 113.597 117.237 112.514 114.538 112.57C111.839 112.57 110.489 114.124 110.489 117.233C110.544 120.287 111.894 121.786 114.538 121.731C117.182 121.675 118.532 120.62 118.587 118.566C118.642 117.511 118.697 116.456 118.752 115.401M119 112.32C119 113.597 119 114.846 119 116.067C118.945 118.566 118.945 120.482 119 121.814C119 123.202 118.422 124.257 117.265 124.979C116.108 125.701 114.869 125.812 113.547 125.312C112.831 125.034 112.142 124.757 111.481 124.479M60.5 133.474C60.0042 133.252 59.4809 133.03 58.9301 132.808C57.9386 132.419 56.7542 132.586 55.3771 133.307C54.0551 134.085 53.3665 135.362 53.3114 137.139C53.2564 138.915 53.9174 140.192 55.2945 140.97C56.6165 141.747 57.8559 141.775 59.0127 141.053C59.5636 140.664 60.1144 140.303 60.6653 139.97M63.9703 136.805C65.2924 136.861 66.6144 136.889 67.9364 136.889C70.5254 136.944 71.7097 136.278 71.4894 134.89C71.2691 133.502 70.3051 132.613 68.5975 132.225C66.9449 131.781 65.6504 132.502 64.714 134.39C63.7775 136.278 63.6674 137.944 64.3835 139.387C65.0996 140.831 66.1737 141.553 67.6059 141.553C69.0381 141.553 70.0847 141.386 70.7458 141.053C71.0212 140.886 71.3242 140.692 71.6547 140.47M75.8686 132.308V141.886M75.786 138.887C75.8411 137.833 75.8962 136.778 75.9513 135.723C76.0064 133.613 77.0805 132.502 79.1737 132.391C81.2119 132.336 82.2585 133.474 82.3136 135.806C82.3686 138.138 82.4237 139.748 82.4788 140.636C82.4788 141.081 82.4788 141.525 82.4788 141.969M86.8581 128.477C86.8581 129.698 86.8581 130.92 86.8581 132.141C86.8581 134.584 86.8581 136.889 86.8581 139.054C86.9131 141.219 87.3263 142.191 88.0975 141.969C88.4831 141.858 88.8686 141.775 89.2542 141.719M85.2055 132.391L89.2542 132.558M92.9725 132.558L92.8072 141.802M92.8072 136.222C92.9174 135.667 93.0275 135.112 93.1377 134.557C93.358 133.446 93.9364 132.835 94.8729 132.724C95.3136 132.613 95.7542 132.53 96.1949 132.475M98.839 136.972C100.216 137.027 101.593 137.055 102.97 137.055C105.725 137.166 106.964 136.472 106.689 134.973C106.468 133.53 105.477 132.641 103.714 132.308C101.951 131.975 100.602 132.697 99.6653 134.473C98.7839 136.25 98.6462 137.916 99.2521 139.47C99.9131 141.081 101.015 141.83 102.557 141.719C104.1 141.608 105.174 141.442 105.78 141.219C106.11 141.108 106.413 140.997 106.689 140.886M70.911 89.3331C71.5169 89.3331 72.0953 89.4164 72.6462 89.583C73.858 89.8606 74.9597 90.8878 75.9513 92.6645C76.9979 94.4413 77.0254 96.3846 76.0339 98.4944C74.9873 100.549 73.2246 101.631 70.7458 101.743C68.2119 101.909 66.4767 100.826 65.5403 98.4944C64.6589 96.218 64.6589 94.2192 65.5403 92.498C66.4767 90.8323 67.6059 89.8606 68.928 89.583C69.5339 89.3609 70.1949 89.2776 70.911 89.3331ZM56.0381 112.57C55.2669 112.514 54.5508 112.597 53.8898 112.819C52.4025 113.041 51.6864 114.624 51.7415 117.567C51.7966 120.509 53.2288 121.953 56.0381 121.897C58.7924 121.842 60.197 120.398 60.2521 117.567C60.3623 114.79 59.6737 113.264 58.1864 112.986C57.4703 112.819 56.7542 112.681 56.0381 112.57Z" stroke="black" stroke-opacity="0.75" stroke-width="2" stroke-miterlimit="1.5" stroke-linecap="round" stroke-linejoin="round"/>
<path d="M171 63C171 63 244 63.0001 260 63C276 62.9999 271.446 88.6456 271.446 88.6456" stroke="black" stroke-opacity="0.75" stroke-width="3" stroke-dasharray="5 5"/>
</svg>
