<svg width="580" height="118" viewBox="0 0 580 118" fill="none" xmlns="http://www.w3.org/2000/svg">
<rect width="149" height="112" transform="translate(0 3)" fill="#96FFB3"/>
<path d="M49.4532 60.355V53.2412M49.4532 60.355H65.2722M49.4532 60.355C49.4532 60.355 48.5744 60.355 46.8167 60.355C45.0591 60.355 44.1802 60.355 44.1802 60.355C44.1802 60.355 44.1802 58.9718 44.1802 56.2053C44.1802 53.4388 44.1802 52.0556 44.1802 52.0556C44.1802 52.0556 44.3121 51.1861 44.5757 49.4472C44.8394 47.7083 45.4106 46.246 46.2894 45.0603C47.0804 43.7957 48.1789 42.8076 49.5851 42.0963C50.9033 41.3058 52.5292 40.7921 54.4626 40.5549C56.396 40.3178 58.3295 40.3178 60.2629 40.5549C62.1963 40.7921 63.8222 41.3058 65.1404 42.0963C66.5466 42.8076 67.6451 43.7957 68.4361 45.0603C69.3149 46.246 69.8861 47.7083 70.1498 49.4472C70.4134 51.1861 70.5453 53.4388 70.5453 56.2053C70.5453 58.9718 70.5453 60.355 70.5453 60.355C70.5453 60.355 69.6664 60.355 67.9088 60.355C66.1511 60.355 65.2722 60.355 65.2722 60.355M49.4532 60.355C49.4532 60.355 49.6729 62.7263 50.1124 67.4688C50.5518 72.2114 50.7715 74.5826 50.7715 74.5826C50.7715 74.5826 52.9686 74.5826 57.3627 74.5826M65.2722 60.355V53.2412M65.2722 60.355C65.2722 60.355 65.0525 62.7263 64.6131 67.4688C64.4374 69.8401 64.2176 72.2114 63.954 74.5826C61.7569 74.5826 59.5598 74.5826 57.3627 74.5826M57.3627 74.5826V65.0976M57.3627 40.1993V52.0556M49.1896 24.5489C49.629 24.786 50.0245 25.0627 50.376 25.3788C51.167 25.9321 52.0019 26.4064 52.8807 26.8016C53.7595 27.1968 54.6384 27.513 55.5172 27.7501C56.4839 27.9872 57.4946 28.1453 58.5492 28.2244C59.5159 28.3034 60.2629 28.3429 60.7902 28.3429C61.4054 28.2639 61.9766 28.1848 62.5039 28.1058C63.0312 28.0268 63.5585 27.9477 64.0858 27.8687C64.6131 27.7106 65.1404 27.5525 65.6677 27.3944C65.9314 27.3154 66.195 27.1968 66.4587 27.0387M78.4548 60.355C81.9701 60.355 85.4854 60.355 89.0008 60.355C96.0314 60.355 99.9422 60.3155 100.733 60.2365C101.524 60.0784 102.183 59.8808 102.711 59.6436C103.238 59.3275 103.677 58.9323 104.029 58.458C104.38 57.9838 104.6 57.3909 104.688 56.6796C104.776 55.9682 104.82 55.6125 104.82 55.6125C104.82 55.6125 104.82 50.4747 104.82 40.1993C104.82 29.9238 104.776 24.4303 104.688 23.719C104.6 23.0076 104.38 22.4148 104.029 21.9405C103.677 21.4662 103.238 21.071 102.711 20.7549C102.183 20.4387 101.524 20.2411 100.733 20.1621C99.9422 20.083 99.5468 20.0435 99.5468 20.0435C99.5468 20.0435 94.4935 20.0435 84.3869 20.0435C79.2896 20.0435 74.2364 20.0435 69.227 20.0435M83.7278 46.1274C83.7278 44.3094 83.7278 42.531 83.7278 40.7921C83.7278 37.2352 83.7717 35.1801 83.8596 34.6268C83.9475 34.1525 84.1232 33.7178 84.3869 33.3226C84.6505 32.9274 84.9581 32.6507 85.3097 32.4926C85.7491 32.2555 86.2324 32.0974 86.7597 32.0184C87.3749 31.9393 87.9901 31.9393 88.6053 32.0184C89.1326 32.0974 89.6159 32.2555 90.0554 32.4926C90.4069 32.6507 90.7145 32.9274 90.9781 33.3226C91.2418 33.7178 91.4176 34.1525 91.5054 34.6268C91.5933 35.1801 91.6373 35.4567 91.6373 35.4567C91.6373 35.4567 91.6373 37.2352 91.6373 40.7921C91.6373 42.61 91.6373 44.3885 91.6373 46.1274M83.7278 39.0136H91.6373M48.135 28.3429C48.2229 28.9753 48.3108 29.5681 48.3986 30.1214C48.5744 31.386 48.9699 32.4531 49.5851 33.3226C50.2002 34.113 50.9473 34.7849 51.8261 35.3382C52.7928 35.8915 53.9792 36.2471 55.3854 36.4052C56.7036 36.5633 58.0219 36.5633 59.3401 36.4052C60.7463 36.2471 61.9327 35.8915 62.8994 35.3382C63.7782 34.7849 64.5252 34.113 65.1404 33.3226C65.7556 32.4531 66.1511 31.386 66.3268 30.1214C66.5026 28.9357 66.5026 27.7501 66.3268 26.5645C66.1511 25.2998 65.7556 24.2327 65.1404 23.3633C64.5252 22.5728 63.7782 21.901 62.8994 21.3477C61.9327 20.7944 60.7463 20.4387 59.3401 20.2806C58.0219 20.1225 56.7036 20.1225 55.3854 20.2806C53.9792 20.4387 52.7928 20.7944 51.8261 21.3477C50.9473 21.901 50.2002 22.5728 49.5851 23.3633C48.9699 24.2327 48.5744 25.2998 48.3986 26.5645C48.2229 27.7501 48.135 28.3429 48.135 28.3429Z" stroke="black" stroke-opacity="0.75" stroke-width="2" stroke-miterlimit="1.5" stroke-linecap="round" stroke-linejoin="round"/>
<path d="M20.1554 83.3478C20.1554 85.146 20.1125 86.9441 20.0267 88.7422C19.941 92.3384 19.941 95.6219 20.0267 98.5927C20.1982 101.564 20.97 102.971 22.342 102.814C23.028 102.736 23.714 102.658 24.4 102.58M17.3256 88.9767H24.4M28.5161 95.7783C30.5741 95.7783 32.675 95.8174 34.8188 95.8955C39.1063 95.8955 41.0357 94.9183 40.6069 92.9638C40.1782 91.0094 38.5489 89.7194 35.7191 89.094C32.9751 88.3904 30.96 89.3285 29.6737 91.9084C28.3874 94.4883 28.2159 96.9119 29.1592 99.1791C30.1025 101.368 31.8175 102.384 34.3043 102.228C36.8768 102.15 38.5061 101.876 39.1921 101.407C39.6208 101.251 40.0067 101.055 40.3497 100.821M46.5238 90.1494C47.467 89.9149 48.4103 89.6412 49.3535 89.3285C51.1543 88.7813 52.8693 88.7813 54.4986 89.3285C56.0421 89.8758 56.771 90.853 56.6852 92.2602C56.5995 93.6674 56.428 95.7392 56.1707 98.4755C55.8277 101.212 54.1127 102.58 51.0257 102.58C47.9387 102.658 46.438 101.29 46.5238 98.4755C46.5238 95.661 48.0244 94.2147 51.0257 94.1365C54.027 94.0583 55.742 95.3483 56.1707 98.0064C56.428 99.3354 56.6852 100.664 56.9425 101.993M73.5353 90.3839C72.6778 90.0712 71.8203 89.7585 70.9628 89.4458C69.162 88.8985 67.2326 89.2113 65.1746 90.3839C63.1166 91.5566 62.0447 93.3547 61.9589 95.7783C61.8732 98.28 62.9451 100.039 65.1746 101.055C67.3184 102.15 69.2478 102.267 70.9628 101.407C71.7345 101.016 72.5492 100.625 73.4067 100.234M79.838 83.5824L79.7094 102.111M79.838 98.8273C79.9237 97.1073 80.0095 95.4265 80.0953 93.7847C80.2668 90.5012 81.896 88.8594 84.983 88.8594C88.0701 88.7813 89.6136 90.3839 89.6136 93.6674C89.5278 97.0291 89.485 99.2572 89.485 100.352C89.3992 100.899 89.3563 101.446 89.3563 101.993M95.7877 95.5437C97.7599 95.5437 99.7322 95.5047 101.704 95.4265C105.735 95.3483 107.578 94.4492 107.235 92.7293C106.978 90.9312 105.478 89.6803 102.733 88.9767C99.9895 88.2731 97.8886 89.1722 96.4308 91.6739C94.973 94.0974 94.8444 96.4819 96.0449 98.8273C97.2454 101.094 98.9604 102.267 101.19 102.345C103.505 102.423 105.135 102.15 106.078 101.524C106.592 101.29 107.064 101.016 107.493 100.704M114.438 88.9767V102.111M114.053 94.4883C114.224 93.7847 114.396 93.042 114.567 92.2602C114.91 90.6966 115.81 89.7976 117.268 89.5631C117.954 89.4067 118.64 89.2894 119.326 89.2113M131.674 90.7357C131.16 90.423 130.688 90.1103 130.26 89.7976C129.231 89.094 127.901 88.8594 126.272 89.094C124.643 89.3285 123.828 90.1103 123.828 91.4394C123.828 92.8466 125.114 94.0583 127.687 95.0747C130.345 96.1692 131.674 97.5764 131.674 99.2963C131.674 101.016 130.603 101.993 128.459 102.228C126.229 102.463 124.771 102.111 124.085 101.173C123.742 100.704 123.399 100.234 123.056 99.7654" stroke="black" stroke-opacity="0.75" stroke-width="2" stroke-miterlimit="1.5" stroke-linecap="round" stroke-linejoin="round"/>
<rect width="172.317" height="115.41" transform="translate(199 1.29523)" fill="#FFC977"/>
<path d="M296.038 40.6023C295.661 40.9062 295.321 41.2101 295.018 41.514C294.338 42.1217 293.998 42.4256 293.998 42.4256C293.998 42.4256 294.943 45.2744 296.832 50.9721C298.721 56.6698 299.665 59.5566 299.665 59.6326C299.741 59.7845 299.778 59.9364 299.778 60.0884C299.703 60.1643 299.665 60.2403 299.665 60.3163C299.59 60.4682 299.514 60.5822 299.438 60.6581C299.287 60.7341 299.174 60.8101 299.098 60.886C299.023 60.962 298.91 61 298.758 61C298.683 61 298.57 61 298.418 61C298.343 61 298.23 60.962 298.078 60.886C298.003 60.8101 297.965 60.7721 297.965 60.7721C297.965 60.7721 295.585 59.0248 290.825 55.5302C286.141 52.1116 283.798 50.4023 283.798 50.4023C283.798 50.4023 281.456 52.1116 276.772 55.5302C272.012 59.0248 269.594 60.8101 269.518 60.886C269.367 60.962 269.254 61 269.178 61C269.103 61 268.99 61 268.838 61C268.763 61 268.65 60.962 268.498 60.886C268.423 60.8101 268.31 60.7341 268.158 60.6581C268.083 60.5822 268.007 60.4682 267.932 60.3163C267.932 60.2403 267.932 60.1643 267.932 60.0884C267.856 59.9364 267.856 59.7845 267.932 59.6326C267.932 59.5566 267.932 59.5186 267.932 59.5186C267.932 59.5186 268.876 56.6698 270.765 50.9721C272.654 45.2744 273.598 42.4256 273.598 42.4256C273.598 42.4256 271.332 40.3364 266.798 36.1581C262.341 32.0558 260.074 29.9287 259.998 29.7767C259.847 29.7008 259.772 29.6248 259.772 29.5488C259.696 29.4729 259.658 29.3589 259.658 29.207C259.658 29.131 259.658 29.0171 259.658 28.8651C259.734 28.7891 259.772 28.6752 259.772 28.5233C259.847 28.4473 259.923 28.3713 259.998 28.2953C260.074 28.2194 260.187 28.1434 260.338 28.0674C260.414 27.9915 260.527 27.9535 260.678 27.9535C260.754 27.9535 260.792 27.9535 260.792 27.9535C260.792 27.9535 263.512 27.9535 268.952 27.9535C274.316 27.9535 276.998 27.9535 276.998 27.9535C276.998 27.9535 277.943 25.4085 279.832 20.3186C281.796 15.2287 282.816 12.6457 282.892 12.5698C282.892 12.4938 282.93 12.4178 283.005 12.3419C283.081 12.2659 283.194 12.1899 283.345 12.114C283.421 12.038 283.534 12 283.685 12C283.761 12 283.874 12 284.025 12C284.101 12 284.214 12.038 284.365 12.114C284.441 12.1899 284.516 12.2659 284.592 12.3419C284.667 12.4178 284.743 12.4938 284.818 12.5698C284.818 12.6457 284.818 12.6837 284.818 12.6837C284.818 12.6837 285.007 13.1775 285.385 14.1651C285.612 14.6209 285.801 15.0767 285.952 15.5326M310.658 22.4837C310.658 22.4078 310.658 22.2558 310.658 22.0279C310.583 21.876 310.545 21.724 310.545 21.5721C310.47 21.4202 310.356 21.3442 310.205 21.3442C310.054 21.2682 309.903 21.1922 309.752 21.1163C309.601 21.1163 309.525 21.1163 309.525 21.1163C309.525 21.1163 308.581 21.1163 306.692 21.1163C304.803 21.1163 303.858 21.1163 303.858 21.1163C303.858 21.1163 303.858 20.1667 303.858 18.2674C303.858 16.3682 303.858 15.3426 303.858 15.1907C303.783 15.0388 303.745 14.8868 303.745 14.7349C303.67 14.5829 303.556 14.507 303.405 14.507C303.254 14.431 303.103 14.355 302.952 14.2791C302.801 14.2791 302.725 14.2791 302.725 14.2791C302.725 14.2791 301.97 14.2791 300.458 14.2791C298.947 14.2791 298.116 14.2791 297.965 14.2791C297.814 14.355 297.663 14.431 297.512 14.507C297.436 14.507 297.361 14.5829 297.285 14.7349C297.21 14.8868 297.134 15.0388 297.058 15.1907C297.058 15.3426 297.058 15.4186 297.058 15.4186C297.058 15.4186 297.058 16.3682 297.058 18.2674C297.058 20.1667 297.058 21.1163 297.058 21.1163C297.058 21.1163 296.114 21.1163 294.225 21.1163C292.336 21.1163 291.316 21.1163 291.165 21.1163C291.014 21.1922 290.863 21.2682 290.712 21.3442C290.636 21.3442 290.561 21.4202 290.485 21.5721C290.41 21.724 290.334 21.876 290.258 22.0279C290.258 22.1798 290.258 22.2558 290.258 22.2558C290.258 22.2558 290.258 23.0155 290.258 24.5349C290.258 26.0543 290.258 26.8899 290.258 27.0419C290.334 27.1938 290.41 27.3457 290.485 27.4977C290.561 27.5736 290.636 27.6496 290.712 27.7256C290.863 27.8015 291.014 27.8775 291.165 27.9535C291.316 27.9535 291.392 27.9535 291.392 27.9535C291.392 27.9535 292.336 27.9535 294.225 27.9535C296.114 27.9535 297.058 27.9535 297.058 27.9535C297.058 27.9535 297.058 28.9031 297.058 30.8023C297.058 32.7015 297.058 33.7271 297.058 33.8791C297.134 34.031 297.21 34.1829 297.285 34.3349C297.361 34.4108 297.436 34.4868 297.512 34.5628C297.663 34.6388 297.814 34.7147 297.965 34.7907C298.116 34.7907 298.192 34.7907 298.192 34.7907C298.192 34.7907 298.947 34.7907 300.458 34.7907C301.97 34.7907 302.801 34.7907 302.952 34.7907C303.103 34.7147 303.254 34.6388 303.405 34.5628C303.556 34.4868 303.67 34.4108 303.745 34.3349C303.745 34.1829 303.783 34.031 303.858 33.8791C303.858 33.7271 303.858 33.6512 303.858 33.6512C303.858 33.6512 303.858 32.7015 303.858 30.8023C303.858 28.9031 303.858 27.9535 303.858 27.9535C303.858 27.9535 304.803 27.9535 306.692 27.9535C308.581 27.9535 309.601 27.9535 309.752 27.9535C309.903 27.8775 310.054 27.8015 310.205 27.7256C310.356 27.6496 310.47 27.5736 310.545 27.4977C310.545 27.3457 310.583 27.1938 310.658 27.0419C310.658 26.8899 310.658 26.814 310.658 26.814C310.658 26.814 310.658 26.0543 310.658 24.5349C310.658 23.9271 310.658 23.2434 310.658 22.4837Z" stroke="black" stroke-opacity="0.75" stroke-width="2" stroke-miterlimit="1.5" stroke-linecap="round" stroke-linejoin="round"/>
<path d="M218.658 95C220.481 94.8503 222.304 94.7381 224.127 94.6633C227.849 94.5136 229.596 93.6156 229.369 91.9694C229.065 90.3231 227.697 89.1259 225.267 88.3776C222.76 87.5544 220.937 88.3776 219.798 90.8469C218.582 93.2415 218.393 95.5238 219.228 97.6939C220.064 99.9388 221.545 101.099 223.672 101.173C225.874 101.248 227.318 100.986 228.001 100.388C228.381 100.088 228.761 99.8265 229.141 99.602M234.268 88.602L243.611 100.949M243.383 88.3776L233.812 101.286M249.194 88.4898L249.08 106M248.852 97.8061C248.852 96.3095 248.89 94.8129 248.966 93.3163C249.118 90.3231 250.979 88.7891 254.549 88.7143C258.043 88.5646 259.79 90.585 259.79 94.7755C259.79 98.8912 258.043 100.949 254.549 100.949C251.055 100.874 249.27 99.3401 249.194 96.3469C249.118 94.8503 249.042 93.3537 248.966 91.8571M264.461 94.8878C266.36 94.8878 268.221 94.8878 270.044 94.8878C273.766 94.8878 275.437 93.9898 275.057 92.1939C274.754 90.4728 273.386 89.2381 270.956 88.4898C268.525 87.8163 266.664 88.7143 265.373 91.1837C264.081 93.6531 263.892 95.9354 264.803 98.0306C265.715 100.126 267.272 101.173 269.475 101.173C271.677 101.173 273.121 100.986 273.804 100.612C274.184 100.388 274.564 100.201 274.944 100.051M281.21 88.3776L281.324 101.061M281.438 93.8776C281.59 93.0544 281.742 92.2687 281.894 91.5204C282.273 90.0238 283.033 89.1633 284.172 88.9388C284.78 88.8639 285.388 88.7891 285.995 88.7143M290.097 88.3776L290.439 100.949M289.983 84.2245L290.553 84M295.566 95C297.465 95 299.326 95 301.149 95C304.795 94.9252 306.504 93.9524 306.276 92.0816C305.972 90.2109 304.567 88.9762 302.061 88.3776C299.63 87.8537 297.769 88.7517 296.478 91.0714C295.262 93.3912 295.11 95.6735 296.022 97.9184C296.933 100.163 298.491 101.211 300.693 101.061C302.82 100.986 304.301 100.724 305.137 100.276C305.517 100.051 305.897 99.8639 306.276 99.7143M311.745 88.3776L311.859 101.286M312.201 97.1327C312.201 95.6361 312.239 94.1769 312.315 92.7551C312.467 89.8367 313.948 88.415 316.759 88.4898C319.569 88.5646 320.974 90.0612 320.974 92.9796C320.974 95.8231 321.012 97.9184 321.088 99.2653C321.164 99.9388 321.24 100.65 321.316 101.398M336.128 90.0612C335.368 89.6871 334.609 89.3503 333.849 89.051C332.406 88.3776 330.773 88.5272 328.95 89.5C327.127 90.4728 326.253 92.1565 326.329 94.551C326.329 96.9456 327.241 98.7415 329.064 99.9388C330.887 101.211 332.558 101.361 334.077 100.388C334.837 99.8639 335.596 99.3776 336.356 98.9286M341.027 94.4388C342.85 94.4388 344.711 94.4388 346.61 94.4388C350.256 94.5136 351.927 93.6905 351.623 91.9694C351.32 90.2483 349.914 89.0136 347.408 88.2653C344.901 87.517 343.078 88.415 341.939 90.9592C340.875 93.5034 340.761 95.7857 341.597 97.8061C342.508 99.8265 344.028 100.912 346.154 101.061C348.357 101.136 349.8 100.912 350.484 100.388C350.864 100.088 351.244 99.7891 351.623 99.4898" stroke="black" stroke-opacity="0.75" stroke-width="2" stroke-miterlimit="1.5" stroke-linecap="round" stroke-linejoin="round"/>
<rect width="158.395" height="117.241" transform="translate(421.317 0.379333)" fill="#A5C1FF"/>
<path d="M498.962 20.5218L518.088 26.7707M518.088 26.7707L514.286 42.7401M518.088 26.7707L527.767 16.703L474.767 12.9999L503.225 33.9453M516.706 65.9999C516.475 62.8369 516.207 59.6353 515.899 56.3951C515.362 49.9919 515.016 46.4046 514.862 45.6331C514.632 44.8617 514.325 43.9359 513.941 42.8558C513.48 41.7758 512.904 40.58 512.212 39.2685C511.598 37.8798 510.83 36.3369 509.908 34.6397C509.063 33.0196 508.602 32.0938 508.525 31.8624C508.372 31.7081 508.218 31.5924 508.065 31.5152C507.911 31.3609 507.757 31.2452 507.604 31.1681C507.45 31.0909 507.258 31.0138 507.028 30.9366C506.874 30.9366 506.682 30.9366 506.452 30.9366C506.298 30.9366 506.106 30.9366 505.875 30.9366C505.722 31.0138 505.568 31.0909 505.415 31.1681C505.184 31.2452 504.992 31.3609 504.838 31.5152C504.762 31.6695 504.723 31.7467 504.723 31.7467C504.723 31.7467 504.57 31.901 504.262 32.2095C503.955 32.5953 503.725 32.8653 503.571 33.0196C503.417 33.1739 503.341 33.3282 503.341 33.4825C503.264 33.6368 503.187 33.8296 503.11 34.0611C503.11 34.2154 503.11 34.4082 503.11 34.6397C503.187 34.794 503.225 34.8711 503.225 34.8711C503.225 34.8711 503.379 35.9897 503.686 38.227C503.917 40.4643 503.84 41.9686 503.456 42.7401C503.072 43.5116 502.726 44.2831 502.419 45.0545C502.188 45.826 502.035 46.5975 501.958 47.3689C501.804 48.2175 501.728 49.0662 501.728 49.9148C501.804 50.3005 501.843 50.7248 501.843 51.1877M488.593 50.2619C490.359 52.3449 492.126 54.4665 493.893 56.6266C497.503 60.7925 499.385 62.9912 499.538 63.2226C499.769 63.4541 499.961 63.6855 500.115 63.917C500.268 64.1484 500.383 64.4184 500.46 64.727C500.537 65.0356 500.614 65.3442 500.691 65.6528C500.691 65.7299 500.691 65.8456 500.691 65.9999M481.91 22.6047C481.91 22.9133 481.91 23.2219 481.91 23.5305C481.91 24.0705 481.949 24.572 482.025 25.0349C482.102 25.5749 482.256 26.0764 482.486 26.5392C482.794 27.0021 483.101 27.4264 483.408 27.8122C483.792 28.1979 483.984 28.3908 483.984 28.3908C483.984 28.3908 485.29 29.6637 487.902 32.2095C489.284 33.521 490.628 34.794 491.934 36.0283M487.21 36.3755C487.364 36.2212 487.556 36.0669 487.786 35.9126C488.17 35.604 488.554 35.3726 488.938 35.2183C489.323 35.064 489.707 35.0254 490.091 35.1026C490.475 35.1797 490.897 35.334 491.358 35.5654C491.819 35.874 492.049 36.0283 492.049 36.0283C492.049 36.0283 492.433 36.3755 493.202 37.0698C493.97 37.687 494.507 38.1884 494.815 38.5742C495.199 38.9599 495.429 39.3456 495.506 39.7314C495.659 40.1943 495.698 40.6186 495.621 41.0043C495.544 41.39 495.391 41.8143 495.16 42.2772C494.853 42.663 494.546 43.0487 494.238 43.4344C493.854 43.743 493.47 43.9745 493.086 44.1288C492.702 44.2831 492.28 44.3216 491.819 44.2445C491.435 44.1673 491.012 44.013 490.552 43.7816C490.167 43.473 489.975 43.3187 489.975 43.3187C489.975 43.3187 489.553 42.9716 488.708 42.2772C487.94 41.5829 487.479 41.1586 487.325 41.0043C487.172 40.85 487.018 40.6957 486.865 40.5414C486.788 40.31 486.711 40.0785 486.634 39.8471C486.557 39.6928 486.48 39.4999 486.404 39.2685C486.404 39.0371 486.404 38.8056 486.404 38.5742C486.404 38.3427 486.404 38.1113 486.404 37.8798C486.48 37.6484 486.557 37.4555 486.634 37.3012C486.711 37.0698 486.826 36.8769 486.98 36.7226C487.133 36.4912 487.21 36.3755 487.21 36.3755ZM484.445 43.0873C484.599 42.933 484.791 42.7787 485.021 42.6244C485.405 42.3158 485.789 42.0844 486.173 41.9301C486.557 41.7758 486.941 41.7372 487.325 41.8143C487.786 41.8915 488.209 42.0458 488.593 42.2772C489.054 42.5858 489.284 42.7401 489.284 42.7401C489.284 42.7401 489.553 42.9716 490.091 43.4344C490.552 43.8973 490.974 44.3216 491.358 44.7074C491.665 45.0931 491.896 45.4788 492.049 45.8646C492.203 46.3274 492.241 46.7518 492.165 47.1375C492.088 47.5232 491.896 47.9475 491.588 48.4104C491.358 48.8733 491.051 49.259 490.667 49.5676C490.283 49.8762 489.899 50.1077 489.515 50.2619C489.13 50.4162 488.708 50.4548 488.247 50.3777C487.863 50.3005 487.441 50.1462 486.98 49.9148C486.596 49.6062 486.404 49.4519 486.404 49.4519C486.404 49.4519 486.135 49.2205 485.597 48.7576C485.059 48.2947 484.714 47.9861 484.56 47.8318C484.407 47.6004 484.291 47.4075 484.215 47.2532C484.061 47.0989 483.946 46.906 483.869 46.6746C483.792 46.4432 483.715 46.2117 483.638 45.9803C483.638 45.7488 483.638 45.5174 483.638 45.286C483.638 45.0545 483.677 44.8231 483.754 44.5916C483.754 44.4373 483.792 44.2445 483.869 44.013C484.023 43.7816 484.138 43.5887 484.215 43.4344C484.368 43.203 484.445 43.0873 484.445 43.0873Z" stroke="black" stroke-opacity="0.75" stroke-width="2" stroke-miterlimit="1.5" stroke-linecap="round" stroke-linejoin="round"/>
<path d="M440.111 81.7029L439.767 99.1589M446.53 86.6234L446.301 99.7447M446.301 96.3472C446.377 94.6289 446.454 92.9497 446.53 91.3096C446.606 88.0292 448.135 86.3891 451.115 86.3891C454.019 86.4672 455.509 88.0683 455.586 91.1924C455.586 94.3946 455.548 96.5815 455.471 97.7531C455.471 98.3779 455.433 99.0027 455.357 99.6276M461.547 80.9999C461.547 82.7182 461.585 84.4755 461.661 86.2719C461.738 89.7084 461.7 92.8326 461.547 95.6443C461.47 98.456 462.082 99.8619 463.381 99.8619C463.992 99.8619 464.604 99.8619 465.215 99.8619M459.369 86.5062L465.215 86.3891M469.112 93.0669C470.947 93.0669 472.781 93.0669 474.615 93.0669C478.283 92.9888 480.003 92.0515 479.773 90.2552C479.62 88.4588 478.321 87.2872 475.876 86.7405C473.43 86.1157 471.52 86.9748 470.144 89.3179C468.769 91.661 468.578 94.0041 469.571 96.3472C470.564 98.7684 472.131 99.9009 474.271 99.7447C476.487 99.5885 477.939 99.3542 478.627 99.0418C479.009 98.8856 479.353 98.7294 479.659 98.5732M486.193 86.1548L486.078 99.6276M485.963 91.8953C486.116 91.1143 486.269 90.3333 486.422 89.5522C486.728 88.0683 487.492 87.2091 488.715 86.9748C489.402 86.8186 490.052 86.7015 490.663 86.6234M494.446 93.184C496.28 93.184 498.153 93.145 500.063 93.0669C503.884 93.0669 505.642 92.1296 505.336 90.2552C505.03 88.3807 503.617 87.131 501.095 86.5062C498.496 85.8814 496.624 86.8577 495.478 89.4351C494.255 92.0125 494.102 94.3165 495.019 96.3472C496.013 98.456 497.579 99.5885 499.719 99.7447C501.935 99.9009 503.387 99.7447 504.075 99.2761C504.457 99.0418 504.839 98.8465 505.222 98.6903M517.372 88.1464C516.99 87.7559 516.608 87.4044 516.226 87.092C515.462 86.311 514.277 86.1157 512.673 86.5062C511.068 86.9748 510.304 87.7559 510.38 88.8493C510.456 89.9428 511.641 91.2315 513.934 92.7154C516.226 94.1213 517.334 95.6052 517.258 97.1673C517.258 98.7294 516.379 99.6666 514.621 99.979C512.864 100.213 511.641 99.7838 510.953 98.6903C510.571 98.0655 510.227 97.4797 509.921 96.933M522.531 81.1171C522.531 82.7573 522.531 84.3974 522.531 86.0376C522.607 89.3179 522.607 92.4811 522.531 95.5271C522.531 98.5732 523.104 100.057 524.25 99.979C524.785 99.979 525.359 99.94 525.97 99.8619M520.009 86.7405L525.97 86.6234M530.67 86.7405L530.555 99.7447M530.67 82.0543L531.243 81.5857M536.745 86.9748L536.631 99.8619M536.631 95.9958C536.783 94.4337 536.936 92.8716 537.089 91.3096C537.318 88.2635 538.809 86.7015 541.56 86.6234C544.311 86.6234 545.725 88.1854 545.801 91.3096C545.878 94.3556 545.954 96.5815 546.03 97.9874C546.03 98.6903 546.03 99.3932 546.03 100.096M562.767 96.1129C562.69 94.4727 562.576 92.8326 562.423 91.1924C562.27 87.9121 560.359 86.311 556.691 86.3891C553.099 86.4672 551.227 88.6931 551.074 93.0669C550.998 97.4407 552.832 99.6666 556.577 99.7447C560.321 99.8228 562.232 98.2607 562.308 95.0585C562.385 93.4183 562.423 91.8172 562.423 90.2552M562.767 86.6234C562.767 88.3416 562.729 90.0209 562.652 91.661C562.576 94.9414 562.537 97.5969 562.537 99.6276C562.461 101.736 561.659 103.259 560.13 104.197C558.678 105.134 557.035 105.251 555.201 104.548C554.284 104.236 553.329 103.923 552.335 103.611" stroke="black" stroke-opacity="0.75" stroke-width="2" stroke-miterlimit="1.5" stroke-linecap="round" stroke-linejoin="round"/>
</svg>
