<svg width="572" height="165" viewBox="0 0 572 165" fill="none" xmlns="http://www.w3.org/2000/svg">
<path fill-rule="evenodd" clip-rule="evenodd" d="M0.994995 0.999939C0.994995 13.6666 0.994995 26.3333 0.994995 38.9999C0.994995 64.3333 0.994995 76.9999 0.994995 76.9999C0.994995 76.9999 55.495 76.9999 164.495 76.9999C273.495 76.9999 327.995 76.9999 327.995 76.9999C327.995 76.9999 331.995 70.6666 339.995 57.9999C347.995 45.3333 351.995 38.9999 351.995 38.9999C351.995 38.9999 347.995 32.6666 339.995 19.9999C331.995 7.33327 327.995 0.999939 327.995 0.999939C327.995 0.999939 273.495 0.999939 164.495 0.999939C110.028 0.999939 55.5283 0.999939 0.994995 0.999939Z" fill="#FFC977" stroke="#484848" stroke-opacity="0.5" stroke-width="2" stroke-miterlimit="1.5" stroke-linecap="round" stroke-linejoin="round"/>
<path d="M49.4865 19.7905L49.3979 32.8783M45.0594 19.7905L54.0021 19.9662M57.5438 18.9999L57.6323 32.7905M57.6323 30.1553C57.6323 29.0427 57.6619 27.9301 57.7209 26.8175C57.7799 24.5923 58.9014 23.4797 61.0855 23.4797C63.2695 23.4211 64.332 24.563 64.273 26.9053C64.273 29.2477 64.2435 30.858 64.1845 31.7364C64.1845 32.1463 64.1845 32.5562 64.1845 32.9662M68.4345 28.2229C69.8511 28.2229 71.2678 28.2229 72.6845 28.2229C75.4588 28.2229 76.7279 27.5788 76.4918 26.2905C76.1967 24.9436 75.1637 24.036 73.3928 23.5675C71.622 23.0405 70.2348 23.7432 69.2313 25.6756C68.2869 27.5495 68.1393 29.3062 68.7886 30.9459C69.497 32.5855 70.648 33.4053 72.2418 33.4053C73.8946 33.4639 75.0456 33.2882 75.6949 32.8783C75.9901 32.7026 76.2852 32.527 76.5803 32.3513M87.0283 23.2162L90.57 33.2297M90.3929 33.1418L93.9346 23.0405M93.9346 23.304L97.7419 32.9662M97.4763 33.4053L100.929 23.1283M104.294 23.9189C104.943 23.7432 105.622 23.5382 106.33 23.304C107.688 22.8941 108.869 22.9234 109.872 23.3918C110.876 23.8017 111.377 24.5044 111.377 25.4999C111.377 26.4954 111.318 28.018 111.2 30.0675C111.082 32.0585 109.931 33.1126 107.747 33.2297C105.622 33.2882 104.56 32.2927 104.56 30.2432C104.619 28.2522 105.681 27.2567 107.747 27.2567C109.813 27.1981 110.964 28.1936 111.2 30.2432C111.318 31.2387 111.436 32.2635 111.554 33.3175M114.653 23.0405L118.992 33.1418M122.711 23.3918L117.487 36.4797M133.778 19.1756C133.838 20.4639 133.867 21.7229 133.867 22.9526C133.926 25.4707 133.956 27.8423 133.956 30.0675C133.897 32.2342 134.339 33.2589 135.284 33.1418C135.756 33.0247 136.258 32.9369 136.789 32.8783M132.273 23.4797L136.877 23.1283M165.034 25.0607C164.739 24.6508 164.473 24.2702 164.237 23.9189C163.706 23.1576 162.85 22.9819 161.669 23.3918C160.43 23.7432 159.81 24.358 159.81 25.2364C159.81 26.1148 160.695 26.9932 162.466 27.8716C164.296 28.7499 165.181 29.8333 165.122 31.1216C165.063 32.4098 164.355 33.1126 162.997 33.2297C161.64 33.3468 160.725 33.0247 160.253 32.2635C160.016 31.9121 159.78 31.5315 159.544 31.1216M168.841 23.3918C168.841 24.9729 168.841 26.5833 168.841 28.2229C168.841 31.4436 169.992 33.0833 172.294 33.1418C174.596 33.1418 175.718 32.0292 175.659 29.804C175.659 28.6328 175.659 27.4909 175.659 26.3783M175.57 23.5675L175.659 33.3175M187.789 24.2702C187.199 24.036 186.609 23.7725 186.018 23.4797C184.897 23.0112 183.598 23.2162 182.122 24.0945C180.647 25.0315 179.938 26.4662 179.997 28.3986C179.997 30.2725 180.706 31.6486 182.122 32.527C183.539 33.3468 184.838 33.4053 186.018 32.7026C186.609 32.3513 187.199 31.9707 187.789 31.5607M199.3 24.358C198.709 24.1824 198.09 23.9774 197.44 23.7432C196.26 23.3333 194.961 23.5089 193.544 24.2702C192.128 25.0315 191.419 26.349 191.419 28.2229C191.419 30.0968 192.098 31.4436 193.456 32.2635C194.813 33.0833 196.112 33.1418 197.352 32.4391C198.001 32.0878 198.621 31.7364 199.211 31.3851M202.841 28.3986C204.317 28.3986 205.793 28.3986 207.268 28.3986C210.161 28.34 211.489 27.608 211.253 26.2026C211.017 24.7972 209.925 23.831 207.977 23.304C206.088 22.8355 204.671 23.4797 203.727 25.2364C202.782 27.0517 202.664 28.8378 203.373 30.5945C204.081 32.3513 205.232 33.2589 206.826 33.3175C208.478 33.3175 209.6 33.1125 210.19 32.7026C210.426 32.4684 210.692 32.2635 210.987 32.0878M220.55 24.7094C220.255 24.4752 219.959 24.2117 219.664 23.9189C219.015 23.3918 218.071 23.2747 216.831 23.5675C215.591 23.8017 214.972 24.3288 214.972 25.1486C214.972 26.027 215.857 26.9346 217.628 27.8716C219.399 28.8085 220.314 29.804 220.373 30.858C220.373 31.9707 219.664 32.7026 218.248 33.054C216.772 33.4053 215.798 33.1711 215.326 32.3513C215.09 31.9414 214.853 31.5315 214.617 31.1216M229.138 24.7972C228.902 24.4459 228.637 24.1238 228.341 23.831C227.81 23.1283 226.984 22.9234 225.862 23.2162C224.682 23.5089 224.091 24.1238 224.091 25.0607C224.091 25.9391 224.947 26.8761 226.659 27.8716C228.371 28.8085 229.256 29.8333 229.315 30.9459C229.315 32.1171 228.577 32.7905 227.102 32.9662C225.567 33.1418 224.593 32.849 224.18 32.0878C223.944 31.7364 223.737 31.3558 223.56 30.9459M240.029 23.304L240.117 33.2297M240.117 19.6148H240.295M249.857 24.5337C249.562 24.2409 249.267 23.9481 248.972 23.6553C248.381 23.0698 247.496 22.8941 246.315 23.1283C245.135 23.4211 244.545 24.0067 244.545 24.8851C244.545 25.7635 245.4 26.7004 247.112 27.6959C248.824 28.6328 249.68 29.7454 249.68 31.0337C249.739 32.322 249.06 33.054 247.644 33.2297C246.227 33.4053 245.253 33.054 244.722 32.1756C244.486 31.7657 244.22 31.3558 243.925 30.9459M38.4187 51.2364C38.3597 50.1238 38.3007 49.0112 38.2416 47.8986C38.1826 45.7319 36.7659 44.6193 33.9916 44.5607C31.2173 44.5022 29.8892 46.054 30.0072 49.2162C30.1253 52.4369 31.5124 54.0765 34.1687 54.1351C36.884 54.1351 38.3007 52.9639 38.4187 50.6216C38.4777 49.3918 38.5368 48.1914 38.5958 47.0202M38.5958 39.9932V54.1351M43.2885 44.4729L43.4656 54.0472M43.2885 40.6959L43.6427 40.8716M51.7886 39.9932C51.6705 40.0517 51.5229 40.1103 51.3459 40.1689C51.1097 40.2274 50.5785 40.4909 49.7521 40.9594C48.9847 41.4279 48.6011 42.1891 48.6011 43.2432C48.6011 44.2972 48.5715 46.4053 48.5125 49.5675C48.5125 51.1486 48.5125 52.7297 48.5125 54.3107M46.299 44.3851H51.4344M57.898 39.9053C57.7799 39.9639 57.6619 39.9932 57.5438 39.9932C57.3077 39.9932 56.7764 40.2567 55.95 40.7837C55.1237 41.3107 54.7105 42.1598 54.7105 43.331C54.7105 44.5022 54.74 46.581 54.799 49.5675C54.799 51.09 54.799 52.6125 54.799 54.1351M52.4969 44.5607L57.4553 44.1216M60.023 49.304C61.3806 49.304 62.7678 49.304 64.1845 49.304C67.0178 49.304 68.3459 48.6306 68.1688 47.2837C68.0508 45.9369 67.0178 44.9999 65.0699 44.4729C63.122 43.9459 61.6758 44.6486 60.7313 46.581C59.7869 48.4549 59.6983 50.1824 60.4657 51.7635C61.174 53.3445 62.3546 54.1351 64.0074 54.1351C65.6602 54.0765 66.7817 53.9008 67.372 53.608C67.6671 53.4909 67.9622 53.3738 68.2574 53.2567M72.9501 44.4729L72.8616 54.0472M72.9501 48.777C73.0682 48.1328 73.1862 47.4887 73.3043 46.8445C73.5404 45.6148 74.1602 44.8828 75.1637 44.6486C75.6359 44.59 76.1376 44.5022 76.6689 44.3851M79.5908 49.1283C81.0074 49.1869 82.3946 49.2162 83.7522 49.2162C86.5266 49.3333 87.7957 48.6598 87.5595 47.1959C87.3825 45.6734 86.3495 44.7364 84.4606 44.3851C82.5717 43.9752 81.155 44.7364 80.2106 46.6689C79.3251 48.6013 79.2071 50.3288 79.8564 51.8513C80.5057 53.4324 81.7158 54.2229 83.4866 54.2229C85.1984 54.2229 86.32 54.018 86.8512 53.608C87.0873 53.4324 87.3234 53.2274 87.5595 52.9932M92.2523 44.3851L92.1637 54.3107M92.3408 51.4999C92.3998 50.2702 92.4589 49.0405 92.5179 47.8107C92.5769 45.4098 93.7575 44.268 96.0596 44.3851C98.3026 44.5022 99.4242 45.7319 99.4242 48.0743C99.4242 50.4752 99.3947 52.0855 99.3356 52.9053C99.3356 53.3153 99.3061 53.7252 99.2471 54.1351M104.205 40.081C104.205 41.4279 104.205 42.7454 104.205 44.0337C104.205 46.7274 104.176 49.1576 104.117 51.3243C104.058 53.5495 104.501 54.6035 105.445 54.4864C105.917 54.4279 106.389 54.3693 106.862 54.3107M102.169 44.3851L106.773 44.2972M121.028 40.081C120.851 40.081 120.704 40.081 120.586 40.081C120.291 40.1396 119.73 40.4324 118.903 40.9594C118.136 41.4864 117.752 42.277 117.752 43.331C117.752 44.4436 117.752 46.5225 117.752 49.5675C117.752 51.1486 117.782 52.7004 117.841 54.2229M115.45 44.3851L120.586 44.2094M136.966 44.3851L136.877 54.3107M136.966 48.6013C137.084 48.0157 137.173 47.4301 137.232 46.8445C137.409 45.6148 137.969 44.9121 138.914 44.7364C139.386 44.6193 139.829 44.5315 140.242 44.4729M150.513 49.304C151.871 49.3625 153.258 49.3918 154.674 49.3918C157.39 49.5089 158.629 48.8355 158.393 47.3716C158.157 45.9076 157.095 44.9414 155.206 44.4729C153.376 44.0044 151.989 44.7071 151.044 46.581C150.1 48.5135 150.011 50.2702 150.779 51.8513C151.546 53.4909 152.726 54.3107 154.32 54.3107C155.914 54.3693 157.036 54.1644 157.685 53.6959C157.98 53.4616 158.275 53.2274 158.57 52.9932M162.555 45.2635C163.263 45.0292 163.942 44.795 164.591 44.5607C165.89 44.0923 167.07 44.0923 168.133 44.5607C169.136 44.9707 169.638 45.7026 169.638 46.7567C169.638 47.8107 169.549 49.3333 169.372 51.3243C169.195 53.2567 168.044 54.2522 165.919 54.3107C163.794 54.3107 162.732 53.286 162.732 51.2364C162.673 49.1869 163.706 48.1914 165.831 48.2499C167.956 48.3085 169.166 49.3626 169.461 51.4121C169.579 52.4076 169.727 53.4031 169.904 54.3986M181.326 45.527C180.735 45.3513 180.145 45.1463 179.555 44.9121C178.374 44.5607 177.046 44.7364 175.57 45.4391C174.036 46.1418 173.298 47.4594 173.357 49.3918C173.357 51.3243 174.095 52.7297 175.57 53.608C177.046 54.4279 178.315 54.4571 179.378 53.6959C179.968 53.3445 180.529 52.9932 181.06 52.6418M185.753 39.9932L185.576 54.0472M185.664 51.1486C185.723 50.036 185.782 48.8941 185.841 47.7229C185.9 45.4391 186.992 44.2972 189.117 44.2972C191.242 44.2972 192.334 45.4684 192.393 47.8107C192.393 50.2116 192.393 51.8513 192.393 52.7297C192.334 53.1396 192.305 53.5495 192.305 53.9594M204.435 44.2972V57.9999M204.169 51.4121C204.228 50.1824 204.317 48.9526 204.435 47.7229C204.612 45.322 206.058 44.1508 208.774 44.2094C211.489 44.3265 212.817 46.054 212.758 49.3918C212.699 52.7297 211.371 54.3107 208.774 54.1351C206.117 53.9594 204.73 52.7589 204.612 50.5337C204.612 49.4211 204.583 48.3085 204.524 47.1959M216.654 49.4797C218.071 49.4211 219.458 49.3918 220.815 49.3918C223.649 49.3918 224.918 48.6891 224.623 47.2837C224.327 45.9369 223.235 44.9414 221.347 44.2972C219.458 43.7116 218.041 44.3851 217.097 46.3175C216.093 48.3085 215.975 50.1531 216.742 51.8513C217.451 53.5495 218.661 54.34 220.373 54.2229C222.084 54.1058 223.206 53.9008 223.737 53.608C223.973 53.4324 224.239 53.286 224.534 53.1689M229.581 44.4729L229.404 54.3107M229.404 48.6891C229.522 48.1035 229.64 47.518 229.758 46.9324C229.994 45.7026 230.584 44.9414 231.529 44.6486C232.001 44.5315 232.473 44.3851 232.946 44.2094M241.357 45.6148C241.062 45.322 240.767 45.0585 240.472 44.8243C239.881 44.2972 238.996 44.1216 237.815 44.2972C236.635 44.4729 236.045 45.0878 236.045 46.1418C236.045 47.1959 236.959 48.1328 238.789 48.9526C240.619 49.7725 241.505 50.768 241.446 51.9391C241.446 53.1103 240.737 53.8423 239.321 54.1351C237.963 54.3693 237.048 54.1351 236.576 53.4324C236.281 53.081 236.015 52.7004 235.779 52.2905M257.737 44.1216V54.3986M257.914 51.4121C257.973 50.1824 258.032 48.9526 258.091 47.7229C258.151 45.322 259.331 44.1216 261.633 44.1216C263.935 44.1216 265.057 45.2927 264.998 47.6351C264.998 49.9774 264.998 51.6756 264.998 52.7297C264.998 53.1981 264.998 53.6959 264.998 54.2229M144.404 23.3918C143.636 23.3333 142.869 23.3918 142.101 23.5675C140.626 23.7432 139.888 25.4121 139.888 28.5743C139.947 31.6779 141.511 33.2004 144.581 33.1418C147.591 33.0833 149.096 31.5608 149.096 28.5743C149.096 25.5292 148.299 23.8896 146.706 23.6553C145.938 23.4797 145.171 23.3918 144.404 23.3918ZM127.846 44.5607C127.138 44.6193 126.37 44.7364 125.544 44.9121C124.068 45.0878 123.36 46.6981 123.419 49.7432C123.419 52.7882 124.924 54.34 127.935 54.3986C130.945 54.3986 132.421 52.8468 132.362 49.7432C132.362 46.6396 131.624 44.9414 130.148 44.6486C129.381 44.4729 128.614 44.4436 127.846 44.5607ZM249.149 44.2972C248.381 44.2972 247.673 44.3851 247.024 44.5607C245.489 44.8535 244.663 46.5225 244.545 49.5675C244.486 52.6125 245.991 54.1351 249.06 54.1351C252.13 54.0765 253.723 52.5247 253.841 49.4797C253.901 46.3761 253.104 44.7364 251.451 44.5607C250.743 44.3851 249.975 44.2972 249.149 44.2972Z" stroke="black" stroke-opacity="0.75" stroke-width="2" stroke-miterlimit="1.5" stroke-linecap="round" stroke-linejoin="round"/>
<path d="M300.5 53.0999L313.5 24.9999M295 35.2999H319M295 42.7999H319" stroke="black" stroke-opacity="0.75" stroke-width="2" stroke-miterlimit="1.5" stroke-linecap="round" stroke-linejoin="round"/>
<path d="M390 63.2998H387.6H387.5C384.206 63.3122 380.65 62.1616 377.3 59.9998C376.297 59.3532 375.22 58.2386 374.136 56.7249C373.052 55.2112 371.985 53.3307 371 51.1998C370.015 49.0689 368.948 47.1884 367.864 45.6748C366.78 44.1611 365.703 43.0464 364.7 42.3998C361.36 40.2091 357.804 39.0236 354.5 38.9998H354.4H352" stroke="#BCBCBC" stroke-width="2" stroke-miterlimit="1.5" stroke-linecap="round" stroke-linejoin="round" stroke-dasharray="5 7"/>
<path d="M327.995 76.9999V87.89V157.683C327.995 159.358 326.789 160.965 324.644 162.15C322.498 163.334 319.587 164 316.553 164H316.444H316.335C314.832 164 313.344 163.837 311.956 163.519C310.568 163.202 309.306 162.736 308.244 162.15C307.181 161.563 306.338 160.867 305.763 160.1C305.188 159.334 304.892 158.512 304.892 157.683V157.622V105.097C304.893 103.72 303.909 102.397 302.154 101.417C300.4 100.437 298.016 99.8788 295.521 99.863H295.412H293.995" stroke="#BCBCBC" stroke-width="2" stroke-miterlimit="1.5" stroke-linecap="round" stroke-linejoin="round" stroke-dasharray="5 7"/>
<path d="M57.9355 99.6794C57.8726 101.426 57.8411 103.173 57.8411 104.92C57.7782 108.477 58.9739 110.286 61.4282 110.349C63.9455 110.349 65.2041 109.132 65.2041 106.699C65.2041 105.451 65.2041 104.234 65.2041 103.049M65.2041 99.6794L65.1097 110.349M70.6792 99.8666L70.5848 109.974M70.4904 104.078C70.6792 103.454 70.8365 102.861 70.9624 102.3C71.2771 101.052 71.9378 100.272 72.9447 99.9602C73.4482 99.773 73.9517 99.5858 74.4551 99.3987M93.5234 100.803C92.8312 100.553 92.1389 100.303 91.4467 100.054C90.1251 99.5547 88.7406 99.8042 87.2932 100.803C85.9087 101.738 85.1535 103.173 85.0276 105.108C84.9018 106.979 85.6255 108.415 87.1988 109.413C88.7721 110.411 90.2195 110.505 91.5411 109.694C92.1704 109.319 92.7997 108.914 93.429 108.477M111.081 100.615C111.774 100.303 112.497 100.023 113.252 99.773C114.637 99.2739 115.896 99.2739 117.028 99.773C118.098 100.272 118.633 101.083 118.633 102.206C118.696 103.267 118.57 104.827 118.256 106.886C118.004 108.945 116.745 109.974 114.48 109.974C112.214 110.037 111.05 108.976 110.987 106.792C110.924 104.671 112.088 103.641 114.48 103.704C116.871 103.829 118.161 104.952 118.35 107.073C118.476 108.134 118.57 109.194 118.633 110.255M130.905 100.99C130.276 100.74 129.646 100.459 129.017 100.147C127.758 99.6482 126.405 99.8354 124.958 100.709C123.447 101.582 122.661 103.017 122.598 105.014C122.598 107.011 123.322 108.446 124.769 109.319C126.279 110.193 127.664 110.224 128.922 109.413C129.552 108.976 130.181 108.539 130.81 108.103M135.53 95.4679L135.625 109.974M135.625 107.073C135.688 105.888 135.782 104.671 135.908 103.423C136.097 100.99 137.292 99.7418 139.495 99.6794C141.698 99.5547 142.83 100.803 142.893 103.423C142.893 106.044 142.893 107.853 142.893 108.851C142.893 109.35 142.893 109.818 142.893 110.255M147.141 104.733C148.652 104.796 150.162 104.858 151.672 104.92C154.756 105.108 156.172 104.359 155.92 102.674C155.731 101.052 154.567 99.9914 152.427 99.4923C150.351 98.9931 148.872 99.773 147.991 101.832C147.11 103.891 146.984 105.794 147.613 107.541C148.305 109.288 149.533 110.224 151.295 110.349C153.057 110.411 154.252 110.224 154.882 109.787C155.196 109.6 155.48 109.413 155.731 109.226M166.021 101.177C165.706 100.865 165.391 100.553 165.077 100.241C164.447 99.6794 163.503 99.5235 162.245 99.773C160.986 100.023 160.325 100.678 160.262 101.738C160.262 102.737 161.238 103.735 163.189 104.733C165.14 105.794 166.084 106.886 166.021 108.009C166.021 109.07 165.266 109.725 163.755 109.974C162.245 110.224 161.238 109.974 160.734 109.226C160.483 108.789 160.231 108.383 159.979 108.009M176.971 100.147C177.663 99.9602 178.355 99.773 179.048 99.5858C180.495 99.2115 181.754 99.2739 182.823 99.773C183.893 100.335 184.491 101.177 184.617 102.3C184.68 103.423 184.554 105.045 184.239 107.167C183.925 109.288 182.603 110.318 180.275 110.255C178.009 110.13 176.939 108.976 177.065 106.792C177.128 104.671 178.261 103.61 180.464 103.61C182.666 103.673 183.862 104.796 184.051 106.979C184.177 108.103 184.271 109.226 184.334 110.349M197.361 107.167C197.361 105.919 197.361 104.671 197.361 103.423C197.361 100.99 195.882 99.7418 192.924 99.6794C190.029 99.6794 188.582 101.426 188.582 104.92C188.582 108.415 189.998 110.193 192.83 110.255C195.662 110.318 197.203 109.038 197.455 106.418C197.581 105.108 197.675 103.797 197.738 102.487M197.644 95.4679V110.442M203.025 100.054C203.025 101.177 203.056 102.269 203.119 103.329C203.182 105.576 203.213 107.853 203.213 110.162C203.276 112.47 202.804 113.624 201.797 113.624C201.294 113.687 200.79 113.718 200.287 113.718M202.836 95.8422L203.497 95.7487M208.216 99.9602C208.216 101.707 208.185 103.423 208.122 105.108C207.996 108.602 209.16 110.349 211.615 110.349C214.069 110.286 215.296 109.038 215.296 106.605C215.359 105.357 215.391 104.109 215.391 102.862M215.296 99.9602L215.391 110.442M225.963 101.364C225.586 100.99 225.239 100.615 224.925 100.241C224.233 99.4923 223.257 99.2427 221.998 99.4923C220.74 99.7418 220.111 100.335 220.111 101.27C220.048 102.269 220.96 103.267 222.848 104.265C224.736 105.264 225.711 106.449 225.774 107.822C225.837 109.194 225.145 110.006 223.698 110.255C222.187 110.505 221.117 110.13 220.488 109.132C220.236 108.695 219.953 108.227 219.639 107.728M229.928 94.9999C229.991 96.435 230.054 97.87 230.117 99.3051C230.243 102.175 230.305 104.733 230.305 106.979C230.305 109.288 230.746 110.349 231.627 110.162C232.068 110.099 232.508 110.037 232.949 109.974M228.417 99.6794L233.043 99.5858M244.654 95.4679C244.654 96.8405 244.654 98.182 244.654 99.4923C244.654 102.238 244.685 104.796 244.748 107.167C244.748 109.538 245.22 110.661 246.164 110.536C246.605 110.473 247.045 110.411 247.486 110.349M242.86 99.773L247.58 99.5858M251.828 95.3743L251.639 109.881M251.734 107.26C251.734 106.012 251.765 104.764 251.828 103.517C251.954 101.083 253.15 99.8354 255.415 99.773C257.618 99.7106 258.719 100.896 258.719 103.329C258.719 105.7 258.751 107.447 258.814 108.57C258.876 109.132 258.908 109.694 258.908 110.255M262.967 105.295C264.54 105.232 266.082 105.139 267.592 105.014C270.676 104.889 272.092 104.109 271.84 102.674C271.526 101.302 270.361 100.335 268.348 99.773C266.334 99.2115 264.823 99.8978 263.817 101.832C262.747 103.829 262.589 105.763 263.345 107.635C264.163 109.506 265.453 110.411 267.215 110.349C268.977 110.286 270.173 110.037 270.802 109.6C271.117 109.35 271.4 109.132 271.652 108.945M276.56 99.5858L276.466 110.068M276.183 96.2166H276.843M282.224 99.6794L282.13 110.255M282.035 104.078C282.161 103.517 282.287 102.924 282.413 102.3C282.665 101.177 283.325 100.428 284.395 100.054C284.962 99.929 285.497 99.773 286 99.5858M120.899 122.141L120.804 132.436M120.804 129.815C120.867 128.568 120.962 127.288 121.087 125.978C121.276 123.42 122.441 122.11 124.58 122.047C126.783 121.985 127.884 123.233 127.884 125.791C127.947 128.349 128.01 130.127 128.073 131.126C128.073 131.625 128.104 132.155 128.167 132.717M128.167 129.815C128.23 128.505 128.293 127.195 128.356 125.885C128.482 123.202 129.678 121.891 131.943 121.954C134.146 122.016 135.216 123.358 135.153 125.978C135.09 128.599 135.121 130.408 135.247 131.406C135.247 131.906 135.279 132.405 135.342 132.904M139.306 127.663C140.817 127.6 142.327 127.569 143.837 127.569C146.858 127.507 148.243 126.696 147.991 125.136C147.739 123.514 146.669 122.515 144.781 122.141C142.83 121.704 141.352 122.484 140.345 124.481C139.275 126.477 139.117 128.318 139.873 130.003C140.691 131.625 141.949 132.467 143.649 132.53C145.285 132.592 146.449 132.436 147.141 132.062C147.456 131.874 147.771 131.687 148.085 131.5M153.371 117.649C153.371 119.084 153.34 120.488 153.277 121.86C153.277 124.668 153.246 127.257 153.183 129.628C153.183 131.937 153.686 133.06 154.693 132.997C155.134 132.997 155.606 132.997 156.109 132.997M151.295 122.328L156.109 122.235M159.979 117.742L160.262 132.904M160.168 129.535C160.231 128.349 160.262 127.133 160.262 125.885C160.325 123.514 161.49 122.359 163.755 122.422C166.021 122.484 167.153 123.701 167.153 126.072C167.216 128.505 167.279 130.283 167.342 131.406C167.342 131.906 167.374 132.436 167.437 132.997M194.34 129.535C194.277 128.287 194.214 127.07 194.151 125.885C194.025 123.451 192.546 122.203 189.714 122.141C186.883 122.141 185.467 123.919 185.467 127.476C185.467 131.032 186.914 132.779 189.809 132.717C192.704 132.654 194.246 131.344 194.434 128.786C194.497 127.476 194.56 126.165 194.623 124.855M194.434 117.649L194.718 132.436M204.818 123.545C204.566 123.295 204.315 123.046 204.063 122.796C203.497 122.235 202.553 122.016 201.231 122.141C199.847 122.328 199.154 122.921 199.154 123.919C199.154 124.98 200.098 126.009 201.986 127.008C203.937 128.068 204.944 129.191 205.007 130.377C205.07 131.625 204.315 132.374 202.741 132.623C201.168 132.935 200.161 132.654 199.721 131.781C199.532 131.344 199.312 130.938 199.06 130.564M46.7022 96.0294C47.3945 96.0918 48.0553 96.2166 48.6846 96.4038C50.0691 96.5286 51.3592 97.6517 52.5549 99.773C53.7506 101.832 53.7506 104.109 52.5549 106.605C51.3592 109.101 49.3454 110.318 46.5134 110.255C43.6815 110.193 41.7621 108.882 40.7552 106.324C39.7483 103.704 39.7483 101.426 40.7552 99.4923C41.6992 97.6205 42.9578 96.5286 44.5311 96.2166C45.2233 96.0294 45.947 95.967 46.7022 96.0294ZM102.397 99.773C101.516 99.8354 100.635 99.9914 99.7536 100.241C98.0545 100.491 97.2364 102.269 97.2993 105.576C97.2993 108.82 98.9355 110.349 102.208 110.162C105.543 110.037 107.211 108.352 107.211 105.108C107.274 101.926 106.487 100.21 104.851 99.9602C104.033 99.7106 103.215 99.6482 102.397 99.773ZM176.593 122.235C175.775 122.235 174.926 122.328 174.045 122.515C172.471 122.703 171.685 124.418 171.685 127.663C171.748 130.907 173.384 132.561 176.593 132.623C179.803 132.623 181.408 131.032 181.408 127.85C181.47 124.73 180.715 123.015 179.142 122.703C178.261 122.453 177.411 122.297 176.593 122.235Z" stroke="black" stroke-opacity="0.75" stroke-width="2" stroke-miterlimit="1.5" stroke-linecap="round" stroke-linejoin="round"/>
<rect width="182" height="151" transform="translate(390 12.9999)" fill="#A5C1FF"/>
<path d="M418.363 25.9999L421.453 29.8383M431.725 25.9999L434.481 30.7562M445.004 25.9999L447.092 30.7562M458.367 25.9999L458.701 31.5907M471.73 25.9999L472.064 31.1734M485.009 25.9999L485.092 31.5072M498.371 25.9999L497.62 30.5059M511.651 25.9999L510.648 30.6728M525.013 25.9999L522.842 31.09M538.376 25.9999L535.453 30.4225M551.237 28.3364L547.145 32.2582M557 39.7682L552.824 42.6052M557 53.0357L552.741 55.1218M557 66.3867L552.908 68.139M557 79.7377L552.407 80.0715M557 93.0052L552.073 93.0887M557 106.356L552.24 105.355M557 119.624L551.905 117.621M557 132.975L553.325 130.471M554.829 145.909L551.655 142.905M543.637 152L540.38 148.412M530.275 152L528.02 146.743M516.996 152L514.908 146.743M503.633 152L502.965 146.493M490.27 152L489.936 147.244M476.991 152L476.741 146.242M463.629 152L464.547 147.327M450.349 152L451.018 147.327M436.987 152L439.242 148.328M423.624 152L426.547 148.662M410.763 149.664L413.936 146.242M405 138.232L408.758 135.311M405 124.964L409.76 122.628M405 111.613L409.426 110.362M405 98.2622L409.593 97.5112M405 84.9946L410.596 85.8291M405 71.6436L409.76 72.9787M405 58.3761L409.51 60.7125M405 45.0251L409.426 48.1125M407.171 32.0913L410.429 34.7615" stroke="black" stroke-opacity="0.75" stroke-width="2" stroke-miterlimit="1.5" stroke-linecap="round" stroke-linejoin="round"/>
<path fill-rule="evenodd" clip-rule="evenodd" d="M481 45.9999C480.392 46.0555 479.755 46.1111 479.092 46.1666C477.82 46.2222 476.603 46.4166 475.441 46.7499C474.279 47.0277 473.146 47.4166 472.039 47.9166C470.988 48.361 469.965 48.9444 468.969 49.6666C467.974 50.3333 467.476 50.6666 467.476 50.6666C467.476 50.6666 467.089 51.0833 466.314 51.9166C465.485 52.6944 464.766 53.5277 464.157 54.4166C463.604 55.361 463.162 56.3055 462.83 57.2499C462.443 58.2499 462.194 59.2777 462.083 60.3333C461.972 61.3888 461.972 62.4722 462.083 63.5833C462.249 64.6944 462.525 65.7499 462.913 66.7499C463.245 67.7499 463.715 68.6944 464.323 69.5833C464.932 70.4722 465.623 71.3055 466.397 72.0833C467.227 72.861 467.642 73.2499 467.642 73.2499C467.642 73.2499 467.67 73.3333 467.725 73.4999C467.78 73.611 467.808 73.6666 467.808 73.6666C467.808 73.6666 467.697 74.8055 467.476 77.0833C467.199 79.4166 467.061 80.5833 467.061 80.5833C467.061 80.6388 467.061 80.6944 467.061 80.7499C467.061 80.7499 467.089 80.7777 467.144 80.8333C467.144 80.8333 467.172 80.8611 467.227 80.9166C467.227 80.9166 467.255 80.9444 467.31 80.9999C467.365 80.9999 467.393 80.9999 467.393 80.9999C467.448 80.9999 467.504 80.9999 467.559 80.9999C467.614 80.9999 467.642 80.9999 467.642 80.9999C467.697 80.9444 467.725 80.9166 467.725 80.9166C467.725 80.9166 468.721 80.2222 470.712 78.8333C472.703 77.4444 473.699 76.7499 473.699 76.7499C473.699 76.7499 473.754 76.7499 473.865 76.7499C473.975 76.6944 474.307 76.7499 474.86 76.9166C475.469 77.0277 476.049 77.1388 476.603 77.2499C477.211 77.361 477.792 77.4444 478.345 77.4999C478.953 77.611 479.534 77.6944 480.087 77.7499C480.696 77.8055 481.636 77.7777 482.908 77.6666C484.18 77.5555 485.397 77.361 486.559 77.0833C487.721 76.8055 488.854 76.4166 489.961 75.9166C491.012 75.4166 492.035 74.8333 493.031 74.1666C494.026 73.4999 494.524 73.1666 494.524 73.1666C494.524 73.1666 494.911 72.7499 495.686 71.9166C496.515 71.0833 497.234 70.2222 497.843 69.3333C498.396 68.4444 498.838 67.4999 499.17 66.4999C499.557 65.5555 499.806 64.5555 499.917 63.4999C500.028 62.4444 500.028 61.3888 499.917 60.3333C499.806 59.2777 499.557 58.2499 499.17 57.2499C498.838 56.3055 498.396 55.361 497.843 54.4166C497.234 53.5277 496.515 52.6944 495.686 51.9166C494.911 51.0833 494.524 50.6666 494.524 50.6666C494.524 50.6666 494.026 50.3333 493.031 49.6666C492.035 48.9444 491.012 48.361 489.961 47.9166C488.854 47.4166 487.721 47.0277 486.559 46.7499C485.397 46.4166 484.18 46.2222 482.908 46.1666C481.636 46.0555 481 45.9999 481 45.9999ZM476.022 59.0833C476.022 59.1944 476.022 59.2777 476.022 59.3333C476.022 59.4999 475.994 59.6388 475.939 59.7499C475.884 59.9166 475.828 60.0833 475.773 60.2499C475.718 60.361 475.635 60.4722 475.524 60.5833C475.413 60.6944 475.303 60.8055 475.192 60.9166C475.082 61.0277 474.943 61.1111 474.777 61.1666C474.667 61.2222 474.528 61.2777 474.362 61.3333C474.252 61.3888 474.114 61.4166 473.948 61.4166C473.782 61.4722 473.616 61.4722 473.45 61.4166C473.339 61.4166 473.201 61.3888 473.035 61.3333C472.869 61.2777 472.731 61.2222 472.62 61.1666C472.509 61.1111 472.371 61.0277 472.205 60.9166C472.095 60.8055 472.012 60.6944 471.956 60.5833C471.846 60.4722 471.763 60.361 471.707 60.2499C471.597 60.0833 471.514 59.9166 471.459 59.7499C471.459 59.6388 471.431 59.4999 471.376 59.3333C471.376 59.1666 471.376 59.0277 471.376 58.9166C471.431 58.7499 471.459 58.5833 471.459 58.4166C471.514 58.3055 471.597 58.1666 471.707 57.9999C471.763 57.8888 471.846 57.7777 471.956 57.6666C472.012 57.4999 472.095 57.3888 472.205 57.3333C472.371 57.2222 472.509 57.1388 472.62 57.0833C472.731 56.9722 472.869 56.9166 473.035 56.9166C473.201 56.861 473.339 56.8055 473.45 56.7499C473.616 56.7499 473.782 56.7499 473.948 56.7499C474.114 56.8055 474.252 56.861 474.362 56.9166C474.528 56.9166 474.667 56.9722 474.777 57.0833C474.943 57.1388 475.082 57.2222 475.192 57.3333C475.303 57.3888 475.413 57.4999 475.524 57.6666C475.635 57.7777 475.718 57.8888 475.773 57.9999C475.828 58.1666 475.884 58.3055 475.939 58.4166C475.994 58.5833 476.022 58.7499 476.022 58.9166C476.022 58.9722 476.022 59.0277 476.022 59.0833ZM490.459 59.0833C490.459 59.1944 490.459 59.2777 490.459 59.3333C490.459 59.4999 490.431 59.6388 490.376 59.7499C490.32 59.9166 490.265 60.0833 490.21 60.2499C490.099 60.361 490.016 60.4722 489.961 60.5833C489.85 60.6944 489.739 60.8055 489.629 60.9166C489.518 61.0277 489.38 61.1111 489.214 61.1666C489.103 61.2222 488.965 61.2777 488.799 61.3333C488.633 61.3888 488.495 61.4166 488.384 61.4166C488.218 61.4722 488.052 61.4722 487.886 61.4166C487.721 61.4166 487.582 61.3888 487.472 61.3333C487.306 61.2777 487.167 61.2222 487.057 61.1666C486.891 61.1111 486.753 61.0277 486.642 60.9166C486.531 60.8055 486.421 60.6944 486.31 60.5833C486.199 60.4722 486.116 60.361 486.061 60.2499C486.006 60.0833 485.951 59.9166 485.895 59.7499C485.84 59.6388 485.812 59.4999 485.812 59.3333C485.812 59.1666 485.812 59.0277 485.812 58.9166C485.812 58.7499 485.84 58.5833 485.895 58.4166C485.951 58.3055 486.006 58.1666 486.061 57.9999C486.116 57.8888 486.199 57.7777 486.31 57.6666C486.421 57.4999 486.531 57.3888 486.642 57.3333C486.753 57.2222 486.891 57.1388 487.057 57.0833C487.167 56.9722 487.306 56.9166 487.472 56.9166C487.582 56.861 487.721 56.8055 487.886 56.7499C488.052 56.7499 488.218 56.7499 488.384 56.7499C488.495 56.8055 488.633 56.861 488.799 56.9166C488.965 56.9166 489.103 56.9722 489.214 57.0833C489.38 57.1388 489.518 57.2222 489.629 57.3333C489.739 57.3888 489.85 57.4999 489.961 57.6666C490.016 57.7777 490.099 57.8888 490.21 57.9999C490.265 58.1666 490.32 58.3055 490.376 58.4166C490.431 58.5833 490.459 58.7499 490.459 58.9166C490.459 58.9722 490.459 59.0277 490.459 59.0833Z" stroke="black" stroke-opacity="0.75" stroke-width="2" stroke-miterlimit="1.5" stroke-linecap="round" stroke-linejoin="round"/>
<path d="M432.084 97.1658L432.169 109.271M432.169 97.3316H437.655M432.084 102.97L437.148 103.219M432 109.354L437.739 109.188M440.271 100.648L444.069 109.437M443.984 109.935L447.529 100.317M450.82 104.96C452.171 105.015 453.493 105.07 454.787 105.126C457.488 105.236 458.754 104.628 458.585 103.301C458.416 101.975 457.432 101.063 455.631 100.565C453.774 100.068 452.396 100.676 451.496 102.389C450.539 104.103 450.398 105.761 451.074 107.364C451.749 108.967 452.874 109.796 454.45 109.852C455.969 109.852 457.038 109.714 457.657 109.437C457.938 109.271 458.247 109.133 458.585 109.023M463.142 100.234L463.227 109.852M462.974 104.462C463.086 103.854 463.199 103.274 463.311 102.721C463.536 101.505 464.127 100.842 465.083 100.731C465.59 100.676 466.068 100.648 466.518 100.648M468.713 100.317L472.595 110.018M476.393 100.731L471.413 113.002M492.175 100.565L492.428 109.852M492.428 107.116C492.484 106.01 492.512 104.904 492.512 103.799C492.569 101.588 493.666 100.482 495.804 100.482C497.886 100.482 498.927 101.56 498.927 103.716C498.983 105.927 499.011 107.502 499.011 108.442C499.011 108.884 499.039 109.327 499.095 109.769M502.978 104.877C504.272 104.877 505.594 104.877 506.944 104.877C509.589 104.877 510.826 104.296 510.658 103.136C510.433 101.975 509.448 101.09 507.704 100.482C506.016 99.9296 504.666 100.51 503.653 102.224C502.696 103.992 502.527 105.706 503.146 107.364C503.822 108.967 505.003 109.741 506.691 109.686C508.323 109.631 509.392 109.492 509.898 109.271C510.179 109.161 510.433 109.05 510.658 108.94M521.798 100.482V109.603M521.629 97.0829L522.136 96.9999M530.997 101.892C530.716 101.56 530.435 101.229 530.153 100.897C529.591 100.289 528.747 100.095 527.621 100.317C526.552 100.538 526.018 101.09 526.018 101.975C526.074 102.859 526.918 103.771 528.55 104.711C530.238 105.651 531.054 106.646 530.997 107.696C530.941 108.746 530.294 109.382 529.056 109.603C527.818 109.769 526.946 109.52 526.44 108.857C526.215 108.58 525.99 108.276 525.765 107.945M452.593 127.098C452.593 125.992 452.593 124.915 452.593 123.864C452.593 121.708 451.299 120.631 448.711 120.631C446.066 120.631 444.744 122.178 444.744 125.274C444.744 128.425 446.01 130 448.542 130C451.074 130 452.396 128.811 452.508 126.435C452.565 125.274 452.621 124.113 452.677 122.952M452.846 116.485V129.668M457.572 120.548L457.319 129.751M457.319 116.982L457.572 116.817M465.168 116.485C465.055 116.485 464.915 116.485 464.746 116.485C464.521 116.54 464.014 116.734 463.227 117.065C462.439 117.342 462.045 118.116 462.045 119.387C462.045 120.603 462.045 122.648 462.045 125.523C461.989 126.96 461.961 128.425 461.961 129.917M460.273 120.465L464.915 120.133M471.076 116.402C470.963 116.402 470.851 116.402 470.738 116.402C470.513 116.402 470.007 116.651 469.219 117.148C468.431 117.646 468.037 118.447 468.037 119.553C468.037 120.603 468.037 122.565 468.037 125.44C468.094 126.877 468.122 128.314 468.122 129.751M466.012 120.465L470.907 120.548M473.186 124.942C474.536 124.997 475.886 125.053 477.237 125.108C479.994 125.163 481.26 124.472 481.034 123.035C480.866 121.598 479.881 120.686 478.081 120.299C476.28 119.967 474.93 120.658 474.03 122.372C473.129 124.085 473.017 125.771 473.692 127.43C474.423 129.143 475.577 129.945 477.152 129.834C478.728 129.724 479.797 129.53 480.359 129.254C480.641 129.143 480.922 129.005 481.203 128.839M485.592 120.465L485.761 129.502M485.676 124.528C485.789 123.975 485.901 123.422 486.014 122.869C486.295 121.764 486.858 121.045 487.702 120.714C488.152 120.603 488.602 120.465 489.052 120.299M491.922 124.942C493.328 124.997 494.707 125.025 496.057 125.025C498.758 125.136 499.996 124.472 499.771 123.035C499.489 121.598 498.476 120.714 496.732 120.382C494.988 119.995 493.638 120.658 492.681 122.372C491.781 124.085 491.668 125.771 492.344 127.43C492.963 129.033 494.088 129.806 495.719 129.751C497.351 129.751 498.42 129.558 498.927 129.171C499.152 129.005 499.377 128.811 499.602 128.59M503.737 120.465L503.906 129.751M503.737 126.932C503.85 125.771 503.962 124.638 504.075 123.533C504.244 121.322 505.369 120.244 507.451 120.299C509.589 120.354 510.686 121.487 510.742 123.698C510.742 125.909 510.714 127.485 510.658 128.425C510.658 128.922 510.63 129.42 510.573 129.917M515.215 116.236C515.215 117.452 515.187 118.696 515.131 119.967C515.018 122.399 514.99 124.638 515.046 126.683C515.103 128.729 515.553 129.696 516.397 129.585C516.847 129.53 517.269 129.475 517.663 129.42M513.358 120.05L517.831 120.216M484.157 100.731C483.426 100.731 482.666 100.786 481.878 100.897C480.472 101.063 479.74 102.61 479.684 105.54C479.684 108.47 481.147 109.879 484.073 109.769C486.942 109.714 488.377 108.276 488.377 105.457C488.377 102.693 487.674 101.201 486.267 100.98C485.536 100.869 484.832 100.786 484.157 100.731Z" stroke="black" stroke-opacity="0.75" stroke-width="2" stroke-miterlimit="1.5" stroke-linecap="round" stroke-linejoin="round"/>
</svg>
