<svg width="50" height="50" viewBox="0 0 50 50" fill="none" xmlns="http://www.w3.org/2000/svg">
<path d="M1.72137 48.7581L5.01055 36.5571C2.98137 32.9867 1.91428 28.935 1.9155 24.7853C1.92161 11.8027 12.319 1.24048 25.0973 1.24048C31.2984 1.24296 37.1173 3.69557 41.4943 8.1455C45.8701 12.5967 48.2802 18.5117 48.2778 24.8039C48.2729 37.7865 37.8731 48.3499 25.0973 48.3499H25.0875C21.2086 48.3487 17.3956 47.36 14.01 45.483L1.72137 48.7581Z" fill="white"/>
<path d="M1.72144 49.3783C1.56028 49.3783 1.404 49.3138 1.28801 49.1947C1.1354 49.0371 1.07557 48.8076 1.13295 48.5955L4.35498 36.6414C2.35755 33.0363 1.30388 28.9424 1.30633 24.7865C1.31121 11.4602 11.9833 0.620117 25.0973 0.620117C31.4584 0.622598 37.4348 3.13972 41.9266 7.7075C46.4184 12.2765 48.8908 18.3479 48.8883 24.8038C48.8834 38.1288 38.2101 48.9702 25.0973 48.9702C21.2038 48.9689 17.3518 47.9926 13.9332 46.1454L1.8765 49.3572C1.82522 49.3721 1.77394 49.3783 1.72144 49.3783Z" fill="white"/>
<path d="M25.0973 1.24057C31.2984 1.24305 37.1174 3.69566 41.4944 8.14559C45.8702 12.5968 48.2803 18.5118 48.2779 24.804C48.273 37.7866 37.8731 48.35 25.0973 48.35H25.0875C21.2087 48.3488 17.3957 47.3601 14.0101 45.4831L1.72143 48.7582L5.01061 36.5572C2.98143 32.9868 1.91434 28.9351 1.91556 24.7854C1.92166 11.8028 12.3191 1.24057 25.0973 1.24057ZM25.0973 0C11.6476 0 0.700734 11.118 0.69463 24.7854C0.693409 28.9624 1.7312 33.0786 3.69933 36.7222L0.543235 48.4319C0.428468 48.8599 0.545677 49.3164 0.85335 49.6315C1.08533 49.8697 1.39911 50 1.72143 50C1.82521 50 1.92899 49.9864 2.03155 49.9591L13.8587 46.808C17.3115 48.6292 21.1818 49.5906 25.0875 49.5919C38.5471 49.5919 49.4939 38.4726 49.5 24.8052C49.5024 18.1818 46.9666 11.9541 42.36 7.26975C37.751 2.58411 31.6207 0.00248114 25.0973 0Z" fill="#CFD8DC"/>
<path d="M38.7253 10.9567C35.087 7.25727 30.2509 5.21901 25.1034 5.21777C14.4765 5.21777 5.83353 13.9961 5.82864 24.7865C5.82742 28.4847 6.84568 32.0848 8.77474 35.2024L9.23381 35.943L7.28643 43.1644L14.579 41.2216L15.2835 41.6459C18.2406 43.4299 21.6323 44.3727 25.09 44.3739H25.0973C35.717 44.3739 44.3599 35.5944 44.3636 24.8027C44.3648 19.5737 42.3637 14.656 38.7253 10.9567Z" fill="#40C351"/>
<path fill-rule="evenodd" clip-rule="evenodd" d="M19.3028 14.9426C18.8694 13.9625 18.4127 13.9427 17.9988 13.9253C17.6607 13.9104 17.2748 13.9116 16.889 13.9116C16.5032 13.9116 15.8757 14.0593 15.3445 14.6485C14.8134 15.2378 13.3166 16.6608 13.3166 19.5562C13.3166 22.4517 15.3922 25.2505 15.6815 25.6425C15.9709 26.0345 19.6886 32.1667 25.5759 34.5262C30.4682 36.4863 31.4645 36.0968 32.5267 35.9988C33.5889 35.9008 35.9538 34.5758 36.4361 33.2013C36.9183 31.8267 36.9183 30.6494 36.7743 30.4038C36.629 30.1582 36.2432 30.0118 35.6645 29.7165C35.0857 29.4213 32.2373 27.9983 31.7062 27.8023C31.1751 27.6063 30.7893 27.5083 30.4023 28.0976C30.0164 28.6856 28.9066 30.0118 28.5684 30.4038C28.2302 30.7971 27.892 30.8467 27.3133 30.5514C26.7346 30.2562 24.869 29.6359 22.6555 27.6311C20.934 26.0717 19.7716 24.1451 19.4334 23.5559C19.0952 22.9678 19.3968 22.649 19.6874 22.355C19.9474 22.0907 20.2661 21.6677 20.5567 21.3241C20.8461 20.9804 20.9425 20.7348 21.1354 20.3428C21.3283 19.9495 21.2319 19.6059 21.0866 19.3119C20.9437 19.0166 19.818 16.1062 19.3028 14.9426Z" fill="white"/>
</svg>
