<svg width="45" height="44" viewBox="0 0 45 44" fill="none" xmlns="http://www.w3.org/2000/svg">
<path d="M9.05556 44H35.9444C40.6696 44 44.5 40.1696 44.5 35.4444V8.55556C44.5 3.83044 40.6696 0 35.9444 0H9.05556C4.33044 0 0.5 3.83044 0.5 8.55556V35.4444C0.5 40.1696 4.33044 44 9.05556 44Z" fill="#3DCA4F"/>
<path d="M36.4944 30.6057L30.8575 26.8767C30.1694 26.4599 29.309 26.4526 28.6135 26.8559C28.6135 26.8559 28.6135 26.8559 26.196 28.2651C25.8721 28.4534 25.5604 28.4888 25.3086 28.4424C24.9884 28.3837 24.7684 28.2089 24.7537 28.1967C23.4252 27.2226 21.873 25.9331 20.2181 24.2795C18.5644 22.6258 17.275 21.0736 16.3009 19.7438C16.2899 19.7279 16.1139 19.5079 16.0552 19.1889C16.01 18.9372 16.0442 18.6267 16.2324 18.3016C17.6416 15.884 17.6416 15.884 17.6416 15.884C18.0462 15.1886 18.0376 14.3269 17.6209 13.64L13.8919 8.00315C13.4299 7.30526 12.4851 7.12071 11.797 7.59737C11.797 7.59737 10.0309 8.80615 9.44786 9.21682C8.51408 9.87437 8.21341 10.8742 8.21219 12.2675C8.20975 14.2279 9.89886 20.3696 17.0134 27.4841C24.1292 34.5999 30.2696 36.2878 32.2301 36.2854C33.6234 36.2841 34.6232 35.9823 35.2807 35.0497C35.6914 34.4667 36.9002 32.7006 36.9002 32.7006C37.3769 32.0125 37.1935 31.0677 36.4944 30.6057Z" fill="white"/>
</svg>
