<svg xmlns="http://www.w3.org/2000/svg" width="138" height="88" viewBox="0 0 138 88" fill="none">
  <path d="M41.7121 53.5275C41.1589 53.1283 41.1589 52.3047 41.7121 51.9056L51.5293 44.8218C51.8791 44.5695 52.3513 44.5698 52.7007 44.8226L79.5903 64.2793C80.2515 64.7578 81.1765 64.2853 81.1765 63.4691L81.1765 12.7148C81.1765 12.1625 80.7287 11.7148 80.1765 11.7148L0.999996 11.7148C0.447711 11.7148 -4.63996e-06 11.2671 -4.67342e-06 10.7148L-5.26193e-06 1.00006C-5.29538e-06 0.447775 0.44771 6.1021e-05 0.999995 6.10036e-05L96.4118 5.79943e-05C96.964 5.79769e-05 97.4118 0.447773 97.4118 1.00006L97.4118 63.4691C97.4118 64.2853 98.3367 64.7578 98.998 64.2793L125.888 44.8226C126.237 44.5698 126.709 44.5695 127.059 44.8218L136.876 51.9056C137.429 52.3047 137.429 53.1283 136.876 53.5275L89.8793 87.4386C89.5299 87.6907 89.0583 87.6907 88.709 87.4386L41.7121 53.5275Z" fill="white" fill-opacity="0.9"/>
</svg>