<svg width="29" height="29" viewBox="0 0 29 29" fill="none" xmlns="http://www.w3.org/2000/svg">
<path d="M5.8 24.6501C9.00325 24.6501 11.6 22.0533 11.6 18.85C11.6 15.6468 9.00325 13.05 5.8 13.05C2.59675 13.05 0 15.6468 0 18.85C0 22.0533 2.59675 24.6501 5.8 24.6501Z" fill="#252525"/>
<path d="M19.575 29C21.577 29 23.2 27.377 23.2 25.375C23.2 23.373 21.577 21.75 19.575 21.75C17.5729 21.75 15.95 23.373 15.95 25.375C15.95 27.377 17.5729 29 19.575 29Z" fill="#252525"/>
<path d="M20.3 17.4C25.1049 17.4 29 13.5049 29 8.7C29 3.89512 25.1049 0 20.3 0C15.4951 0 11.6 3.89512 11.6 8.7C11.6 13.5049 15.4951 17.4 20.3 17.4Z" fill="#252525"/>
</svg>
