<svg width="30" height="30" viewBox="0 0 30 30" fill="none" xmlns="http://www.w3.org/2000/svg">
<path d="M9.99995 18.9286C10.9862 18.9286 11.7857 18.1291 11.7857 17.1429C11.7857 16.1567 10.9862 15.3572 9.99995 15.3572C9.01372 15.3572 8.21423 16.1567 8.21423 17.1429C8.21423 18.1291 9.01372 18.9286 9.99995 18.9286Z" fill="black"/>
<path d="M26.8143 10.8285L25.5 13.6999C25.6286 14.357 25.7143 15.0285 25.7143 15.7142C25.7143 22.0142 20.5857 27.1428 14.2857 27.1428C7.98571 27.1428 2.85714 22.0142 2.85714 15.7142C2.85714 15.6428 2.87143 15.5713 2.85714 15.5142C6.57143 14.1142 9.55714 11.2428 11.0571 7.58561C13.6857 10.7999 17.6714 12.857 22.1429 12.857C22.7857 12.857 23.4143 12.7999 24.0429 12.7142L23.1857 10.8285L21.9286 8.07132L19.1714 6.81418L15.1857 4.9999L19.1714 3.18561L20.1857 2.72847C18.3857 1.8999 16.3857 1.42847 14.2857 1.42847C6.4 1.42847 0 7.82847 0 15.7142C0 23.5999 6.4 29.9999 14.2857 29.9999C22.1714 29.9999 28.5714 23.5999 28.5714 15.7142C28.5714 13.6142 28.1 11.6142 27.2857 9.81418L26.8143 10.8285Z" fill="black"/>
<path d="M18.5715 18.9286C19.5577 18.9286 20.3572 18.1291 20.3572 17.1429C20.3572 16.1567 19.5577 15.3572 18.5715 15.3572C17.5853 15.3572 16.7858 16.1567 16.7858 17.1429C16.7858 18.1291 17.5853 18.9286 18.5715 18.9286Z" fill="black"/>
<path d="M26.5714 6.57143L25 10L23.4286 6.57143L20 5L23.4286 3.42857L25 0L26.5714 3.42857L30 5L26.5714 6.57143Z" fill="black"/>
</svg>
