<svg width="324" height="468" viewBox="0 0 324 468" fill="none" xmlns="http://www.w3.org/2000/svg">
<path d="M242.043 194.912C239.618 196.942 237.533 196.591 235.679 199.927C230.6 209.034 225.608 218.184 220.693 227.368C220.495 227.741 220.33 228.125 220.199 228.509L211.926 241.555C206.54 249.302 200.582 255.205 194.032 259.275C186.254 264.114 180.241 268.152 176.006 271.389C175.184 272.014 174.262 273.254 173.22 275.108C171.782 276.633 170.268 278.257 169.281 280.144C168.403 281.812 167.515 283.436 166.626 285.016C164.212 289.262 162.599 294.386 161.228 298.995C160.723 300.695 160.471 300.652 160.482 298.885C160.493 295.001 159.966 291.15 160.361 287.189C161.096 279.815 161.349 272.53 161.096 265.343C162.248 263.5 163.28 261.612 164.168 259.681C165.496 256.818 166.439 254.897 167.021 253.921C171.651 246.164 177.246 239.141 183.807 232.876C186.21 230.583 192.079 225.755 201.438 218.415C208.098 213.181 214.263 206.477 219.936 198.303C221.724 198.423 224.313 197.776 227.714 196.372C231.324 194.89 236.096 194.408 242.043 194.912Z" fill="#DE6578"/>
<path d="M93.0524 133.994C92.5477 134.752 92.449 135.585 92.7562 136.474C92.8769 136.847 93.1292 136.979 93.5132 136.88C94.3799 136.65 94.9395 136.068 95.2028 135.125C95.894 135.048 96.64 134.784 97.4409 134.313C97.7481 134.126 97.9017 134.214 97.9017 134.576C97.8907 135.531 97.803 136.441 97.6603 137.297C97.4299 138.647 97.7481 140.172 98.6368 141.873C98.7356 143.529 99.2073 145.219 100.063 146.942C103.914 154.688 108.687 161.974 114.37 168.798C116.158 170.324 118.243 171.037 120.601 170.949C122.697 170.872 124.134 170.982 124.891 171.256C126.69 171.903 128.567 172.957 130.53 174.405C136.082 184.401 141.118 194.989 145.627 206.159C146.472 208.254 147.733 210.065 149.412 211.568C146.856 226.04 145.429 235.488 145.111 239.909C144.639 246.624 144.223 253.295 143.86 259.923C142.95 260.757 142.489 261.569 142.478 262.348C142.445 263.763 142.182 263.807 141.677 262.49C139.483 256.84 136.433 251.046 132.527 245.099C124.562 232.997 113.646 225.634 99.4267 223.243C95.0931 222.518 90.4632 222.299 85.5371 222.595C85.4603 222.595 85.4273 222.628 85.4273 222.705L85.4383 222.979C85.4493 223.188 85.548 223.286 85.7565 223.286C93.7217 223.221 101.16 224.669 108.061 227.62C119.822 232.657 126.965 241.906 129.806 254.129C130.53 257.245 131.276 260.329 132.044 263.379C133.295 268.382 135.259 273.232 136.971 278.049C137.124 278.466 136.982 278.619 136.554 278.499C136.016 278.356 135.402 278.038 134.732 277.555C132.45 276.326 130.75 274.944 129.62 273.418C127.074 269.973 124.529 266.583 122.39 262.885C116.75 253.12 110.519 243.212 102.883 235.389C95.6307 227.972 87.0182 223.89 76.9355 223.33C73.1504 223.122 69.2995 222.134 65.3937 220.346C61.4002 218.535 58.2843 215.321 56.0462 210.701C55.0478 208.639 54.4554 205.928 54.2798 202.56C54.1152 199.422 54.0494 196.602 54.0823 194.1C54.203 184.083 54.8613 172.979 56.0352 160.8C57.5164 148.972 61.6087 138.131 68.3121 128.278C74.7742 118.787 82.871 110.569 90.4961 101.999C91.9004 100.419 93.6229 100.046 95.6526 100.891C96.0037 101.034 96.2231 101.297 96.3109 101.67C96.5522 102.735 96.5522 103.799 96.2999 104.874C94.8517 111.139 93.7546 117.448 93.0085 123.79C92.9207 124.482 93.3267 125.557 93.195 126.062C92.4599 128.772 92.4051 131.416 93.0524 133.994Z" fill="#1CBCC2"/>
<path d="M152.945 216.626C152.956 216.966 153.351 217.032 154.13 216.813C154.733 216.648 155.106 216.758 155.249 217.153C153.899 231.483 153.318 245.308 153.504 258.628L151.902 288.834C151.881 289.262 151.518 289.592 151.091 289.581C150.026 289.548 149.105 290.096 148.337 291.226L147.931 274.143C147.503 254.777 149.171 235.608 152.945 216.626Z" fill="#1CBCC2"/>
<path d="M196.446 2.22907C202.469 4.77462 207.297 8.92212 210.939 14.6606C215.843 22.396 218.904 30.8336 220.133 39.9735C220.627 43.6931 221.12 47.4346 221.592 51.1871C221.658 51.6809 221.91 52.021 222.338 52.1966C221.976 52.3392 221.79 52.5586 221.801 52.833C221.899 55.6199 221.932 58.4068 221.877 61.2048C221.801 66.1642 220.627 71.6942 220.21 77.0267C218.619 82.4799 217.522 86.0239 216.918 87.6807C212.683 99.2455 201.844 108.967 190.609 114.936C190.368 115.056 190.379 115.419 190.631 115.517C197.795 118.436 204.214 120.641 209.886 122.123C214.746 123.384 220.166 123.275 226.134 121.793C228.098 121.3 229.886 121.464 231.499 122.265C231.785 122.408 232.125 122.342 232.322 122.101C234.165 119.939 234.648 116.746 235.614 114.113C236.096 112.785 236.381 111.381 236.458 109.899C236.579 107.42 236.919 104.852 237.49 102.197C237.632 101.528 237.062 100.924 236.382 101.034C236.107 101.078 235.822 101.188 235.548 101.363C235.076 101.659 234.999 101.572 235.317 101.111L235.515 100.814L237.073 99.5746C237.786 99.015 238.115 99.1796 238.071 100.079L237.599 111.677C236.798 114.047 236.019 116.384 235.284 118.688C234.451 121.289 232.542 124.591 229.568 128.596C222.942 137.506 216.809 146.656 209.732 155.226C208.481 152.439 206.507 150.617 203.819 149.773C201.943 149.191 200.692 148.708 200.045 148.346C198.805 147.633 197.609 146.931 196.479 146.218C196.095 145.987 195.755 146.042 195.481 146.393L195.261 146.667C194.921 147.095 194.515 147.172 194.043 146.887C193.319 146.448 192.847 146.141 191.981 146.031C186.396 145.318 181.679 142.641 177.85 138.01C176.303 136.134 173.659 135.476 171.377 135.114C170.663 135.004 170.214 134.291 170.422 133.599L173.527 123.406C173.637 123.033 173.834 122.715 174.13 122.452C176.16 120.608 177.685 118.633 178.683 116.538C190.456 102.438 199.408 86.7042 205.53 69.3571C206.09 67.7552 206.781 66.3178 207.593 65.045C210.182 60.9634 215.766 58.9884 220.045 61.2706C220.539 61.523 220.769 61.3803 220.747 60.8317C220.627 56.9475 220.44 53.0963 220.21 49.267C220.133 48.1478 220.001 47.0506 219.815 45.9753C219.617 44.8561 219.519 43.7589 219.519 42.6836C219.53 40.983 219.376 39.3591 219.036 37.801C218.509 35.3761 218.037 33.0171 217.621 30.7239C217.588 30.5703 217.5 30.4606 217.346 30.3948C217.215 30.3399 217.116 30.2302 217.072 30.0875C216.161 27.1031 215.086 24.1735 213.857 21.2988C213.473 20.41 213.002 19.5213 212.42 18.6106C211.926 17.8316 211.444 16.9428 210.972 15.9553C210.38 14.7264 208.909 12.8831 206.551 10.4363C203.895 7.37504 200.527 4.63198 196.446 2.22907Z" fill="#5A59A3"/>
<path d="M235.646 72.6378C237.764 81.8435 236.864 90.4677 232.947 98.5323L227.352 104.337C228.197 102.307 229.437 100.507 231.06 98.9382C232.278 97.7642 233.09 96.6231 233.485 95.5368C235.12 91.0053 235.844 86.2763 235.635 81.3717C235.581 80.2306 234.791 79.3528 233.266 78.7274C234.626 76.4342 235.021 75.0188 234.451 74.4592C234.736 74.4482 235.131 73.8338 235.646 72.6378Z" fill="#5A59A3"/>
<path d="M300.739 224.482C302.988 224.724 302.703 225.81 299.883 227.73C295.33 230.835 290.843 233.973 286.411 237.122C282.834 239.657 278.917 242.641 274.671 246.065C271.193 248.874 267.222 251.792 262.735 254.81C261.791 255.446 260.815 255.83 259.816 255.973C259.213 256.049 259.158 255.907 259.652 255.545L266.487 250.541C267.068 250.113 266.827 249.203 266.114 249.115L265.401 249.027L281.057 237.452C281.814 237.364 282.318 237.221 282.582 237.024C288.55 232.624 294.606 228.443 300.739 224.482Z" fill="#F48225"/>
<path d="M298.951 257.761C300.553 259.517 302.495 261.064 304.777 262.402C305.545 262.852 306.214 263.401 306.773 264.07C307.377 264.794 307.98 265.442 308.573 266.023C307.048 271.202 305.073 275.953 302.637 280.287C300.805 281.308 299.159 282.635 297.7 284.27C296.12 286.058 294.694 287.573 293.41 288.813C287.387 294.65 279.894 298.742 271.709 302.023C271.007 302.297 271.029 302.495 271.775 302.616C273.432 302.868 275.022 302.89 276.547 302.703C276.778 302.681 276.953 302.506 276.986 302.275C277.008 302.144 277.063 302.034 277.162 301.946C277.381 301.749 277.601 301.749 277.831 301.935C277.952 302.045 278.018 302.188 278.029 302.352C277.71 302.824 277.645 303.219 277.809 303.559C280.146 308.288 279.543 312.359 275.988 315.771C272.773 318.844 269.252 320.72 265.423 321.389C262.8 321.85 259.103 321.993 254.32 321.828C247.046 319.809 239.826 317.604 232.684 315.212C232.542 315.157 232.443 315.212 232.388 315.354V315.365C232.333 315.508 232.388 315.607 232.531 315.662C240.024 318.108 247.199 321.312 254.034 325.251C256.097 326.667 258.203 328.192 260.365 329.805C264.073 332.581 264.479 335.697 261.583 339.164C261.374 339.416 261.1 339.537 260.76 339.515C260.464 339.493 260.244 339.285 260.123 338.89C260.069 338.703 260.079 338.495 260.167 338.308C261.736 335.137 260.946 332.712 257.786 331.012C257.512 330.869 257.249 330.924 256.997 331.187C256.634 330.726 256.196 330.386 255.68 330.178C255.296 330.024 255.142 330.156 255.197 330.562C255.296 331.264 255.581 331.791 256.042 332.131C255.472 334.863 255.011 336.564 254.649 337.211C253.464 339.362 251.171 340.985 247.77 342.083L239.728 342.017C238.236 341.797 236.908 341.216 235.756 340.261C235.504 340.053 235.251 340.075 235.021 340.305L234.802 340.514C234.527 340.788 234.22 340.843 233.858 340.7L226.771 337.935L217.774 333.875C216.6 333.448 215.459 332.866 214.34 332.131C206.112 326.678 198.969 329.333 190.379 333.173C190.061 333.316 189.962 333.546 190.072 333.865L190.17 334.15C190.258 334.391 190.532 334.49 190.763 334.369C193.33 332.943 196.172 332.263 199.298 332.328C207.735 332.504 215.328 335.236 222.075 340.514C223.633 341.732 225.004 343.235 226.189 345.023C226.507 345.484 226.42 346.109 226.003 346.472C221.186 350.729 216.611 348.315 211.137 347.876C210.785 347.843 210.478 347.722 210.204 347.514C209.908 347.273 209.579 347.097 209.228 346.987C208.723 346.823 208.24 346.57 207.779 346.23C205.135 344.233 202.261 343.312 199.156 343.476C198.245 343.454 197.609 343.652 197.247 344.058C196.929 343.432 195.952 343.52 194.296 344.299C192.562 343.772 190.653 345.012 188.558 348.03C187.548 347.305 186.462 346.779 185.299 346.45C177.52 345.758 172.068 348.436 168.941 354.503C165.891 359.002 164.048 363.226 163.422 367.187C162.808 371.049 161.612 374.955 161.349 378.631C160.219 394.124 161.842 409.342 166.209 424.276C165.803 424.276 165.452 424.363 165.156 424.539C164.816 424.725 164.706 425.011 164.805 425.384C166.626 432 169.347 438.221 172.956 444.069C173.45 444.87 174.086 445.211 174.865 445.09L174.558 445.386C174.372 445.573 174.339 445.77 174.481 445.99L178.76 453.078C178.267 453.275 177.926 453.242 177.751 452.979L168.612 441.359C168.831 441.019 168.831 440.8 168.623 440.723C162.764 430.299 159.198 420.051 157.937 409.968C156.115 395.55 155.227 384.282 157.048 370.435L159.988 350.487C162.49 350.915 164.882 351.266 167.164 351.541C167.701 351.617 168.074 351.859 168.272 352.265C168.425 352.605 168.886 352.638 169.105 352.342C169.489 351.804 169.621 351.464 169.478 351.321C174.558 344.354 179.901 337.617 185.486 331.11C193.264 322.047 202.436 315.354 213.002 311.031C217.302 309.265 222.404 307.827 228.318 306.719C233.748 305.699 239.048 304.997 244.237 304.613C245.466 304.525 246.684 304.36 247.901 304.13C248.615 303.998 248.604 303.932 247.879 303.932C246.289 303.943 244.522 304.02 242.558 304.174C234.791 304.755 227.023 306.017 219.266 307.948C220.287 306.204 222.163 305.183 224.873 304.876C226.31 304.711 226.891 304.086 227.769 303.098C228.01 302.824 228.318 302.616 228.658 302.484C241.066 297.788 251.906 290.173 262.866 282.624C265.313 280.945 267.979 280.375 270.425 278.872C271.621 278.126 273.004 277.687 274.551 277.544C277.239 277.292 280.486 276.216 284.271 274.34C287.003 272.98 288.1 271.312 287.563 269.348C292.291 266.001 296.087 262.139 298.951 257.761Z" fill="#F48225"/>
<path d="M144.716 346.439C144.025 354.942 143.498 363.5 143.136 372.125C142.665 383.064 143.509 393.883 145.66 404.602C146.505 408.827 147.415 412.93 148.37 416.913C147.437 417.144 146.735 417.725 146.241 418.669C145.835 419.459 145.671 420.304 145.748 421.203C145.912 423.069 145.32 424.385 145.857 426.305C146.823 429.707 147.448 433.163 147.722 436.674C140.997 421.017 137.618 404.734 137.563 387.837C137.563 387.398 137.387 387.146 137.278 386.74C137.245 386.597 137.234 386.443 137.256 386.301C137.519 384.567 137.563 382.855 137.398 381.177C137.365 380.815 137.245 380.474 137.047 380.178C135.961 378.565 136.115 377.194 137.519 376.064C139.593 368.811 140.525 361.503 140.295 354.141L141.216 346.318C141.798 345.034 142.961 345.067 144.716 346.439Z" fill="#F48225"/>
<path d="M222.338 52.1966L224.192 52.2734C223.951 54.0399 223.721 55.8174 223.512 57.5839C223.38 58.747 223.337 60.5245 223.391 62.9164C223.49 67.843 222.437 72.5391 220.21 77.0267C220.627 71.6942 221.801 66.1642 221.877 61.2048C221.932 58.4068 221.899 55.6199 221.801 52.833C221.79 52.5586 221.976 52.3392 222.338 52.1966Z" fill="#F2EDE7"/>
<path d="M143.323 56.2124C143.345 57.2657 142.763 58.5385 141.578 60.0198C141.633 58.5495 141.688 57.5291 141.721 56.9585C141.776 56.2234 142.314 55.971 143.323 56.2124Z" fill="#F2EDE7"/>
<path d="M231.225 70.0923L231.982 70.8384C231.817 71.4418 231.488 71.8368 230.995 72.0453C230.589 72.2099 230.402 72.0782 230.435 71.6503C230.479 71.0249 230.742 70.4982 231.225 70.0923Z" fill="#F2EDE7"/>
<path d="M234.451 74.4592C235.021 75.0188 234.626 76.4342 233.266 78.7274L231.291 83.7417C231.017 84.4549 230.929 84.433 231.027 83.6759C231.214 82.2824 231.73 80.9438 232.585 79.6381C232.783 79.3199 232.915 78.9798 232.969 78.6177C233.178 77.2242 233.672 75.8417 234.451 74.4592Z" fill="#F2EDE7"/>
<path d="M232.947 98.5323C234.121 99.2455 234.845 100.035 235.12 100.891L226.452 106.531C226.047 106.783 225.893 106.685 225.981 106.213C226.101 105.511 226.562 104.885 227.352 104.337L232.947 98.5323Z" fill="#F2EDE7"/>
<path d="M93.0524 133.994L95.2028 135.125C94.9395 136.068 94.3799 136.65 93.5132 136.88C93.1292 136.979 92.8769 136.847 92.7562 136.474C92.449 135.585 92.5477 134.752 93.0524 133.994Z" fill="#F2EDE7"/>
<path d="M47.0607 155.785L47.6312 160.021C47.6861 160.811 47.5764 161.579 47.2801 162.336C47.0497 162.928 46.2488 163.016 45.9087 162.478C44.5593 160.361 44.9432 158.133 47.0607 155.785Z" fill="#F2EDE7"/>
<path d="M219.936 198.303C214.263 206.477 208.098 213.181 201.438 218.415C192.079 225.755 186.21 230.583 183.807 232.876C177.246 239.141 171.651 246.164 167.021 253.921C166.439 254.897 165.496 256.818 164.168 259.681C163.28 261.612 162.248 263.5 161.096 265.343C160.603 259.177 161.173 253.252 162.83 247.568C167.12 233.567 177.762 224.153 189.348 215.913C194.998 211.886 201.284 207.223 208.185 201.902C216.907 195.176 224.302 187.243 230.369 178.092C230.391 178.059 230.424 178.048 230.468 178.07L230.698 178.213C230.929 178.355 230.984 178.531 230.852 178.761L219.936 198.303Z" fill="#F2EDE7"/>
<path d="M273.695 190.172L277.447 194.002C271.939 199.806 265.609 204.118 258.456 206.927C257.315 207.377 257.172 207.168 258.028 206.279L273.695 190.172Z" fill="#F2EDE7"/>
<path d="M276.953 200.629C278.039 201.133 278.16 201.66 277.315 202.209C275.428 204.348 274.2 205.654 273.618 206.115C266.849 211.48 259.202 213.28 250.688 211.535C257.018 210.471 262.559 208.836 267.288 206.62C270.349 205.182 273.563 203.185 276.953 200.629Z" fill="#F2EDE7"/>
<path d="M5.35879 255.194C6.18164 256.006 6.82894 257.015 7.31168 258.211C7.45431 258.584 7.34459 258.694 6.98254 258.551C6.08289 258.189 5.32587 257.575 4.71148 256.708L5.35879 255.194Z" fill="#F2EDE7"/>
<path d="M23.1652 298.073C23.7686 298.523 24.1087 298.907 24.1746 299.203C25.7654 301.453 25.9958 303.098 24.8658 304.152C24.3721 304.613 23.626 304.634 23.0994 304.229C21.4976 302.978 20.6418 301.749 20.5321 300.542L23.1652 298.073Z" fill="#F2EDE7"/>
<path d="M254.32 321.828L254.034 325.251C247.199 321.312 240.024 318.108 232.531 315.662C232.388 315.607 232.333 315.508 232.388 315.365V315.354C232.443 315.212 232.542 315.157 232.684 315.212C239.826 317.604 247.046 319.809 254.32 321.828Z" fill="#F2EDE7"/>
<path d="M59.2169 329.322C60.314 329.19 61.2466 329.322 62.0036 329.706C61.85 330.562 60.8736 331.143 59.0633 331.462L58.6683 329.662C58.8549 329.498 59.0304 329.388 59.2169 329.322Z" fill="#F2EDE7"/>
<path d="M226.771 337.935C226.65 339.098 226.123 339.965 225.18 340.536L217.774 333.875L226.771 337.935Z" fill="#F2EDE7"/>
<path d="M247.77 342.083C247.912 342.467 247.956 342.807 247.923 343.092C247.857 343.476 247.627 343.663 247.232 343.652C244.632 343.553 242.13 343.015 239.728 342.017L247.77 342.083Z" fill="#F2EDE7"/>
<path d="M177.751 452.979C177.926 453.242 178.267 453.275 178.76 453.078L182.271 457.357C182.458 457.576 182.315 457.905 182.03 457.938L181.207 458.015C180.856 458.037 180.527 457.873 180.351 457.565L177.751 452.979Z" fill="#F2EDE7"/>
<path d="M196.446 2.22907C200.527 4.63198 203.895 7.37504 206.551 10.4363C206.518 11.347 206.32 12.115 205.969 12.7295C205.113 14.2217 204.663 15.2641 204.29 16.8111C203.226 21.1342 201.965 25.2927 200.494 29.2866C199.628 31.6456 197.609 32.8635 198.026 35.6834C198.311 37.5596 198.289 39.4907 197.971 41.4767C197.653 43.3749 197.499 45.6352 197.499 48.2685C197.477 57.6278 197.093 65.9009 196.336 73.0657C195.338 82.6225 192.244 92.2342 187.066 101.912C185.65 104.567 182.414 109.044 177.378 115.331C177.115 115.649 176.983 116.055 177.016 116.472L177.082 117.624L173.297 122.199C173.154 121.541 172.627 121.782 171.717 122.913C171.706 121.969 171.793 119.731 171.969 116.187C172.276 109.987 170.773 103.92 167.471 97.9837C167.657 97.9507 167.822 97.8959 167.943 97.841C168.195 97.7203 168.261 97.5228 168.14 97.2595C166.099 93.0571 165.178 88.8548 165.375 84.6743C165.671 78.3543 167.284 72.9231 170.214 68.3806C170.96 67.2285 172.561 66.9981 173.593 67.9088C175.677 69.7411 176.698 72.0014 176.654 74.6677C176.621 76.4891 175.71 78.2666 175.304 80.0221C175.151 80.6914 175.293 80.7573 175.743 80.2416C179.309 76.0392 179.605 69.8948 177.586 64.8695C176.259 61.5778 172.583 62.697 170.17 64.1673C171.058 62.5763 171.771 61.0731 172.309 59.6577C172.956 57.946 173.604 56.4099 174.273 55.0493C177.773 47.9393 180.472 40.4892 182.37 32.688C182.534 32.0186 182.425 31.47 182.03 31.0421C181.755 30.7459 181.503 30.7678 181.273 31.086C180.274 32.4466 179.144 33.5109 177.872 34.268C183.697 26.6532 187.296 18.2156 188.678 8.94407C188.996 6.79351 188.722 3.60059 189.446 1.1867C189.742 0.221149 190.807 -0.261629 191.717 0.144343L196.446 2.22907Z" fill="#4D91CF"/>
<path d="M147.547 55.8942C147.295 56.1466 146.998 56.1575 146.647 55.9052C146.329 55.6748 146.219 55.3895 146.329 55.0603C146.461 54.5995 146.636 54.2923 146.845 54.1277C147.251 53.8095 147.47 53.9082 147.481 54.4239L147.547 55.8942Z" fill="#4D91CF"/>
<path d="M146.976 101.177C147.733 96.0087 149.127 91.2248 151.178 86.8249C151.453 85.8593 151.639 85.3437 151.716 85.2668C152.758 84.2793 153.011 84.4439 152.451 85.7716C150.377 90.72 148.545 95.855 146.976 101.177Z" fill="#4D91CF"/>
<path d="M136.137 98.8834C136.071 98.8834 136.005 98.8834 135.95 98.8834L135.171 88.6792C135.16 88.6573 135.171 88.6463 135.193 88.6463L135.478 88.6353C135.665 88.6353 135.764 88.7231 135.775 88.9096L136.137 98.8834Z" fill="#4D91CF"/>
<path d="M137.19 105.807C137.201 105.949 137.355 105.939 137.64 105.785C138.002 106.586 138.188 107.475 138.221 108.462C138.057 108.352 137.848 108.374 137.618 108.517L137.19 105.807Z" fill="#4D91CF"/>
<path d="M118.923 150.969C118.681 150.958 118.484 150.979 118.33 151.034C116.761 148.028 115.555 144.879 114.732 141.587C114.688 141.423 114.754 141.313 114.918 141.269L114.929 141.258C115.094 141.214 115.203 141.28 115.247 141.445C116.18 144.725 117.398 147.907 118.923 150.969Z" fill="#4D91CF"/>
<path d="M56.0352 160.8C54.8613 172.979 54.203 184.083 54.0823 194.1C54.0494 196.602 54.1152 199.422 54.2798 202.56C54.4554 205.928 55.0478 208.639 56.0462 210.701C58.2843 215.321 61.4002 218.535 65.3937 220.346C69.2995 222.134 73.1504 223.122 76.9355 223.33C87.0182 223.89 95.6307 227.972 102.883 235.389C110.519 243.212 116.75 253.12 122.39 262.885C124.529 266.583 127.074 269.973 129.62 273.418C130.75 274.944 132.45 276.326 134.732 277.555C133.46 279.058 132.264 280.627 131.134 282.251C130.333 283.403 129.971 284.369 130.026 285.159C130.168 287.013 130.684 290.217 131.595 294.77C132.022 296.877 131.671 298.852 130.552 300.695C122.379 288.703 113.404 279.409 102.992 269.918C93.7875 261.536 81.8836 253.614 73.7758 245.505C71.6803 243.409 69.5738 241.226 67.4344 238.933C64.9988 236.321 63.0569 233.82 61.6087 231.439C58.8768 226.951 56.7703 222.025 55.3111 216.67C54.8064 214.081 54.3237 211.414 53.8739 208.671C52.1514 198.27 52.9194 187.001 53.9178 175.996C54.4554 170.005 55.1685 164.936 56.0352 160.8Z" fill="#0CA197"/>
<path d="M95.905 273.737C97.8908 276.14 99.8656 278.652 101.829 281.275C102.608 282.317 103.585 282.899 104.463 283.798C104.726 284.062 104.879 284.38 104.912 284.753C105.252 288.9 106.81 293.86 104.287 297.689C103.343 299.115 102.597 300.619 102.038 302.188C101.906 302.55 101.687 302.835 101.38 303.065C100.513 303.691 99.9863 304.218 99.7998 304.634C97.9456 308.552 95.9379 312.403 93.7765 316.188C89.9036 313.566 84.6155 310.34 77.923 306.5C66.2934 299.818 54.6858 293.081 43.111 286.3C34.9264 281.505 27.5647 276.304 21.0148 270.675C19.2814 269.172 17.2846 267.066 15.0355 264.333C16.6044 264.509 18.0636 265.453 19.413 267.175C19.6763 267.504 20.1591 267.537 20.4663 267.252C21.6621 266.1 22.7483 264.893 23.7357 263.62C24.767 262.293 26.4676 262.007 27.7293 260.822C30.505 258.211 33.3246 256.477 36.1881 255.611C39.0078 254.766 42.0468 253.932 45.3272 253.098C48.6515 252.264 50.769 248.292 54.5541 250.3C62.2889 254.415 70.5393 258.836 79.3054 263.543C81.6861 264.827 83.1892 266.835 83.8146 269.578C85.5919 277.423 86.0417 286.048 85.1531 295.451C85.0653 296.383 85.2189 296.427 85.6248 295.582C86.1295 294.518 86.5025 293.41 86.7439 292.269C88.1482 285.466 88.2799 278.389 87.1498 271.049C86.9963 270.061 86.4477 269.282 86.2721 268.635C85.6248 266.243 86.2392 265.892 88.0934 267.57C90.2547 269.534 92.8659 271.597 95.905 273.737Z" fill="#0CA197"/>
<path d="M96.1353 323.463C91.297 325.833 86.2941 327.106 81.1047 327.27C80.5232 327.292 79.5467 327.599 78.1644 328.181C75.9591 329.103 73.8197 328.938 71.7352 329.904C69.3325 331.023 66.4251 330.715 63.8468 331.067C62.9472 331.198 62.8155 330.935 63.4518 330.288L63.6493 330.079C63.8907 329.838 63.8468 329.662 63.5177 329.563C63.1117 329.432 62.8374 329.574 62.6948 329.98C62.618 330.211 62.3218 330.266 62.1682 330.09C62.0914 330.002 62.0365 329.871 62.0036 329.706C61.2466 329.322 60.314 329.19 59.2169 329.322C59.2498 329.07 59.1511 328.938 58.9097 328.938C55.3221 328.993 51.2298 329.377 47.7738 328.247C45.788 327.599 43.7474 328.027 41.7725 327.303C38.3714 326.063 34.9813 324.571 31.5912 322.837C30.5489 322.3 30.5489 320.808 31.5912 320.281C33.2039 319.469 34.3998 318.459 35.5299 317.022C36.4844 315.793 37.4937 314.74 38.5579 313.851C42.76 311.382 46.4463 310.011 49.617 309.715C61.9158 308.563 73.7758 310.263 85.197 314.817C88.0385 315.958 87.9398 316.627 84.8788 316.825C80.8304 317.088 76.6064 316.748 72.2289 315.804C68.7071 315.047 65.3389 314.488 62.1462 314.125C62.1024 314.115 62.0695 314.147 62.0695 314.191L62.0585 314.488C62.0475 314.685 62.1353 314.784 62.3328 314.784C63.5725 314.784 64.8013 315.003 66.0191 315.431C69.0911 316.517 72.4373 316.89 75.6739 317.593C76.4748 317.768 78.4715 318.152 81.6752 318.756C86.5903 319.666 91.4067 321.235 96.1353 323.463Z" fill="#0CA197"/>
<path d="M6.98254 195.527C7.89316 197.107 8.15647 198.829 7.77247 200.695C6.36815 207.41 4.79925 214.168 3.05481 220.971C0.630151 230.473 0.432669 240.798 4.31651 249.872C5.24907 252.056 6.87283 254.557 9.18777 257.377C11.1845 259.802 13.1374 262.128 15.0355 264.333C17.2846 267.066 19.2814 269.172 21.0148 270.675C27.5647 276.304 34.9264 281.505 43.111 286.3C54.6858 293.081 66.2934 299.818 77.923 306.5C84.6155 310.34 89.9036 313.566 93.7765 316.188C100.184 320.742 106.415 325.613 112.461 330.825C113.218 331.483 113.349 332.153 113.986 332.877C114.359 333.854 114.106 334.369 113.218 334.424C112.768 334.457 111.956 334.314 110.804 334.007L110.003 333.448C106.843 331.209 103.859 328.773 101.04 326.151C100.37 325.526 98.7355 324.626 96.1353 323.463C91.4067 321.235 86.5903 319.666 81.6752 318.756C78.4715 318.152 76.4748 317.768 75.6739 317.593C72.4373 316.89 69.0911 316.517 66.0191 315.431C64.8013 315.003 63.5725 314.784 62.3328 314.784C62.1353 314.784 62.0475 314.685 62.0585 314.488L62.0695 314.191C62.0695 314.147 62.1024 314.115 62.1462 314.125C65.3389 314.488 68.7071 315.047 72.2289 315.804C76.6064 316.748 80.8304 317.088 84.8788 316.825C87.9398 316.627 88.0385 315.958 85.197 314.817C73.7758 310.263 61.9158 308.563 49.617 309.715C46.4463 310.011 42.76 311.382 38.5579 313.851L36.9781 308.486C36.8903 308.168 36.9781 307.926 37.2524 307.762L41.6738 304.975C42.1894 304.645 42.1456 304.448 41.5421 304.371C41.1472 304.327 40.829 304.481 40.5767 304.843C40.434 305.04 40.2256 305.194 39.9952 305.26C36.8793 306.16 33.7964 305.83 30.7464 304.261C28.4205 303.065 28.5411 302.692 31.1194 303.142C36.7148 304.119 41.7506 303.79 46.2379 302.144C47.6312 301.628 49.0026 301.189 50.3411 300.816C52.8097 300.125 52.7658 299.763 50.1985 299.708L24.1746 299.203C24.1087 298.907 23.7686 298.523 23.1652 298.073C21.4866 296.241 19.7422 294.463 17.9319 292.741C15.8364 290.733 14.1907 288.878 12.9948 287.156C8.04676 279.991 4.00932 272.31 0.893472 264.136C0.0486822 261.887 -1.13622 256.894 2.38557 256.949C3.5595 256.971 4.33845 256.894 4.71148 256.708C5.32587 257.575 6.08289 258.189 6.98254 258.551C7.34459 258.694 7.45431 258.584 7.31168 258.211C6.82894 257.015 6.18164 256.006 5.35879 255.194C3.50464 250.783 1.35426 246.174 0.717928 241.544C-0.0829775 235.685 0.0706247 230.023 1.16775 224.548C2.00157 220.39 3.35104 214.695 5.22713 207.453C6.23649 203.536 6.44494 199.608 6.98254 195.527Z" fill="#0C4C5A"/>
<path d="M12.8193 202.703C14.0481 207.739 14.9587 210.91 15.5511 212.204C19.0949 219.874 24.3611 226.282 31.3717 231.417C30.494 231.724 29.5834 231.483 28.6289 230.704C27.3672 229.683 25.3046 227.675 22.4192 224.658C19.9396 222.08 18.1404 219.83 17.0103 217.91C14.1907 213.137 12.7973 208.068 12.8193 202.703Z" fill="#0C4C5A"/>
<path d="M27.6977 332.228C28.5149 334.126 30.567 335.066 32.2811 334.327C33.9951 333.589 34.7221 331.452 33.9048 329.554C33.0875 327.656 31.0355 326.716 29.3214 327.455C27.6074 328.193 26.8804 330.33 27.6977 332.228Z" fill="#0C4C5A"/>
<path d="M264.117 127.576C265.28 129.222 266.607 130.67 268.703 130.802C270.82 130.944 272.938 132.019 275.055 134.027C275.417 134.368 275.823 134.631 276.273 134.817C276.909 135.092 277.601 135.179 278.336 135.081C278.797 135.015 279.268 135.179 279.597 135.509L285.346 141.357C286.191 142.213 286.729 143.321 286.871 144.528L288.023 154.26C287.606 155.763 287.354 157.267 287.255 158.77C287.244 159.044 287.233 159.044 287.244 158.77C287.255 158.671 287.233 158.572 287.179 158.484C287.102 158.342 287.025 158.342 286.948 158.484C283.141 165.562 277.272 172.057 269.361 177.982C259.619 185.279 250.513 190.918 242.043 194.912C236.096 194.408 231.324 194.89 227.714 196.372C224.313 197.776 221.724 198.423 219.936 198.303L230.852 178.761C230.984 178.531 230.929 178.355 230.698 178.213L230.468 178.07C230.424 178.048 230.391 178.059 230.369 178.092C224.302 187.243 216.907 195.176 208.185 201.902C201.284 207.223 194.998 211.886 189.348 215.913C177.762 224.153 167.12 233.567 162.83 247.568C162.248 247.656 161.7 248.182 161.184 249.159C161.031 249.444 160.811 249.499 160.537 249.334L158.485 248.084C159.045 244.287 159.319 240.381 160.208 236.859C165.342 216.539 177.257 201.43 193.626 188.976C208.92 177.346 225.026 166.297 235.789 151.287C237.314 149.169 238.444 146.042 239.201 141.894C240.287 143.047 241.242 143.826 242.076 144.232C242.109 151.638 240.43 158.452 237.062 164.673C236.722 165.298 236.513 166.088 236.436 167.065C236.403 167.449 236.524 167.493 236.798 167.218C239.772 164.19 242.756 161.184 245.762 158.21C250.831 153.196 255.625 146.031 260.134 136.727C261.023 134.905 262.351 131.855 264.117 127.576Z" fill="#E05F9F"/>
<path d="M286.18 223.659C286.871 222.464 288.012 222.189 289.625 222.848C290.141 223.056 290.305 223.714 289.954 224.142C289.219 225.02 288.243 225.711 287.014 226.227C286.608 226.403 286.301 226.293 286.092 225.887C285.719 225.152 285.752 224.406 286.18 223.659Z" fill="#E05F9F"/>
<path d="M95.9159 272.837C97.0679 273.55 98.165 274.384 99.2073 275.328C111.616 286.552 121.633 299.719 129.28 314.839L128.369 315.168C128.007 315.299 127.886 315.552 128.018 315.914C129.422 319.776 130.794 323.572 132.121 327.314C132.659 328.839 132.867 330.386 132.725 331.944C132.626 333.118 132.055 334.457 131.013 335.982C129.258 338.561 127.864 341.337 126.833 344.321C126.043 343.63 125.396 343.323 124.88 343.41C121.775 339.384 118.583 335.927 115.28 333.031C114.907 332.712 114.479 332.658 113.986 332.877C113.349 332.153 113.218 331.483 112.461 330.825C106.415 325.613 100.184 320.742 93.7765 316.188C95.9379 312.403 97.9456 308.552 99.7998 304.634C99.9863 304.218 100.513 303.691 101.38 303.065C101.687 302.835 101.906 302.55 102.038 302.188C102.597 300.619 103.343 299.115 104.287 297.689C106.81 293.86 105.252 288.9 104.912 284.753C104.879 284.38 104.726 284.062 104.463 283.798C103.585 282.899 102.608 282.317 101.829 281.275C99.8656 278.652 97.8908 276.14 95.905 273.737C95.7952 273.32 95.7952 273.023 95.9159 272.837Z" fill="#41A979"/>
<path d="M96.1353 323.463C98.7355 324.626 100.37 325.526 101.04 326.151C103.859 328.773 106.843 331.209 110.003 333.448C109.29 334.227 108.445 334.501 107.458 334.249C104.506 333.491 101.698 333.096 99.0208 333.053C97.4738 333.02 95.9598 332.745 94.5006 332.219C91.3299 331.078 86.6342 331.308 83.3318 331.802C76.9246 332.778 66.2934 332.328 61.2905 336.937C60.8626 337.332 61.104 338.045 61.6855 338.1C65.5254 338.484 69.3434 338.1 73.1505 336.959C74.5109 336.553 76.4967 336.454 79.0969 336.662C80.6219 339.109 82.3993 340.195 84.418 339.943C87.2815 339.592 90.134 339.197 92.9756 338.758C97.6823 338.034 103.343 338.78 109.959 340.996C104.397 341.512 100.721 342.05 98.933 342.62C95.8062 343.597 92.8988 345.671 90.2108 348.831C82.3554 348.995 77.4073 349.006 75.3667 348.842C65.3718 348.041 55.7609 345.682 46.556 341.764C45.5137 341.315 44.5483 340.799 43.6596 340.206C42.8697 339.68 42.9355 338.506 43.7693 338.067L46.6987 336.542C47.0497 336.355 47.4228 336.245 47.8068 336.191C49.2879 336.004 50.4838 335.104 51.9429 334.611C54.4444 333.766 56.8142 332.712 59.0633 331.462C60.8736 331.143 61.85 330.562 62.0036 329.706C62.0365 329.871 62.0914 330.002 62.1682 330.09C62.3218 330.266 62.618 330.211 62.6948 329.98C62.8374 329.574 63.1117 329.432 63.5177 329.563C63.8468 329.662 63.8907 329.838 63.6493 330.079L63.4518 330.288C62.8155 330.935 62.9472 331.198 63.8468 331.067C66.4251 330.715 69.3325 331.023 71.7352 329.904C73.8197 328.938 75.9591 329.103 78.1644 328.181C79.5467 327.599 80.5232 327.292 81.1047 327.27C86.2941 327.106 91.297 325.833 96.1353 323.463Z" fill="#41A979"/>
<path d="M275.586 335.217C277.635 335.429 279.462 334.003 279.665 332.032C279.869 330.061 278.373 328.291 276.324 328.079C274.275 327.867 272.448 329.294 272.245 331.265C272.041 333.236 273.537 335.005 275.586 335.217Z" fill="#41A979"/>
<path d="M12.8193 202.703C12.7973 208.068 14.1907 213.137 17.0103 217.91C18.1404 219.83 19.9396 222.08 22.4192 224.658C25.3046 227.675 27.3672 229.683 28.6289 230.704C29.5834 231.483 30.494 231.724 31.3717 231.417L33.6757 232.766C33.6428 232.854 33.6209 232.942 33.6099 233.041C33.6099 233.216 33.6757 233.359 33.8183 233.458C38.7774 236.914 42.7709 239.427 45.799 240.974C64.8781 250.783 80.6877 259.231 95.9159 272.837C95.7952 273.023 95.7952 273.32 95.905 273.737C92.8659 271.597 90.2547 269.534 88.0934 267.57C86.2392 265.892 85.6248 266.243 86.2721 268.635C86.4477 269.282 86.9963 270.061 87.1498 271.049C88.2799 278.389 88.1482 285.466 86.7439 292.269C86.5025 293.41 86.1295 294.518 85.6248 295.582C85.2189 296.427 85.0653 296.383 85.1531 295.451C86.0417 286.048 85.5919 277.423 83.8146 269.578C83.1892 266.835 81.6861 264.827 79.3054 263.543C70.5393 258.836 62.2889 254.415 54.5541 250.3C50.769 248.292 48.6515 252.264 45.3272 253.098C42.0468 253.932 39.0078 254.766 36.1881 255.611C33.3246 256.477 30.505 258.211 27.7293 260.822C26.4676 262.007 24.767 262.293 23.7357 263.62C22.7483 264.893 21.6621 266.1 20.4663 267.252C20.1591 267.537 19.6763 267.504 19.413 267.175C18.0636 265.453 16.6044 264.509 15.0355 264.333C13.1374 262.128 11.1845 259.802 9.18777 257.377C6.87283 254.557 5.24907 252.056 4.31651 249.872C0.432669 240.798 0.630151 230.473 3.05481 220.971C4.79925 214.168 6.36815 207.41 7.77247 200.695C8.15647 198.829 7.89316 197.107 6.98254 195.527C6.79603 194.309 7.46528 193.738 8.99029 193.815C10.647 193.892 11.8099 194.627 12.2927 196.317C12.907 198.467 13.0826 200.596 12.8193 202.703Z" fill="#0B7F87"/>
<path d="M38.5579 313.851C37.4937 314.74 36.4844 315.793 35.5299 317.022C34.3998 318.459 33.2039 319.469 31.5912 320.281C30.5489 320.808 30.5489 322.3 31.5912 322.837C34.9813 324.571 38.3714 326.063 41.7725 327.303C43.7474 328.027 45.788 327.599 47.7738 328.247C51.2298 329.377 55.3221 328.993 58.9097 328.938C59.1511 328.938 59.2498 329.07 59.2169 329.322C59.0304 329.388 58.8549 329.498 58.6683 329.662C58.5586 329.618 58.4489 329.563 58.3392 329.509C58.1527 329.41 57.9442 329.355 57.7248 329.355C53.5886 329.388 49.639 329.234 45.8758 328.883C42.5954 328.587 38.2727 327.139 32.9187 324.549C23.2859 319.897 17.3285 312.172 18.7328 301.2C18.7767 300.86 18.9632 300.641 19.3033 300.553C19.6324 300.454 20.0384 300.454 20.5321 300.542C20.6418 301.749 21.4976 302.978 23.0994 304.229C23.626 304.634 24.3721 304.613 24.8658 304.152C25.9958 303.098 25.7654 301.453 24.1746 299.203L50.1985 299.708C52.7658 299.763 52.8097 300.125 50.3411 300.816C49.0026 301.189 47.6312 301.628 46.2379 302.144C41.7506 303.79 36.7148 304.119 31.1194 303.142C28.5411 302.692 28.4205 303.065 30.7464 304.261C33.7964 305.83 36.8793 306.16 39.9952 305.26C40.2256 305.194 40.434 305.04 40.5767 304.843C40.829 304.481 41.1472 304.327 41.5421 304.371C42.1456 304.448 42.1894 304.645 41.6738 304.975L37.2524 307.762C36.9781 307.926 36.8903 308.168 36.9781 308.486L38.5579 313.851Z" fill="#0B7F87"/>
<path d="M308.573 266.023C307.98 265.442 307.377 264.794 306.773 264.07C306.214 263.401 305.545 262.852 304.777 262.402C302.495 261.064 300.553 259.517 298.951 257.761C302.165 252.593 304.173 247.074 304.963 241.182L309.352 224.098C309.461 223.681 309.165 223.264 308.737 223.221L306.664 223.023C306.28 222.99 305.983 222.815 305.753 222.507C305.512 222.178 305.413 221.86 305.457 221.553C308.891 219.391 312.259 217.713 315.572 216.517C317.843 215.694 320.257 215.749 322.802 216.681C323.121 216.791 323.285 217.01 323.296 217.339C323.45 219.797 321.87 221.761 321.201 224.033C319.928 228.399 318.48 232.69 317.35 237.232C314.947 246.888 312.018 256.488 308.573 266.023Z" fill="#F69F31"/>
<path d="M287.563 269.348C288.1 271.312 287.003 272.98 284.271 274.34C280.486 276.216 277.239 277.292 274.551 277.544C273.004 277.687 271.621 278.126 270.425 278.872C267.979 280.375 265.313 280.945 262.866 282.624C251.906 290.173 241.066 297.788 228.658 302.484C228.318 302.616 228.01 302.824 227.769 303.098C226.891 304.086 226.31 304.711 224.873 304.876C222.163 305.183 220.287 306.204 219.266 307.948C210.259 310.702 201.877 314.751 194.131 320.072C186.44 325.372 179.912 331.824 174.536 339.427C172.221 342.697 170.938 346.702 169.138 350.422C169.018 350.674 169.051 350.893 169.226 351.091C169.303 351.179 169.38 351.255 169.478 351.321C169.621 351.464 169.489 351.804 169.105 352.342C168.886 352.638 168.425 352.605 168.272 352.265C168.074 351.859 167.701 351.617 167.164 351.541C164.882 351.266 162.49 350.915 159.988 350.487C160.559 349.094 160.976 347.635 161.239 346.12C161.59 344.113 161.908 342.653 162.205 341.721C163.708 336.97 165.101 332.043 166.407 326.93C167.405 323.046 168.798 319.173 170.367 315.684C172.923 309.967 176.917 305.117 182.348 301.134C186.978 297.415 192.145 294.529 197.861 292.488C203.533 290.469 208.602 288.922 213.068 287.858C219.705 286.289 226.376 284.928 233.09 283.787C242.306 282.218 252.268 280.474 262.976 278.553C271.841 276.963 280.036 273.89 287.563 269.348Z" fill="#F69F31"/>
<path d="M194.296 344.299C194.427 345.232 194.702 345.725 195.118 345.802C197.752 349.28 200.604 353.263 200.176 357.74C200.11 358.464 199.222 358.771 198.706 358.256L188.558 348.03C190.653 345.012 192.562 343.772 194.296 344.299Z" fill="#F69F31"/>
<path d="M129.28 314.839C133.284 323.123 136.17 331.878 137.936 341.095C137.289 341.49 136.85 341.534 136.597 341.216C135.632 340.009 135.336 340.163 135.698 341.666C136.795 346.12 136.104 350.476 133.635 354.723C132.044 350.608 129.773 347.141 126.833 344.321C127.864 341.337 129.258 338.561 131.013 335.982C132.055 334.457 132.626 333.118 132.725 331.944C132.867 330.386 132.659 328.839 132.121 327.314C130.794 323.572 129.422 319.776 128.018 315.914C127.886 315.552 128.007 315.299 128.369 315.168L129.28 314.839Z" fill="#7EA147"/>
<path d="M113.986 332.877C114.479 332.658 114.907 332.712 115.28 333.031C118.583 335.927 121.775 339.384 124.88 343.41C129.719 352.66 133.153 362.425 135.182 372.728C135.369 373.211 135.347 373.738 135.116 374.297C134.59 373.123 134.162 371.905 133.833 370.654C132.011 363.95 128.215 358.969 122.181 355.359C116.893 352.188 111.802 350.18 106.909 349.335C102.85 348.633 97.2873 348.468 90.2108 348.831C92.8988 345.671 95.8062 343.597 98.933 342.62C100.721 342.05 104.397 341.512 109.959 340.996L118.989 344.233C119.12 344.277 119.241 344.266 119.362 344.189L119.724 343.981C120.009 343.805 119.998 343.377 119.691 343.224C114.271 340.536 108.61 338.418 102.718 336.871C103.409 336.158 104.408 336.256 105.724 337.189C106.558 337.771 107.238 337.628 107.754 336.75C108.149 336.092 108.873 335.883 109.597 336.114C111.144 336.608 112.592 337.288 113.92 338.144C114.37 338.44 114.962 338.155 115.017 337.617C115.072 337.101 114.852 336.717 114.381 336.454C113.997 336.245 113.569 336.103 113.086 336.037C112.022 335.872 111.254 335.203 110.804 334.007C111.956 334.314 112.768 334.457 113.218 334.424C114.106 334.369 114.359 333.854 113.986 332.877Z" fill="#7EA147"/>
<path d="M159.374 51.9771C159.648 55.192 158.814 57.957 156.851 60.2611C156.609 60.5355 156.499 60.8646 156.521 61.2267L156.565 62.0386C156.587 62.4117 156.51 62.7628 156.335 63.092C152.736 69.9606 150.586 76.7853 149.884 83.5552C149.774 84.6414 150.202 85.7387 151.178 86.8249C149.127 91.2248 147.733 96.0087 146.976 101.177C146.614 104.238 146.439 107.562 146.428 111.15C146.417 113.125 146.143 115.364 145.605 117.854C145.067 120.323 144.727 122.956 144.585 125.765C141.6 120.301 139.878 114.354 138.221 108.462C138.188 107.475 138.002 106.586 137.64 105.785L136.137 98.8834L135.775 88.9096C135.764 88.7231 135.665 88.6353 135.478 88.6353L135.193 88.6463C135.171 88.6463 135.16 88.6573 135.171 88.6792L135.95 98.8834C135.983 101.242 136.389 103.558 137.19 105.807L137.618 108.517L143.114 126.138C142.687 126.303 142.193 126.193 141.622 125.831C141.304 125.623 141.085 125.71 140.964 126.073C139.702 130.121 139.527 134.104 140.448 138.021C140.854 139.722 140.92 141.456 140.668 143.233C140.185 146.645 140.163 149.597 140.591 152.11C141.315 156.312 142.873 159.669 141.776 164.201C140.909 167.745 140.492 172.606 137.19 174.69C135.961 175.469 135.424 176.654 134.831 177.949C127.678 166.933 123.476 160.767 118.923 150.969C117.398 147.907 116.18 144.725 115.247 141.445C115.203 141.28 115.094 141.214 114.929 141.258L114.918 141.269C114.754 141.313 114.688 141.423 114.732 141.587C115.555 144.879 116.761 148.028 118.33 151.034L130.53 174.405C128.567 172.957 126.69 171.903 124.891 171.256C124.134 170.982 122.697 170.872 120.601 170.949C118.243 171.037 116.158 170.324 114.37 168.798C110.738 159.834 108.281 150.903 106.997 142.004C107.249 140.633 107.172 139.601 106.745 138.91C107.227 133.698 107.304 128.585 108.193 123.384C110.069 112.39 112.954 101.374 118.495 92.1355C123.97 82.9846 130.881 75.0737 139.22 68.4135C148.019 61.3803 154.733 55.8942 159.374 51.9771Z" fill="#30BCD7"/>
<path d="M277.315 202.209C276.383 206.192 275.363 209.439 274.243 211.93C273.366 213.894 272.038 216.264 270.25 219.04C264.984 227.62 258.017 233.798 249.361 237.561C247.002 238.582 244.434 238.439 242.065 239.427C234.856 242.411 227.44 245.67 219.914 245.406C219.058 245.384 217.215 244.935 214.395 244.057C213.704 243.047 212.881 242.214 211.926 241.555L220.199 228.509C222.689 228.268 225.103 227.862 227.44 227.291C229.217 226.863 231.126 225.953 233.178 224.57C234.637 223.572 236.447 222.398 238.609 221.048C242.251 218.755 246.278 215.584 250.688 211.535C259.202 213.28 266.849 211.48 273.618 206.115C274.2 205.654 275.428 204.348 277.315 202.209Z" fill="#E85A58"/>
<path d="M162.83 247.568C161.173 253.252 160.603 259.177 161.096 265.343C161.349 272.53 161.096 279.815 160.361 287.189C159.966 291.15 160.493 295.001 160.482 298.885C160.471 300.652 160.723 300.695 161.228 298.995C162.599 294.386 164.212 289.262 166.626 285.016C167.515 283.436 168.403 281.812 169.281 280.144C170.268 278.257 171.782 276.633 173.22 275.108L175.206 276.129C169.127 282.152 165.167 289.383 163.335 297.799C162.49 301.683 161.886 304.558 161.502 306.412C160.592 310.933 159.879 310.9 159.385 306.313C157.377 287.66 157.081 268.251 158.485 248.084L160.537 249.334C160.811 249.499 161.031 249.444 161.184 249.159C161.7 248.182 162.248 247.656 162.83 247.568Z" fill="#E85A58"/>
<path d="M148.37 416.913C148.447 417.978 148.929 418.691 149.796 419.064C149.961 419.382 150.158 419.579 150.41 419.678C150.729 419.799 150.959 420.007 151.102 420.315C152.901 424.243 155.106 427.951 157.728 431.429C157.981 431.77 158.277 431.803 158.595 431.528L159.111 431.078C160.592 436.126 162.512 440.942 164.871 445.529C165.266 446.286 165.66 446.593 166.044 446.45C167.767 450.17 169.895 453.802 172.419 457.368C173.428 458.805 174.01 460.045 174.163 461.098C174.833 465.794 170.411 468.889 166.143 467.023C164.223 466.189 162.237 464.182 160.186 461C155.15 453.22 150.992 445.112 147.722 436.674C147.448 433.163 146.823 429.707 145.857 426.305C145.32 424.385 145.912 423.069 145.748 421.203C145.671 420.304 145.835 419.459 146.241 418.669C146.735 417.725 147.437 417.144 148.37 416.913Z" fill="#E85A58"/>
<path d="M305.457 221.553C305.413 221.86 305.512 222.178 305.753 222.507C305.983 222.815 306.28 222.99 306.664 223.023L308.737 223.221C309.165 223.264 309.461 223.681 309.352 224.098L304.963 241.182C297.305 260.866 282.362 272.53 261.868 275.723C258.544 276.238 255.164 276.743 251.752 277.237C238.971 279.069 226.42 281.615 214.099 284.863C203.314 287.704 193.571 291.215 184.751 297.722C183.937 298.317 183.063 299.16 182.14 300.232C182.092 300.287 182.045 300.343 181.997 300.399C181.185 300.344 181.393 299.456 182.622 297.711C186.298 292.521 191.63 287.814 198.596 283.579C203.413 280.649 206.649 278.839 208.295 278.158C215.986 274.988 223.688 271.817 231.379 268.635C243.579 263.576 254.923 257.048 265.401 249.027L266.114 249.115C266.827 249.203 267.068 250.113 266.487 250.541L259.652 255.545C259.158 255.907 259.213 256.049 259.816 255.973C260.815 255.83 261.791 255.446 262.735 254.81C267.222 251.792 271.193 248.874 274.671 246.065C278.917 242.641 282.834 239.657 286.411 237.122C290.843 233.973 295.33 230.835 299.883 227.73C302.703 225.81 302.988 224.724 300.739 224.482L305.457 221.553Z" fill="#F3661A"/>
<path d="M302.637 280.287C297.097 290.788 288.901 298.139 278.029 302.352C278.018 302.188 277.952 302.045 277.831 301.935C277.601 301.749 277.381 301.749 277.162 301.946C277.063 302.034 277.008 302.144 276.986 302.275C276.953 302.506 276.778 302.681 276.547 302.703C275.022 302.89 273.432 302.868 271.775 302.616C271.029 302.495 271.007 302.297 271.709 302.023C279.894 298.742 287.387 294.65 293.41 288.813C294.694 287.573 296.12 286.058 297.7 284.27C299.159 282.635 300.805 281.308 302.637 280.287Z" fill="#F3661A"/>
<path d="M217.774 333.875L225.18 340.536C225.586 341.446 226.101 342.335 226.738 343.224C227.879 344.804 228.372 346.845 227.056 348.479C223.304 353.11 216.951 351.639 212.354 349.368C208.13 347.284 203.731 345.319 199.156 343.476C202.261 343.312 205.135 344.233 207.779 346.23C208.24 346.57 208.723 346.823 209.228 346.987C209.579 347.097 209.908 347.273 210.204 347.514C210.478 347.722 210.785 347.843 211.137 347.876C216.611 348.315 221.186 350.729 226.003 346.472C226.42 346.109 226.507 345.484 226.189 345.023C225.004 343.235 223.633 341.732 222.075 340.514C215.328 335.236 207.735 332.504 199.298 332.328C196.172 332.263 193.33 332.943 190.763 334.369C190.532 334.49 190.258 334.391 190.17 334.15L190.072 333.865C189.962 333.546 190.061 333.316 190.379 333.173C198.969 329.333 206.112 326.678 214.34 332.131C215.459 332.866 216.6 333.448 217.774 333.875Z" fill="#F3661A"/>
<path d="M148.052 356.972C149.094 356.72 149.917 357.049 150.498 357.981C151.069 358.892 151.606 359.858 152.122 360.878L151.518 365.059C151.113 368.822 151.003 373.002 151.2 377.611C151.573 386.619 152.034 394.278 152.583 400.608C153.307 408.925 155.479 419.086 159.111 431.078L158.595 431.528C158.277 431.803 157.981 431.77 157.728 431.429C155.106 427.951 152.901 424.243 151.102 420.315C150.959 420.007 150.729 419.799 150.41 419.678C150.158 419.579 149.961 419.382 149.796 419.064C150.026 418.263 150.103 417.605 150.004 417.1C149.522 414.455 149.138 411.8 148.863 409.134C147.36 394.826 146.856 380.485 147.349 366.112C147.448 363.051 147.689 360.011 148.052 356.972Z" fill="#F3661A"/>
<path d="M170.17 64.1673C168.645 66.0435 167.537 67.8649 166.823 69.6424C164.684 74.931 163.894 80.6146 164.454 86.6823C164.596 88.3061 165.024 90.2043 165.715 92.3878C166.308 94.2421 166.889 96.1074 167.471 97.9837C170.773 103.92 172.276 109.987 171.969 116.187C171.793 119.731 171.706 121.969 171.717 122.913C169.171 127.027 167.251 131.284 165.957 135.684L163.071 146.525C162.973 146.876 162.742 147.062 162.38 147.073C159.582 147.238 157.322 146.13 155.589 143.771C150.959 137.462 147.295 131.46 144.585 125.765C144.727 122.956 145.067 120.323 145.605 117.854C146.143 115.364 146.417 113.125 146.428 111.15C146.439 107.562 146.614 104.238 146.976 101.177C148.545 95.855 150.377 90.72 152.451 85.7716C153.011 84.4439 152.758 84.2793 151.716 85.2668C151.639 85.3437 151.453 85.8593 151.178 86.8249C150.202 85.7387 149.774 84.6414 149.884 83.5552C150.586 76.7853 152.736 69.9606 156.335 63.092C156.51 62.7628 156.587 62.4117 156.565 62.0386L156.521 61.2267C156.499 60.8646 156.609 60.5355 156.851 60.2611C158.814 57.957 159.648 55.192 159.374 51.9771L177.872 34.268C179.144 33.5109 180.274 32.4466 181.273 31.086C181.503 30.7678 181.755 30.7459 182.03 31.0421C182.425 31.47 182.534 32.0186 182.37 32.688C180.472 40.4892 177.773 47.9393 174.273 55.0493C173.604 56.4099 172.956 57.946 172.309 59.6577C171.771 61.0731 171.058 62.5763 170.17 64.1673Z" fill="#40A2D3"/>
<path d="M143.114 126.138C147.163 137.473 151.573 148.697 156.368 159.79C157.081 161.458 158.189 162.654 159.692 163.378C159.484 164.355 159.308 165.452 159.165 166.659C159.023 168.008 158.858 169.106 158.694 169.95C156.774 179.54 154.645 188.724 152.33 197.491L150.202 201.847C150.059 202.143 149.906 202.143 149.73 201.869L134.831 177.949C135.424 176.654 135.961 175.469 137.19 174.69C140.492 172.606 140.909 167.745 141.776 164.201C142.873 159.669 141.315 156.312 140.591 152.11C140.163 149.597 140.185 146.645 140.668 143.233C140.92 141.456 140.854 139.722 140.448 138.021C139.527 134.104 139.702 130.121 140.964 126.073C141.085 125.71 141.304 125.623 141.622 125.831C142.193 126.193 142.687 126.303 143.114 126.138Z" fill="#40A2D3"/>
<path d="M179.835 12.8063C180.79 13.0806 181.437 13.695 181.777 14.6716C181.657 15.2531 181.47 15.6591 181.218 15.8895C180.867 16.2186 180.636 16.1528 180.516 15.681L179.835 12.8063Z" fill="#ABE9E6"/>
<path d="M173.297 122.199C171.223 126.863 169.489 133.095 168.074 140.874C166.099 151.77 164.245 161.425 162.512 169.819C160.636 178.904 158.803 188 157.015 197.107C156.807 198.16 156.587 199.224 156.368 200.3C155.238 205.742 154.097 211.184 152.945 216.626C149.171 235.608 147.503 254.777 147.931 274.143C147.481 273.594 147.02 273.429 146.537 273.638C145.901 273.923 145.188 273.419 145.254 272.716C145.517 269.918 145.166 267.395 144.212 265.124L143.86 259.923C144.223 253.295 144.639 246.624 145.111 239.909C145.429 235.488 146.856 226.04 149.412 211.568L152.33 197.491C154.645 188.724 156.774 179.54 158.694 169.95C158.858 169.106 159.023 168.008 159.165 166.659C159.308 165.452 159.484 164.355 159.692 163.378C162.72 154.271 164.805 145.044 165.957 135.684C167.251 131.284 169.171 127.027 171.717 122.913C172.627 121.782 173.154 121.541 173.297 122.199Z" fill="#ABE9E6"/>
<path d="M106.745 138.91C107.172 139.601 107.249 140.633 106.997 142.004C106.964 141.971 106.854 141.982 106.69 142.048L106.745 138.91Z" fill="#ABE9E6"/>
<path d="M102.718 336.871C108.61 338.418 114.271 340.536 119.691 343.224C119.998 343.377 120.009 343.805 119.724 343.981L119.362 344.189C119.241 344.266 119.12 344.277 118.989 344.233L109.959 340.996C103.343 338.78 97.6823 338.034 92.9756 338.758C90.134 339.197 87.2815 339.592 84.418 339.943C82.3993 340.195 80.6219 339.109 79.0969 336.662C87.1389 335.642 95.0163 335.708 102.718 336.871Z" fill="#ABE9E6"/>
<path d="M206.551 10.4363C208.909 12.8831 210.38 14.7264 210.972 15.9553C211.444 16.9428 211.926 17.8316 212.42 18.6106C213.002 19.5213 213.473 20.41 213.857 21.2988C215.086 24.1735 216.161 27.1031 217.072 30.0875C217.116 30.2302 217.215 30.3399 217.346 30.3948C217.5 30.4606 217.588 30.5703 217.621 30.7239C218.037 33.0171 218.509 35.3761 219.036 37.801C219.376 39.3591 219.53 40.983 219.519 42.6836C219.519 43.7589 219.617 44.8561 219.815 45.9753C220.001 47.0506 220.133 48.1478 220.21 49.267C220.44 53.0963 220.627 56.9475 220.747 60.8317C220.769 61.3803 220.539 61.523 220.045 61.2706C215.766 58.9884 210.182 60.9634 207.593 65.045C206.781 66.3178 206.09 67.7552 205.53 69.3571C199.408 86.7042 190.456 102.438 178.683 116.538L177.082 117.624L177.016 116.472C176.983 116.055 177.115 115.649 177.378 115.331C182.414 109.044 185.65 104.567 187.066 101.912C192.244 92.2342 195.338 82.6225 196.336 73.0657C197.093 65.9009 197.477 57.6278 197.499 48.2685C197.499 45.6352 197.653 43.3749 197.971 41.4767C198.289 39.4907 198.311 37.5596 198.026 35.6834C197.609 32.8635 199.628 31.6456 200.494 29.2866C201.965 25.2927 203.226 21.1342 204.29 16.8111C204.663 15.2641 205.113 14.2217 205.969 12.7295C206.32 12.115 206.518 11.347 206.551 10.4363Z" fill="#667FCD"/>
<path d="M146.329 55.0603C146.219 55.3895 146.329 55.6748 146.647 55.9052C146.998 56.1575 147.295 56.1466 147.547 55.8942C147.821 56.6513 147.788 57.3425 147.426 57.957C145.265 61.6985 143.312 62.3898 141.578 60.0198C142.763 58.5385 143.345 57.2657 143.323 56.2124L146.329 55.0603Z" fill="#454888"/>
<path d="M178.683 116.538C177.685 118.633 176.16 120.608 174.13 122.452C173.834 122.715 173.637 123.033 173.527 123.406L170.422 133.599C170.214 134.291 170.663 135.004 171.377 135.114C173.659 135.476 176.303 136.134 177.85 138.01C181.679 142.641 186.396 145.318 191.981 146.031C192.847 146.141 193.319 146.448 194.043 146.887C194.515 147.172 194.921 147.095 195.261 146.667L195.481 146.393C195.755 146.042 196.095 145.987 196.479 146.218C197.609 146.931 198.805 147.633 200.045 148.346C200.692 148.708 201.943 149.191 203.819 149.773C206.507 150.617 208.481 152.439 209.732 155.226C202.952 163.224 194.592 172.474 184.641 182.964C175.085 193.047 165.287 204.436 155.249 217.153C155.106 216.758 154.733 216.648 154.13 216.813C153.351 217.032 152.956 216.966 152.945 216.626C154.097 211.184 155.238 205.742 156.368 200.3C156.587 199.224 156.807 198.16 157.015 197.107C158.803 188 160.636 178.904 162.512 169.819C164.245 161.425 166.099 151.77 168.074 140.874C169.489 133.095 171.223 126.863 173.297 122.199L177.082 117.624L178.683 116.538Z" fill="#454888"/>
<path d="M304.963 241.182C304.173 247.074 302.165 252.593 298.951 257.761C296.087 262.139 292.291 266.001 287.563 269.348C280.036 273.89 271.841 276.963 262.976 278.553C252.268 280.474 242.306 282.218 233.09 283.787C226.376 284.928 219.705 286.289 213.068 287.858C208.602 288.922 203.533 290.469 197.861 292.488C192.145 294.529 186.978 297.415 182.348 301.134C182.266 300.67 182.197 300.37 182.14 300.232C182.074 300.073 182.026 300.129 181.997 300.399C182.045 300.343 182.092 300.287 182.14 300.232C183.063 299.16 183.937 298.317 184.751 297.722C193.571 291.215 203.314 287.704 214.099 284.863C226.42 281.615 238.971 279.069 251.752 277.237C255.164 276.743 258.544 276.238 261.868 275.723C282.362 272.53 297.305 260.866 304.963 241.182Z" fill="#F4EDCE"/>
<path d="M144.212 265.124C145.166 267.395 145.517 269.918 145.254 272.716C145.188 273.419 145.901 273.923 146.537 273.638C147.02 273.429 147.481 273.594 147.931 274.143L148.337 291.226C148.874 313.149 148.787 335.06 148.052 356.972C147.689 360.011 147.448 363.051 147.349 366.112C146.856 380.485 147.36 394.826 148.863 409.134C149.138 411.8 149.522 414.455 150.004 417.1C150.103 417.605 150.026 418.263 149.796 419.064C148.929 418.691 148.447 417.978 148.37 416.913C147.415 412.93 146.505 408.827 145.66 404.602C143.509 393.883 142.665 383.064 143.136 372.125C143.498 363.5 144.025 354.942 144.716 346.439L144.859 336.202C145.539 327.292 145.77 319.787 145.539 313.698C145.023 299.884 144.486 286.08 143.904 272.277C143.806 270.05 143.915 267.669 144.212 265.124Z" fill="#F4EDCE"/>
<path d="M169.478 351.321C169.38 351.255 169.303 351.179 169.226 351.091C169.051 350.893 169.018 350.674 169.138 350.422C170.938 346.702 172.221 342.697 174.536 339.427C179.912 331.824 186.44 325.372 194.131 320.072C201.877 314.751 210.259 310.702 219.266 307.948C227.023 306.017 234.791 304.755 242.558 304.174C244.522 304.02 246.289 303.943 247.879 303.932C248.604 303.932 248.615 303.998 247.901 304.13C246.684 304.36 245.466 304.525 244.237 304.613C239.048 304.997 233.748 305.699 228.318 306.719C222.404 307.827 217.302 309.265 213.002 311.031C202.436 315.354 193.264 322.047 185.486 331.11C179.901 337.617 174.558 344.354 169.478 351.321Z" fill="#F4EDCE"/>
<path d="M256.997 331.187L256.042 332.131C255.581 331.791 255.296 331.264 255.197 330.562C255.142 330.156 255.296 330.024 255.68 330.178C256.196 330.386 256.634 330.726 256.997 331.187Z" fill="#F4EDCE"/>
<path d="M124.88 343.41C125.396 343.323 126.043 343.63 126.833 344.321C129.773 347.141 132.044 350.608 133.635 354.723C135.654 360.406 136.543 366.386 136.301 372.651C136.29 373.024 135.862 373.233 135.566 373.013L135.182 372.728C133.153 362.425 129.719 352.66 124.88 343.41Z" fill="#F4EDCE"/>
<path d="M197.247 344.058C196.775 344.848 196.073 345.429 195.118 345.802C194.702 345.725 194.427 345.232 194.296 344.299C195.952 343.52 196.929 343.432 197.247 344.058Z" fill="#F4EDCE"/>
<path d="M185.299 346.45C183.818 346.823 182.951 347.382 182.677 348.139C182.534 348.501 182.6 348.831 182.863 349.116C184.531 350.948 186.594 352.188 189.062 352.846C189.216 352.879 189.315 353.033 189.304 353.187L189.282 353.549C189.271 353.79 189.007 353.933 188.799 353.823C187.439 353.143 186.023 352.682 184.553 352.451C181.119 351.914 177.147 350.191 174.075 350.498C172.715 350.641 171.004 351.98 168.941 354.503C172.068 348.436 177.52 345.758 185.299 346.45Z" fill="#F4EDCE"/>
<path d="M243.107 360C239.421 358.519 236.952 355.677 235.69 351.497C235.614 351.244 235.657 351.036 235.822 350.86C235.998 350.674 236.294 350.74 236.7 351.036C236.733 351.069 236.765 351.102 236.787 351.146L237.292 352.419C237.446 352.814 237.687 353.154 238.016 353.428C240.419 355.469 242.931 357.411 245.532 359.243C246.508 359.934 247.792 359.759 248.593 360.626C249.042 361.108 248.933 361.394 248.285 361.482C246.398 361.734 244.807 360.692 243.107 360Z" fill="#F4EDCE"/>
<path d="M151.518 365.059C151.946 366.485 152.758 368.065 153.954 369.788C154.931 371.214 155.962 371.433 157.048 370.435C155.227 384.282 156.115 395.55 157.937 409.968C159.198 420.051 162.764 430.299 168.623 440.723C168.831 440.8 168.831 441.019 168.612 441.359C167.339 441.162 166.428 441.294 165.891 441.765C165.617 441.996 165.496 442.303 165.551 442.665L166.044 446.45C165.66 446.593 165.266 446.286 164.871 445.529C162.512 440.942 160.592 436.126 159.111 431.078C155.479 419.086 153.307 408.925 152.583 400.608C152.034 394.278 151.573 386.619 151.2 377.611C151.003 373.002 151.113 368.822 151.518 365.059ZM164.838 439.121C164.443 438.934 163.982 439.154 163.883 439.571C163.784 439.977 163.883 440.306 164.157 440.536C164.487 440.822 164.991 440.712 165.189 440.328C165.474 439.779 165.353 439.373 164.838 439.121Z" fill="#F4EDCE"/>
<path d="M166.209 424.276C168.283 431.254 171.135 437.914 174.745 444.267C174.833 444.432 174.876 444.596 174.865 444.783C174.854 444.881 174.854 444.98 174.865 445.09C174.086 445.211 173.45 444.87 172.956 444.069C169.347 438.221 166.626 432 164.805 425.384C164.706 425.011 164.816 424.725 165.156 424.539C165.452 424.363 165.803 424.276 166.209 424.276Z" fill="#F4EDCE"/>
<path d="M289.011 153.152C288.649 153.328 288.32 153.701 288.023 154.26L286.871 144.528C286.729 143.321 286.191 142.213 285.346 141.357L279.597 135.509C279.268 135.179 278.797 135.015 278.336 135.081C277.601 135.179 276.909 135.092 276.273 134.817C275.823 134.631 275.417 134.368 275.055 134.027C272.938 132.019 270.82 130.944 268.703 130.802C266.607 130.67 265.28 129.222 264.117 127.576C265.839 122.079 266.926 116.45 267.386 110.679C267.551 108.649 267.902 106.75 268.418 104.973C268.933 103.239 269.241 101.418 269.35 99.5088C269.493 97.062 270.107 94.5164 271.193 91.8721C271.325 91.5539 271.512 91.2687 271.753 91.0273L274.649 88.0977C278.456 86.9456 281.967 87.56 285.182 89.93C285.489 90.1605 285.522 90.4238 285.292 90.72C282.329 94.6481 281.287 99.5746 282.165 105.5C283.437 114.091 285.676 122.331 287.727 130.571C289.34 137.056 289.164 143.595 289.34 150.189C289.373 151.331 288.912 152.088 289.011 153.152Z" fill="#F26D95"/>
<path d="M242.076 144.232C241.242 143.826 240.287 143.047 239.201 141.894C238.51 137.067 238.115 133.896 237.994 132.382C237.72 128.618 238.258 124.076 239.805 120.356C240.408 118.897 241.044 117.437 241.692 115.978L246.212 111.183C250.118 108.671 254.078 106.663 258.083 105.181C259.728 104.567 261.067 104.797 262.087 105.884C266.421 110.437 265.148 120.115 263.535 125.579C260.112 137.198 253.892 147.414 244.862 156.224C243.974 157.091 243.326 158.298 242.427 159.176C241.966 159.615 241.823 159.527 242.01 158.923C242.218 158.232 242.482 157.563 242.822 156.915C244.083 154.502 244.094 150.826 243.908 148.006C243.798 146.481 243.184 145.23 242.076 144.232Z" fill="#F26D95"/>
<path d="M274.649 88.0977L271.753 91.0273C271.512 91.2687 271.325 91.5539 271.193 91.8721C270.107 94.5164 269.493 97.062 269.35 99.5088C269.241 101.418 268.933 103.239 268.418 104.973C267.902 106.75 267.551 108.649 267.386 110.679C266.926 116.45 265.839 122.079 264.117 127.576C262.351 131.855 261.023 134.905 260.134 136.727C255.625 146.031 250.831 153.196 245.762 158.21C242.756 161.184 239.772 164.19 236.798 167.218C236.524 167.493 236.403 167.449 236.436 167.065C236.513 166.088 236.722 165.298 237.062 164.673C240.43 158.452 242.109 151.638 242.076 144.232C243.184 145.23 243.798 146.481 243.908 148.006C244.094 150.826 244.083 154.502 242.822 156.915C242.482 157.563 242.218 158.232 242.01 158.923C241.823 159.527 241.966 159.615 242.427 159.176C243.326 158.298 243.974 157.091 244.862 156.224C253.892 147.414 260.112 137.198 263.535 125.579C265.148 120.115 266.421 110.437 262.087 105.884C261.067 104.797 259.728 104.567 258.083 105.181C254.078 106.663 250.118 108.671 246.212 111.183C250.326 107.102 255.208 104.611 260.869 103.7C262.427 103.448 264.424 104.205 265.576 103.217C265.894 102.943 266.103 102.603 266.202 102.186C266.871 99.1906 267.222 95.877 268.736 93.123C270.03 90.7639 271.753 88.4488 274.649 88.0977Z" fill="#D84A72"/>
<path d="M289.011 153.152C287.398 166.593 282.395 178.531 273.991 188.943C273.585 189.459 273.486 189.876 273.695 190.172L258.028 206.279C257.172 207.168 257.315 207.377 258.456 206.927C265.609 204.118 271.939 199.806 277.447 194.002C278.5 193.201 279.334 192.191 279.938 190.984C280.146 190.556 280.387 190.293 280.662 190.205C280.87 190.139 281.079 190.117 281.287 190.15C281.671 190.216 281.869 190.447 281.858 190.831C281.825 194.495 280.19 197.765 276.953 200.629C273.563 203.185 270.349 205.182 267.288 206.62C262.559 208.836 257.018 210.471 250.688 211.535C246.278 215.584 242.251 218.755 238.609 221.048C236.447 222.398 234.637 223.572 233.178 224.57C231.126 225.953 229.217 226.863 227.44 227.291C225.103 227.862 222.689 228.268 220.199 228.509C220.33 228.125 220.495 227.741 220.693 227.368C225.608 218.184 230.6 209.034 235.679 199.927C237.533 196.591 239.618 196.942 242.043 194.912C250.513 190.918 259.619 185.279 269.361 177.982C277.272 172.057 283.141 165.562 286.948 158.484C287.025 158.342 287.102 158.342 287.179 158.484C287.233 158.572 287.255 158.671 287.244 158.77C287.233 159.044 287.244 159.044 287.255 158.77C287.354 157.267 287.606 155.763 288.023 154.26C288.32 153.701 288.649 153.328 289.011 153.152Z" fill="#D84A72"/>
<path d="M231.225 70.0923C230.742 70.4982 230.479 71.0249 230.435 71.6503C230.402 72.0782 230.589 72.2099 230.995 72.0453C231.488 71.8368 231.817 71.4418 231.982 70.8384L234.264 70.3117C234.626 70.2239 234.867 70.3556 234.988 70.7067L235.646 72.6378C235.131 73.8338 234.736 74.4482 234.451 74.4592C233.672 75.8417 233.178 77.2242 232.969 78.6177C232.915 78.9798 232.783 79.3199 232.585 79.6381C231.73 80.9438 231.214 82.2824 231.027 83.6759C230.929 84.433 231.017 84.4549 231.291 83.7417L233.266 78.7274C234.791 79.3528 235.581 80.2306 235.635 81.3717C235.844 86.2763 235.12 91.0053 233.485 95.5368C233.09 96.6231 232.278 97.7642 231.06 98.9382C229.437 100.507 228.197 102.307 227.352 104.337C226.562 104.885 226.101 105.511 225.981 106.213C225.893 106.685 226.047 106.783 226.452 106.531L235.12 100.891C235.197 100.836 235.328 100.814 235.515 100.814L235.317 101.111C234.999 101.572 235.076 101.659 235.548 101.363C235.822 101.188 236.107 101.078 236.382 101.034C237.062 100.924 237.632 101.528 237.49 102.197C236.919 104.852 236.579 107.42 236.458 109.899C236.381 111.381 236.096 112.785 235.614 114.113C234.648 116.746 234.165 119.939 232.322 122.101C232.125 122.342 231.785 122.408 231.499 122.265C229.886 121.464 228.098 121.3 226.134 121.793C220.166 123.275 214.746 123.384 209.886 122.123C204.214 120.641 197.795 118.436 190.631 115.517C190.379 115.419 190.368 115.056 190.609 114.936C201.844 108.967 212.683 99.2455 216.918 87.6807C217.522 86.0239 218.619 82.4799 220.21 77.0267C222.437 72.5391 223.49 67.843 223.391 62.9164C223.337 60.5245 223.38 58.747 223.512 57.5839C223.721 55.8174 223.951 54.0399 224.192 52.2734L224.598 51.7796C225.816 50.3093 228.153 50.5946 228.954 52.3282C231.785 58.3849 231.795 63.0262 231.225 70.0923Z" fill="#6B67BC"/>
<path d="M153.504 258.628C154.316 279.223 154.623 294.288 154.415 303.823C154.272 311.009 154.119 318.196 153.965 325.383C153.888 329.311 153.515 335.225 152.857 343.114C152.363 349.028 152.122 354.942 152.122 360.878C151.606 359.858 151.069 358.892 150.498 357.981C149.917 357.049 149.094 356.72 148.052 356.972C148.787 335.06 148.874 313.149 148.337 291.226C149.105 290.096 150.026 289.548 151.091 289.581C151.518 289.592 151.881 289.262 151.902 288.834L153.504 258.628Z" fill="#839B71"/>
<path d="M110.003 333.448L110.804 334.007C111.254 335.203 112.022 335.872 113.086 336.037C113.569 336.103 113.997 336.245 114.381 336.454C114.852 336.717 115.072 337.101 115.017 337.617C114.962 338.155 114.37 338.44 113.92 338.144C112.592 337.288 111.144 336.608 109.597 336.114C108.873 335.883 108.149 336.092 107.754 336.75C107.238 337.628 106.558 337.771 105.724 337.189C104.408 336.256 103.409 336.158 102.718 336.871C95.0163 335.708 87.1389 335.642 79.0969 336.662C76.4967 336.454 74.5109 336.553 73.1505 336.959C69.3434 338.1 65.5254 338.484 61.6855 338.1C61.104 338.045 60.8626 337.332 61.2905 336.937C66.2934 332.328 76.9246 332.778 83.3318 331.802C86.6342 331.308 91.3299 331.078 94.5006 332.219C95.9598 332.745 97.4738 333.02 99.0208 333.053C101.698 333.096 104.506 333.491 107.458 334.249C108.445 334.501 109.29 334.227 110.003 333.448Z" fill="#839B71"/>
<path d="M141.37 335.247C142.072 335.697 142.621 336.235 143.016 336.882C143.213 337.211 143.498 337.332 143.86 337.244C144.277 337.145 144.607 336.794 144.859 336.202L144.716 346.439C142.961 345.067 141.798 345.034 141.216 346.318L141.37 335.247Z" fill="#839B71"/>
<path d="M316.593 260.625C316.67 260.855 316.801 261.031 316.988 261.152C317.306 261.36 317.459 261.656 317.459 262.04C317.427 264.509 316.373 266.254 314.289 267.274C313.883 267.472 313.4 267.219 313.334 266.769C312.928 263.829 313.861 261.579 316.154 260.032C316.362 259.89 316.538 259.934 316.67 260.142C316.724 260.219 316.724 260.307 316.648 260.394C316.593 260.46 316.571 260.537 316.593 260.625Z" fill="#B99F40"/>
<path d="M294.387 300.717C294.398 300.706 294.42 300.717 294.42 300.728L294.442 300.761C295.308 302.407 293.739 304.931 290.931 306.423L290.602 306.599C287.793 308.08 284.82 307.959 283.953 306.324L283.931 306.28C283.92 306.269 283.931 306.258 283.942 306.247L294.387 300.717Z" fill="#B99F40"/>
<path d="M137.936 341.095L140.295 354.141C140.525 361.503 139.593 368.811 137.519 376.064C135.895 375.625 135.094 375.032 135.116 374.297C135.347 373.738 135.369 373.211 135.182 372.728L135.566 373.013C135.862 373.233 136.29 373.024 136.301 372.651C136.543 366.386 135.654 360.406 133.635 354.723C136.104 350.476 136.795 346.12 135.698 341.666C135.336 340.163 135.632 340.009 136.597 341.216C136.85 341.534 137.289 341.49 137.936 341.095Z" fill="#B99F40"/>
<path d="M211.926 241.555C212.881 242.214 213.704 243.047 214.395 244.057C215.887 245.703 217.818 246.602 220.199 246.745C227.429 247.206 234.308 245.681 240.836 242.159C242.12 241.467 242.295 241.665 241.341 242.773C239.574 244.814 237.83 246.943 236.085 249.148C228.636 258.639 218.926 264.432 206.956 266.517C198.552 267.987 189.808 271.125 181.448 273.429C179.21 274.055 177.235 275.042 175.206 276.129L173.22 275.108C174.262 273.254 175.184 272.014 176.006 271.389C180.241 268.152 186.254 264.114 194.032 259.275C200.582 255.205 206.54 249.302 211.926 241.555Z" fill="#EB573C"/>
<path d="M47.6312 160.021L47.0607 155.785C49.3427 154.962 49.5292 156.367 47.6312 160.021Z" fill="#208D81"/>
<path d="M143.86 259.923L144.212 265.124C143.915 267.669 143.806 270.05 143.904 272.277C144.486 286.08 145.023 299.884 145.539 313.698C145.77 319.787 145.539 327.292 144.859 336.202C144.607 336.794 144.277 337.145 143.86 337.244C143.498 337.332 143.213 337.211 143.016 336.882C142.621 336.235 142.072 335.697 141.37 335.247C141.074 330.77 140.745 326.239 140.383 321.652C140.196 319.37 139.088 316.079 137.036 311.788C135.906 309.407 133.745 305.71 130.552 300.695C131.671 298.852 132.022 296.877 131.595 294.77C130.684 290.217 130.168 287.013 130.026 285.159C129.971 284.369 130.333 283.403 131.134 282.251C132.264 280.627 133.46 279.058 134.732 277.555C135.402 278.038 136.016 278.356 136.554 278.499C136.982 278.619 137.124 278.466 136.971 278.049C135.259 273.232 133.295 268.382 132.044 263.379C131.276 260.329 130.53 257.245 129.806 254.129C126.965 241.906 119.822 232.657 108.061 227.62C101.16 224.669 93.7217 223.221 85.7565 223.286C85.548 223.286 85.4493 223.188 85.4383 222.979L85.4273 222.705C85.4273 222.628 85.4603 222.595 85.5371 222.595C90.4632 222.299 95.0931 222.518 99.4267 223.243C113.646 225.634 124.562 232.997 132.527 245.099C136.433 251.046 139.483 256.84 141.677 262.49C142.182 263.807 142.445 263.763 142.478 262.348C142.489 261.569 142.95 260.757 143.86 259.923Z" fill="#208D81"/>
<path d="M181.777 14.6716C181.437 13.695 180.79 13.0806 179.835 12.8063C179.287 11.6103 179.528 10.535 180.56 9.6024C180.834 9.35004 181.009 9.4049 181.064 9.77796C181.229 10.7764 181.536 11.6871 181.964 12.532C182.414 13.3988 182.359 14.112 181.777 14.6716Z" fill="#2C598D"/>
<path d="M167.471 97.9837C166.889 96.1074 166.308 94.2421 165.715 92.3878C165.024 90.2043 164.596 88.3061 164.454 86.6823C163.894 80.6146 164.684 74.931 166.823 69.6424C167.537 67.8649 168.645 66.0435 170.17 64.1673C172.583 62.697 176.259 61.5778 177.586 64.8695C179.605 69.8948 179.309 76.0392 175.743 80.2416C175.293 80.7573 175.151 80.6914 175.304 80.0221C175.71 78.2666 176.621 76.4891 176.654 74.6677C176.698 72.0014 175.677 69.7411 173.593 67.9088C172.561 66.9981 170.96 67.2285 170.214 68.3806C167.284 72.9231 165.671 78.3543 165.375 84.6743C165.178 88.8548 166.099 93.0571 168.14 97.2595C168.261 97.5228 168.195 97.7203 167.943 97.841C167.822 97.8959 167.657 97.9507 167.471 97.9837Z" fill="#2C598D"/>
<path d="M135.95 98.8834C136.005 98.8834 136.071 98.8834 136.137 98.8834L137.64 105.785C137.355 105.939 137.201 105.949 137.19 105.807C136.389 103.558 135.983 101.242 135.95 98.8834Z" fill="#2C598D"/>
<path d="M137.618 108.517C137.848 108.374 138.057 108.352 138.221 108.462C139.878 114.354 141.6 120.301 144.585 125.765C147.295 131.46 150.959 137.462 155.589 143.771C157.322 146.13 159.582 147.238 162.38 147.073C162.742 147.062 162.973 146.876 163.071 146.525L165.957 135.684C164.805 145.044 162.72 154.271 159.692 163.378C158.189 162.654 157.081 161.458 156.368 159.79C151.573 148.697 147.163 137.473 143.114 126.138L137.618 108.517Z" fill="#2C598D"/>
<path d="M118.33 151.034C118.484 150.979 118.681 150.958 118.923 150.969C123.476 160.767 127.678 166.933 134.831 177.949L149.73 201.869C149.906 202.143 150.059 202.143 150.202 201.847L152.33 197.491L149.412 211.568C147.733 210.065 146.472 208.254 145.627 206.159C141.118 194.989 136.082 184.401 130.53 174.405L118.33 151.034Z" fill="#2C598D"/>
<path d="M154.667 85.3217C155.271 82.1946 155.962 79.265 156.741 76.511C156.752 76.4561 156.796 76.4342 156.851 76.4452L157.147 76.4891C157.454 76.5439 157.564 76.7305 157.465 77.0267C157.015 78.4421 156.379 79.6162 156.181 81.1193C155.951 82.82 155.699 84.5207 155.402 86.1995C154.777 89.7764 154.47 95.5039 155.315 98.7298C155.786 100.518 156.104 102.307 156.269 104.095C156.291 104.304 156.137 104.49 155.94 104.512C155.819 104.523 155.71 104.49 155.622 104.391C155.578 104.359 155.556 104.315 155.545 104.26C154.81 101.22 154.294 98.258 153.976 95.3723C153.669 92.5963 153.899 89.2388 154.667 85.3217Z" fill="#4D91CF"/>
<path d="M84.3083 170.236C83.4745 166.483 83.8146 162.61 83.3099 158.858C82.2896 151.342 82.5748 143.376 84.1657 134.938C84.6045 132.612 85.5809 130.439 87.106 128.421C87.5119 127.872 87.7533 127.938 87.8081 128.618C88.1702 132.755 87.841 137.122 86.8207 141.741C85.8004 146.327 85.2847 150.343 85.2738 153.777C85.2408 159.593 85.1969 165.046 85.1311 170.148C85.0982 172.507 84.8239 172.54 84.3083 170.236Z" fill="#0CA197"/>
<path d="M79.8868 209.67C79.9965 209.758 80.0295 209.911 79.9636 210.021L79.7991 210.295C79.7223 210.427 79.6126 210.449 79.4919 210.372C69.7493 203.899 62.0914 197.941 58.7671 186.145C58.3721 184.73 58.5257 184.664 59.2388 185.948C64.4063 195.219 71.2853 203.13 79.8868 209.67Z" fill="#0B7F87"/>
<path d="M26.676 287.134C30.2966 287.968 33.9939 288.363 37.6912 289.251C37.8119 289.284 37.8119 289.449 37.6912 289.471C32.436 290.513 27.5537 290.996 23.0555 290.941C18.0306 290.864 14.4979 288.637 12.4572 284.248C12.3036 283.93 12.5998 283.579 12.94 283.667C17.4053 284.884 21.9913 286.037 26.676 287.134Z" fill="#0B7F87"/>
<path d="M218.619 195.033C218.674 195.099 218.674 195.198 218.608 195.252L205.519 207.08C204.334 208.156 203.237 208.88 203.073 208.693C202.919 208.518 203.742 207.497 204.927 206.433L218.016 194.594C218.081 194.539 218.18 194.55 218.235 194.605L218.619 195.033Z" fill="#667FCD"/>
<path d="M240.88 256.258C240.759 256.28 240.693 256.236 240.66 256.126C240.627 256.017 240.671 255.951 240.77 255.929C247.759 254.151 253.113 250.19 256.832 244.046C257.062 243.662 257.348 243.618 257.688 243.903C257.951 244.112 258.127 244.386 258.203 244.726C258.324 245.198 258.225 245.626 257.907 246.01C253.398 251.43 247.726 254.843 240.88 256.258Z" fill="#D84A72"/>
<path fill-rule="evenodd" clip-rule="evenodd" d="M181.997 300.399C182.026 300.129 182.074 300.073 182.14 300.232C182.092 300.287 182.045 300.343 181.997 300.399ZM240.88 256.258C240.759 256.28 240.693 256.236 240.66 256.126C240.627 256.017 240.671 255.951 240.77 255.929C247.759 254.151 253.113 250.19 256.832 244.046C257.062 243.662 257.348 243.618 257.688 243.903C257.951 244.112 258.127 244.386 258.203 244.726C258.324 245.198 258.225 245.626 257.907 246.01C253.398 251.43 247.726 254.843 240.88 256.258Z" fill="#F2EDE7"/>
</svg>
